<svg width="58" height="57" viewBox="0 0 58 57" fill="none" xmlns="http://www.w3.org/2000/svg">
<rect x="1" y="0.5" width="56" height="56" rx="9.5" fill="#F8F9FC" stroke="#EDEEF2"/>
<path d="M32.75 18.7522L38.75 24.7517M15.5 42.0005H21.5L41 22.5019C41.7956 21.7063 42.2426 20.6272 42.2426 19.5021C42.2426 18.377 41.7956 17.2979 41 16.5023C40.2044 15.7067 39.1252 15.2598 38 15.2598C36.8748 15.2598 35.7956 15.7067 35 16.5023L15.5 36.0009V42.0005Z" stroke="#C6CAD4" stroke-width="2.8" stroke-linecap="round" stroke-linejoin="round"/>
<path d="M29 22.4995L21.5 15L15.5 20.9996L23 28.499M21.5 22.4995L19.25 24.7493M35 28.499L42.5 35.9985L36.5 41.9981L29 34.4986M35 35.9985L32.75 38.2483" stroke="#C6CAD4" stroke-width="2.8" stroke-linecap="round" stroke-linejoin="round"/>
</svg>
