<svg width="58" height="57" viewBox="0 0 58 57" fill="none" xmlns="http://www.w3.org/2000/svg">
<rect x="1" y="0.5" width="56" height="56" rx="9.5" fill="#F8F9FC" stroke="#EDEEF2"/>
<path d="M43.7879 13.9597C43.7756 13.9007 43.7468 13.8464 43.7048 13.8032C43.6628 13.76 43.6094 13.7297 43.5507 13.7159C39.6433 12.7594 30.6169 16.1674 25.7215 21.0633C24.849 21.9293 24.0535 22.8697 23.3438 23.8737C21.8349 23.737 20.3259 23.8521 19.0412 24.413C15.4132 26.0095 14.3577 30.1791 14.0631 31.969C14.0471 32.0671 14.054 32.1675 14.083 32.2625C14.1121 32.3575 14.1626 32.4446 14.2307 32.5169C14.2988 32.5892 14.3826 32.6449 14.4757 32.6796C14.5687 32.7142 14.6685 32.727 14.7673 32.7169L20.5925 32.0768C20.5965 32.5166 20.6229 32.9558 20.6716 33.3929C20.702 33.6949 20.8366 33.977 21.0524 34.1904L23.3079 36.4478C23.5213 36.6638 23.8034 36.7986 24.1055 36.8289C24.5395 36.8773 24.9758 36.9037 25.4125 36.908L24.7737 42.733C24.7638 42.8317 24.7766 42.9314 24.8113 43.0244C24.8459 43.1174 24.9015 43.2011 24.9736 43.2691C25.0458 43.3372 25.1326 43.3877 25.2274 43.4168C25.3222 43.4459 25.4224 43.4529 25.5203 43.437C27.3095 43.1494 31.4842 42.093 33.07 38.4628C33.6305 37.1755 33.7455 35.6732 33.6161 34.1703C34.6223 33.4607 35.5645 32.6644 36.4321 31.7906C41.3455 26.9005 44.7292 18.0652 43.7879 13.9597ZM32.0648 25.4558C31.6356 25.0264 31.3434 24.4792 31.2249 23.8835C31.1065 23.2879 31.1672 22.6704 31.3994 22.1093C31.6316 21.5481 32.0248 21.0685 32.5294 20.7311C33.034 20.3936 33.6272 20.2135 34.2341 20.2135C34.8409 20.2135 35.4342 20.3936 35.9388 20.7311C36.4433 21.0685 36.8366 21.5481 37.0688 22.1093C37.301 22.6704 37.3617 23.2879 37.2433 23.8835C37.1248 24.4792 36.8325 25.0264 36.4034 25.4558C36.1187 25.7413 35.7806 25.9678 35.4084 26.1223C35.0361 26.2769 34.6371 26.3564 34.2341 26.3564C33.8311 26.3564 33.4321 26.2769 33.0598 26.1223C32.6876 25.9678 32.3495 25.7413 32.0648 25.4558Z" stroke="#C6CAD4" stroke-width="2.8" stroke-linecap="round" stroke-linejoin="round"/>
<path d="M17.4831 36.4004C16.7667 36.4884 16.1003 36.8134 15.5897 37.3238C14.3236 38.5952 14.2036 43.3041 14.2036 43.3041C14.2036 43.3041 18.9115 43.184 20.1783 41.9154C20.6903 41.4052 21.0156 40.7371 21.1016 40.0191" stroke="#C6CAD4" stroke-width="2.8" stroke-linecap="round" stroke-linejoin="round"/>
</svg>
