<svg width="57" height="57" viewBox="0 0 57 57" fill="none" xmlns="http://www.w3.org/2000/svg">
<rect width="57" height="57" rx="10" fill="#EEEEFF"/>
<g clip-path="url(#clip0_3162_52528)">
<g opacity="0.8">
<g filter="url(#filter0_ii_3162_52528)">
<path d="M28.7666 35.4355C32.6582 35.4355 35.823 32.269 35.823 28.3792V17.7946C35.823 13.9031 32.6582 10.7383 28.7666 10.7383C24.875 10.7383 21.7102 13.9031 21.7102 17.7946V28.3792C21.7102 32.269 24.875 35.4355 28.7666 35.4355ZM41.1152 28.3792V24.851C41.1152 24.3831 40.9294 23.9344 40.5985 23.6036C40.2677 23.2728 39.819 23.0869 39.3511 23.0869C38.8833 23.0869 38.4346 23.2728 38.1037 23.6036C37.7729 23.9344 37.5871 24.3831 37.5871 24.851V28.3792C37.5871 33.2428 33.6302 37.1996 28.7666 37.1996C23.903 37.1996 19.9461 33.2428 19.9461 28.3792V24.851C19.9461 24.3831 19.7603 23.9344 19.4295 23.6036C19.0986 23.2728 18.6499 23.0869 18.1821 23.0869C17.7142 23.0869 17.2655 23.2728 16.9347 23.6036C16.6038 23.9344 16.418 24.3831 16.418 24.851V28.3792C16.418 34.5888 21.0275 39.7258 27.0025 40.5867V42.4919H21.7102C21.2424 42.4919 20.7937 42.6778 20.4628 43.0086C20.132 43.3394 19.9461 43.7881 19.9461 44.256C19.9461 44.7239 20.132 45.1726 20.4628 45.5034C20.7937 45.8342 21.2424 46.0201 21.7102 46.0201H35.823C36.2908 46.0201 36.7395 45.8342 37.0704 45.5034C37.4012 45.1726 37.5871 44.7239 37.5871 44.256C37.5871 43.7881 37.4012 43.3394 37.0704 43.0086C36.7395 42.6778 36.2908 42.4919 35.823 42.4919H30.5307V40.5867C36.5057 39.7258 41.1152 34.5888 41.1152 28.3792Z" fill="#6360FF"/>
</g>
<path d="M27.5025 40.5867V40.1536L27.0738 40.0918C21.34 39.2657 16.918 34.3353 16.918 28.3792V24.851C16.918 24.5157 17.0511 24.1942 17.2882 23.9572C17.5253 23.7201 17.8468 23.5869 18.1821 23.5869C18.5173 23.5869 18.8388 23.7201 19.0759 23.9572C19.313 24.1942 19.4461 24.5157 19.4461 24.851V28.3792C19.4461 33.5189 23.6269 37.6996 28.7666 37.6996C33.9063 37.6996 38.0871 33.5189 38.0871 28.3792V24.851C38.0871 24.5157 38.2202 24.1942 38.4573 23.9572C38.6944 23.7201 39.0159 23.5869 39.3511 23.5869C39.6864 23.5869 40.0079 23.7201 40.245 23.9572C40.4821 24.1942 40.6152 24.5157 40.6152 24.851V28.3792C40.6152 34.3353 36.1932 39.2657 30.4594 40.0918L30.0307 40.1536V40.5867V42.4919V42.9919H30.5307H35.823C36.1582 42.9919 36.4798 43.1251 36.7168 43.3621C36.9539 43.5992 37.0871 43.9207 37.0871 44.256C37.0871 44.5913 36.9539 44.9128 36.7168 45.1498C36.4797 45.3869 36.1582 45.5201 35.823 45.5201H21.7102C21.375 45.5201 21.0535 45.3869 20.8164 45.1498C20.5793 44.9128 20.4461 44.5913 20.4461 44.256C20.4461 43.9207 20.5793 43.5992 20.8164 43.3621C21.0535 43.1251 21.375 42.9919 21.7102 42.9919H27.0025H27.5025V42.4919V40.5867ZM35.323 28.3792C35.323 31.9929 32.382 34.9355 28.7666 34.9355C25.1512 34.9355 22.2102 31.9929 22.2102 28.3792V17.7946C22.2102 14.1792 25.1512 11.2383 28.7666 11.2383C32.382 11.2383 35.323 14.1792 35.323 17.7946V28.3792Z" stroke="url(#paint0_linear_3162_52528)"/>
</g>
</g>
<defs>
<filter id="filter0_ii_3162_52528" x="15.8299" y="10.1503" width="26.4614" height="37.0453" filterUnits="userSpaceOnUse" color-interpolation-filters="sRGB">
<feFlood flood-opacity="0" result="BackgroundImageFix"/>
<feBlend mode="normal" in="SourceGraphic" in2="BackgroundImageFix" result="shape"/>
<feColorMatrix in="SourceAlpha" type="matrix" values="0 0 0 0 0 0 0 0 0 0 0 0 0 0 0 0 0 0 127 0" result="hardAlpha"/>
<feOffset dx="-0.58803" dy="-0.58803"/>
<feGaussianBlur stdDeviation="0.294015"/>
<feComposite in2="hardAlpha" operator="arithmetic" k2="-1" k3="1"/>
<feColorMatrix type="matrix" values="0 0 0 0 0.866667 0 0 0 0 0.862745 0 0 0 0 1 0 0 0 0.8 0"/>
<feBlend mode="normal" in2="shape" result="effect1_innerShadow_3162_52528"/>
<feColorMatrix in="SourceAlpha" type="matrix" values="0 0 0 0 0 0 0 0 0 0 0 0 0 0 0 0 0 0 127 0" result="hardAlpha"/>
<feOffset dx="1.17606" dy="1.17606"/>
<feGaussianBlur stdDeviation="2.35212"/>
<feComposite in2="hardAlpha" operator="arithmetic" k2="-1" k3="1"/>
<feColorMatrix type="matrix" values="0 0 0 0 1 0 0 0 0 1 0 0 0 0 1 0 0 0 0.25 0"/>
<feBlend mode="normal" in2="effect1_innerShadow_3162_52528" result="effect2_innerShadow_3162_52528"/>
</filter>
<linearGradient id="paint0_linear_3162_52528" x1="40.4565" y1="10.7383" x2="7.88873" y2="34.1604" gradientUnits="userSpaceOnUse">
<stop stop-color="white" stop-opacity="0.25"/>
<stop offset="1" stop-color="white" stop-opacity="0.5"/>
</linearGradient>
<clipPath id="clip0_3162_52528">
<rect width="36" height="36" fill="white" transform="translate(10.5 10.5)"/>
</clipPath>
</defs>
</svg>
