<svg width="57" height="57" viewBox="0 0 57 57" fill="none" xmlns="http://www.w3.org/2000/svg">
<rect width="57" height="57" rx="10" fill="#EEEEFF"/>
<g clip-path="url(#clip0_3162_52537)">
<g opacity="0.8">
<g filter="url(#filter0_ii_3162_52537)">
<path d="M33.3545 17.5C33.3545 16.9477 33.8023 16.5 34.3545 16.5H45.5001C46.0524 16.5 46.5001 16.9477 46.5001 17.5V21.5C46.5001 22.0523 46.0524 22.5 45.5001 22.5H39.1884C39.0779 22.5 38.9884 22.5895 38.9884 22.7V29.5C38.9884 30.0523 38.5406 30.5 37.9884 30.5H31.6766C31.5662 30.5 31.4766 30.5895 31.4766 30.7V37.5C31.4766 38.0523 31.0289 38.5 30.4766 38.5H24.1649C24.0544 38.5 23.9649 38.5895 23.9649 38.7V45.5C23.9649 46.0523 23.5172 46.5 22.9649 46.5H11.8193C11.2671 46.5 10.8193 46.0523 10.8193 45.5V41.5C10.8193 40.9477 11.2671 40.5 11.8193 40.5H18.2311C18.2863 40.5 18.3311 40.4552 18.3311 40.4V33.5C18.3311 32.9477 18.7788 32.5 19.3311 32.5H25.7428C25.798 32.5 25.8428 32.4552 25.8428 32.4V25.5C25.8428 24.9477 26.2905 24.5 26.8428 24.5H33.2545C33.3098 24.5 33.3545 24.4552 33.3545 24.4V17.5Z" fill="#6360FF"/>
</g>
<path d="M33.8545 17.5C33.8545 17.2239 34.0784 17 34.3545 17H45.5001C45.7762 17 46.0001 17.2239 46.0001 17.5V21.5C46.0001 21.7761 45.7762 22 45.5001 22H39.1884C38.8018 22 38.4884 22.3134 38.4884 22.7V29.5C38.4884 29.7761 38.2645 30 37.9884 30H31.6766C31.29 30 30.9766 30.3134 30.9766 30.7V37.5C30.9766 37.7761 30.7528 38 30.4766 38H24.1649C23.7783 38 23.4649 38.3134 23.4649 38.7V45.5C23.4649 45.7761 23.241 46 22.9649 46H11.8193C11.5432 46 11.3193 45.7761 11.3193 45.5V41.5C11.3193 41.2239 11.5432 41 11.8193 41H18.2311C18.5624 41 18.8311 40.7314 18.8311 40.4V33.5C18.8311 33.2239 19.0549 33 19.3311 33H25.7428C26.0742 33 26.3428 32.7314 26.3428 32.4V25.5C26.3428 25.2239 26.5667 25 26.8428 25H33.2545C33.5859 25 33.8545 24.7314 33.8545 24.4V17.5Z" stroke="url(#paint0_linear_3162_52537)"/>
</g>
<g opacity="0.8">
<mask id="path-4-inside-1_3162_52537" fill="white">
<path fill-rule="evenodd" clip-rule="evenodd" d="M23.1502 13.7001L12.0585 24.7918C11.4336 25.4166 11.4336 26.4297 12.0585 27.0545C12.6833 27.6794 13.6964 27.6794 14.3212 27.0545L25.2995 16.0763L25.2994 18.0471C25.2994 18.9307 26.0157 19.6471 26.8994 19.6471C27.7831 19.6471 28.4994 18.9308 28.4994 18.0472L28.4996 13.1002C28.4996 11.6643 27.3356 10.5002 25.8996 10.5002L20.4647 10.5C19.5811 10.5 18.8647 11.2163 18.8647 12.1C18.8646 12.9836 19.581 13.7 20.4646 13.7L23.1502 13.7001Z"/>
</mask>
<g filter="url(#filter1_ii_3162_52537)">
<path fill-rule="evenodd" clip-rule="evenodd" d="M23.1502 13.7001L12.0585 24.7918C11.4336 25.4166 11.4336 26.4297 12.0585 27.0545C12.6833 27.6794 13.6964 27.6794 14.3212 27.0545L25.2995 16.0763L25.2994 18.0471C25.2994 18.9307 26.0157 19.6471 26.8994 19.6471C27.7831 19.6471 28.4994 18.9308 28.4994 18.0472L28.4996 13.1002C28.4996 11.6643 27.3356 10.5002 25.8996 10.5002L20.4647 10.5C19.5811 10.5 18.8647 11.2163 18.8647 12.1C18.8646 12.9836 19.581 13.7 20.4646 13.7L23.1502 13.7001Z" fill="#6360FF"/>
</g>
<path d="M12.0585 24.7918L12.7656 25.4989H12.7656L12.0585 24.7918ZM23.1502 13.7001L23.8573 14.4072L25.5643 12.7002L23.1502 12.7001L23.1502 13.7001ZM12.0585 27.0545L12.7656 26.3474H12.7656L12.0585 27.0545ZM14.3212 27.0545L13.6141 26.3474H13.6141L14.3212 27.0545ZM25.2995 16.0763L26.2995 16.0763L26.2995 13.662L24.5924 15.3692L25.2995 16.0763ZM25.2994 18.0471L26.2994 18.0471L25.2994 18.0471ZM26.8994 19.6471L26.8994 18.6471H26.8994L26.8994 19.6471ZM28.4994 18.0472L29.4994 18.0472V18.0472L28.4994 18.0472ZM28.4996 13.1002L27.4996 13.1002V13.1002L28.4996 13.1002ZM25.8996 10.5002L25.8997 9.50017L25.8996 10.5002ZM20.4647 10.5L20.4648 9.5L20.4647 10.5ZM18.8647 12.1L19.8647 12.1L18.8647 12.1ZM20.4646 13.7L20.4647 12.7L20.4646 13.7ZM12.7656 25.4989L23.8573 14.4072L22.4431 12.993L11.3514 24.0847L12.7656 25.4989ZM12.7656 26.3474C12.5313 26.1131 12.5313 25.7332 12.7656 25.4989L11.3514 24.0847C10.336 25.1001 10.336 26.7463 11.3514 27.7616L12.7656 26.3474ZM13.6141 26.3474C13.3798 26.5817 12.9999 26.5817 12.7656 26.3474L11.3514 27.7616C12.3667 28.777 14.013 28.777 15.0283 27.7616L13.6141 26.3474ZM24.5924 15.3692L13.6141 26.3474L15.0283 27.7616L26.0066 16.7834L24.5924 15.3692ZM24.2995 16.0762L24.2994 18.047L26.2994 18.0471L26.2995 16.0763L24.2995 16.0762ZM24.2994 18.047C24.2994 19.483 25.4634 20.6471 26.8994 20.6471L26.8994 18.6471C26.568 18.6471 26.2994 18.3785 26.2994 18.0471L24.2994 18.047ZM26.8994 20.6471C28.3353 20.6471 29.4994 19.4831 29.4994 18.0472L27.4994 18.0471C27.4994 18.3785 27.2308 18.6471 26.8994 18.6471L26.8994 20.6471ZM29.4994 18.0472L29.4996 13.1003L27.4996 13.1002L27.4994 18.0471L29.4994 18.0472ZM29.4996 13.1003C29.4996 11.112 27.8879 9.50023 25.8997 9.50017L25.8996 11.5002C26.7833 11.5002 27.4996 12.2166 27.4996 13.1002L29.4996 13.1003ZM25.8997 9.50017L20.4648 9.5L20.4647 11.5L25.8996 11.5002L25.8997 9.50017ZM20.4648 9.5C19.0288 9.49996 17.8647 10.664 17.8647 12.0999L19.8647 12.1C19.8647 11.7686 20.1333 11.5 20.4647 11.5L20.4648 9.5ZM17.8647 12.0999C17.8646 13.5359 19.0287 14.7 20.4646 14.7L20.4647 12.7C20.1333 12.7 19.8647 12.4314 19.8647 12.1L17.8647 12.0999ZM20.4646 14.7L23.1502 14.7001L23.1502 12.7001L20.4647 12.7L20.4646 14.7Z" fill="url(#paint1_linear_3162_52537)" mask="url(#path-4-inside-1_3162_52537)"/>
</g>
</g>
<defs>
<filter id="filter0_ii_3162_52537" x="10.3193" y="16" width="37.1807" height="31.5" filterUnits="userSpaceOnUse" color-interpolation-filters="sRGB">
<feFlood flood-opacity="0" result="BackgroundImageFix"/>
<feBlend mode="normal" in="SourceGraphic" in2="BackgroundImageFix" result="shape"/>
<feColorMatrix in="SourceAlpha" type="matrix" values="0 0 0 0 0 0 0 0 0 0 0 0 0 0 0 0 0 0 127 0" result="hardAlpha"/>
<feOffset dx="-0.5" dy="-0.5"/>
<feGaussianBlur stdDeviation="0.25"/>
<feComposite in2="hardAlpha" operator="arithmetic" k2="-1" k3="1"/>
<feColorMatrix type="matrix" values="0 0 0 0 0.866667 0 0 0 0 0.862745 0 0 0 0 1 0 0 0 0.8 0"/>
<feBlend mode="normal" in2="shape" result="effect1_innerShadow_3162_52537"/>
<feColorMatrix in="SourceAlpha" type="matrix" values="0 0 0 0 0 0 0 0 0 0 0 0 0 0 0 0 0 0 127 0" result="hardAlpha"/>
<feOffset dx="1" dy="1"/>
<feGaussianBlur stdDeviation="2"/>
<feComposite in2="hardAlpha" operator="arithmetic" k2="-1" k3="1"/>
<feColorMatrix type="matrix" values="0 0 0 0 1 0 0 0 0 1 0 0 0 0 1 0 0 0 0.25 0"/>
<feBlend mode="normal" in2="effect1_innerShadow_3162_52537" result="effect2_innerShadow_3162_52537"/>
</filter>
<filter id="filter1_ii_3162_52537" x="11.0898" y="10" width="18.4097" height="18.5234" filterUnits="userSpaceOnUse" color-interpolation-filters="sRGB">
<feFlood flood-opacity="0" result="BackgroundImageFix"/>
<feBlend mode="normal" in="SourceGraphic" in2="BackgroundImageFix" result="shape"/>
<feColorMatrix in="SourceAlpha" type="matrix" values="0 0 0 0 0 0 0 0 0 0 0 0 0 0 0 0 0 0 127 0" result="hardAlpha"/>
<feOffset dx="-0.5" dy="-0.5"/>
<feGaussianBlur stdDeviation="0.25"/>
<feComposite in2="hardAlpha" operator="arithmetic" k2="-1" k3="1"/>
<feColorMatrix type="matrix" values="0 0 0 0 0.866667 0 0 0 0 0.862745 0 0 0 0 1 0 0 0 0.8 0"/>
<feBlend mode="normal" in2="shape" result="effect1_innerShadow_3162_52537"/>
<feColorMatrix in="SourceAlpha" type="matrix" values="0 0 0 0 0 0 0 0 0 0 0 0 0 0 0 0 0 0 127 0" result="hardAlpha"/>
<feOffset dx="1" dy="1"/>
<feGaussianBlur stdDeviation="2"/>
<feComposite in2="hardAlpha" operator="arithmetic" k2="-1" k3="1"/>
<feColorMatrix type="matrix" values="0 0 0 0 1 0 0 0 0 1 0 0 0 0 1 0 0 0 0.25 0"/>
<feBlend mode="normal" in2="effect1_innerShadow_3162_52537" result="effect2_innerShadow_3162_52537"/>
</filter>
<linearGradient id="paint0_linear_3162_52537" x1="45.5484" y1="16.5" x2="16.9151" y2="51.4885" gradientUnits="userSpaceOnUse">
<stop stop-color="white" stop-opacity="0.25"/>
<stop offset="1" stop-color="white" stop-opacity="0.5"/>
</linearGradient>
<linearGradient id="paint1_linear_3162_52537" x1="28.0485" y1="10.5" x2="11.4768" y2="27.4124" gradientUnits="userSpaceOnUse">
<stop stop-color="white" stop-opacity="0.25"/>
<stop offset="1" stop-color="white" stop-opacity="0.5"/>
</linearGradient>
<clipPath id="clip0_3162_52537">
<rect width="36" height="36" fill="white" transform="translate(10.5 10.5)"/>
</clipPath>
</defs>
</svg>
