<svg width="58" height="57" viewBox="0 0 58 57" fill="none" xmlns="http://www.w3.org/2000/svg">
<rect x="1" y="0.5" width="56" height="56" rx="9.5" fill="#F8F9FC" stroke="#EDEEF2"/>
<path d="M13.9488 39.6527V22.3711C13.9488 21.6795 14.5095 21.1187 15.2012 21.1187H42.7999C43.4916 21.1187 44.0523 21.6795 44.0523 22.3711V39.6527C44.0523 40.3443 43.4916 40.905 42.7999 40.905H15.2012C14.5095 40.905 13.9488 40.3443 13.9488 39.6527Z" stroke="#C6CAD4" stroke-width="2.8"/>
<path d="M18.0317 22.228V17.3516C18.0317 15.8867 19.2192 14.6992 20.6841 14.6992H37.315C38.7799 14.6992 39.9674 15.8867 39.9674 17.3516V22.228" stroke="#C6CAD4" stroke-width="2.8"/>
<path d="M13.918 28.7539L20.9472 33.0265C21.7299 33.5023 22.6283 33.7539 23.5442 33.7539H34.4532C35.3692 33.7539 36.2676 33.5023 37.0503 33.0265L44.0795 28.7539" stroke="#C6CAD4" stroke-width="2.8"/>
</svg>
