<svg width="58" height="57" viewBox="0 0 58 57" fill="none" xmlns="http://www.w3.org/2000/svg">
<rect x="1" y="0.5" width="56" height="56" rx="9.5" fill="#F8F9FC" stroke="#EDEEF2"/>
<path d="M42.8723 35.8122C42.0221 30.8643 39.5923 26.3042 35.9291 22.7811C35.1271 22.0204 34.7269 21.6408 33.8412 21.2899C32.9554 20.9375 32.1938 20.9375 30.6721 20.9375H27.3277C25.8059 20.9375 25.0443 20.9375 24.1586 21.2899C23.2744 21.6408 22.8711 22.0204 22.0706 22.7811C18.4074 26.3042 15.9777 30.8643 15.1275 35.8122C14.372 40.2557 18.5758 43.6239 23.2728 43.6239H34.7269C39.4255 43.6239 43.6308 40.2557 42.8707 35.8122" stroke="#C6CAD4" stroke-width="2.8" stroke-linecap="round" stroke-linejoin="round"/>
<path d="M21.6411 17.0699C21.32 16.6161 20.8562 15.9991 21.8149 15.8599C22.7999 15.7147 23.8221 16.3711 24.8242 16.359C25.7286 16.3454 26.1893 15.9537 26.6856 15.3941C27.2069 14.8058 28.0135 13.375 28.9985 13.375C29.9835 13.375 30.7901 14.8058 31.3113 15.3941C31.8077 15.9537 32.2684 16.3469 33.1728 16.3575C34.1749 16.3726 35.1971 15.7147 36.1821 15.8584C37.1408 15.9991 36.677 16.6146 36.3559 17.0683L34.9101 19.1237C34.2896 20.0009 33.981 20.4395 33.3326 20.6891C32.6842 20.9386 31.8481 20.9371 30.1743 20.9371H27.8227C26.1474 20.9371 25.3113 20.9371 24.6644 20.6891C24.0176 20.441 23.7073 19.9994 23.0869 19.1222L21.6411 17.0699Z" stroke="#C6CAD4" stroke-width="2.8" stroke-linecap="round" stroke-linejoin="round"/>
<path d="M29.001 26.8662C26.3913 26.8662 24.9023 28.089 24.9023 29.5986C24.9023 31.5002 26.7372 32.3311 29.001 32.3311C31.2648 32.3311 33.0996 33.5538 33.0996 35.0635C33.0996 37.0686 31.2648 37.7959 29.001 37.7959M29.001 26.8662C30.5175 26.8662 32.0371 27.5024 33.0996 28.2685M29.001 26.8662V25.5M29.001 26.8662V37.7959M29.001 37.7959V39.1621M29.001 37.7959C27.4845 37.7959 25.8231 37.1822 24.9023 36.3867" stroke="#C6CAD4" stroke-width="2.73242" stroke-linecap="round" stroke-linejoin="round"/>
</svg>
