<svg width="512" height="512" viewBox="0 0 512 512" fill="none" xmlns="http://www.w3.org/2000/svg">
<rect width="512" height="512" fill="#5451FF"/>
<path d="M111.352 397.592C106.967 392.022 105.237 385.432 106.146 377.822C107.37 367.576 112.305 359.189 120.967 352.662C129.614 346.133 138.917 343.456 148.876 344.645C156.786 345.59 162.848 348.846 167.095 354.384C171.34 359.938 172.993 366.518 172.083 374.128C170.859 384.374 165.986 392.769 157.495 399.316C148.988 405.862 139.747 408.546 129.804 407.359C121.893 406.413 115.754 403.149 111.367 397.594L111.352 397.592ZM246.115 108.7L177.185 316.412L135.444 311.425L192.957 102.349L246.115 108.7Z" fill="white"/>
<path d="M350.056 125.436L355.258 148.452L375.213 135.855C384.965 129.697 396.303 141.035 390.145 150.787L377.548 170.742L400.564 175.944C411.812 178.486 411.812 194.514 400.564 197.056L377.548 202.258L390.145 222.213C396.303 231.965 384.965 243.303 375.213 237.145L355.258 224.548L350.056 247.564C347.514 258.812 331.486 258.812 328.944 247.564L323.742 224.548L303.787 237.145C294.035 243.303 282.697 231.965 288.855 222.213L301.452 202.258L278.436 197.056C267.188 194.514 267.188 178.486 278.436 175.944L301.452 170.742L288.855 150.787C282.697 141.035 294.035 129.697 303.787 135.855L323.742 148.452L328.944 125.436C331.486 114.188 347.514 114.188 350.056 125.436Z" fill="white"/>
</svg>
