<svg width="14" height="7" viewBox="0 0 14 7" fill="none" xmlns="http://www.w3.org/2000/svg">
<path fill-rule="evenodd" clip-rule="evenodd" d="M12.9963 0.227734C13.1487 0.373596 13.2344 0.5714 13.2344 0.777649C13.2344 0.983897 13.1487 1.1817 12.9963 1.32756L7.30435 6.77227C7.15187 6.91808 6.94508 7 6.72947 7C6.51385 7 6.30706 6.91808 6.15458 6.77227L0.462631 1.32756C0.314512 1.18087 0.232552 0.984388 0.234405 0.780447C0.236258 0.576507 0.321776 0.381421 0.472538 0.237208C0.6233 0.0929948 0.827245 0.011193 1.04045 0.00942084C1.25365 0.00764866 1.45905 0.086048 1.61241 0.227733L6.72947 5.12252L11.8465 0.227734C11.999 0.0819159 12.2058 -4.49605e-08 12.4214 -3.55357e-08C12.637 -2.61109e-08 12.8438 0.081916 12.9963 0.227734Z" fill="#3E3F45"/>
</svg>
