<svg width="86" height="18" viewBox="0 0 86 18" fill="none" xmlns="http://www.w3.org/2000/svg">
<path d="M11.0431 6.50006C11.0431 7.12883 10.8948 7.72201 10.5982 8.2796C10.3016 8.83719 9.82709 9.29394 9.17459 9.64985C8.52209 9.9939 7.68571 10.1659 6.66544 10.1659H4.42321V15.1842H2.39453V2.81641H6.66544C7.61453 2.81641 8.41532 2.9825 9.06782 3.31468C9.73218 3.635 10.2245 4.07395 10.5448 4.63154C10.877 5.18913 11.0431 5.81197 11.0431 6.50006ZM6.66544 8.51094C7.43657 8.51094 8.01196 8.33892 8.39159 7.99488C8.77123 7.63897 8.96105 7.1407 8.96105 6.50006C8.96105 5.14761 8.19584 4.47138 6.66544 4.47138H4.42321V8.51094H6.66544Z" fill="#6B6F77"/>
<path d="M16.6532 2.75391L14.8914 11.3847H13.2009L14.4999 2.75391H16.6532ZM13.4322 15.2463C13.1119 15.2463 12.8509 15.1455 12.6492 14.9438C12.4475 14.7421 12.3467 14.487 12.3467 14.1786C12.3467 13.7633 12.5009 13.4074 12.8094 13.1108C13.1297 12.8024 13.4915 12.6482 13.8949 12.6482C14.2152 12.6482 14.4703 12.749 14.6601 12.9507C14.8618 13.1524 14.9626 13.4074 14.9626 13.7159C14.9626 14.1311 14.8084 14.493 14.4999 14.8014C14.1915 15.098 13.8356 15.2463 13.4322 15.2463Z" fill="#6B6F77"/>
<path d="M17.9561 9C17.9561 7.78991 18.2348 6.70439 18.7924 5.74343C19.3619 4.78248 20.1271 4.03507 21.0881 3.50121C22.0609 2.95548 23.1227 2.68262 24.2734 2.68262C25.5903 2.68262 26.7589 3.00887 27.7791 3.66137C28.8113 4.302 29.5587 5.2155 30.0214 6.40186H27.5834C27.2631 5.74936 26.8182 5.26296 26.2487 4.94264C25.6793 4.62232 25.0208 4.46216 24.2734 4.46216C23.4548 4.46216 22.7252 4.64605 22.0846 5.01382C21.444 5.38159 20.9398 5.90952 20.572 6.59761C20.2161 7.2857 20.0381 8.0865 20.0381 9C20.0381 9.91349 20.2161 10.7143 20.572 11.4024C20.9398 12.0905 21.444 12.6243 22.0846 13.004C22.7252 13.3717 23.4548 13.5556 24.2734 13.5556C25.0208 13.5556 25.6793 13.3955 26.2487 13.0752C26.8182 12.7548 27.2631 12.2684 27.5834 11.6159H30.0214C29.5587 12.8023 28.8113 13.7158 27.7791 14.3564C26.7589 14.9971 25.5903 15.3174 24.2734 15.3174C23.1108 15.3174 22.049 15.0504 21.0881 14.5166C20.1271 13.9709 19.3619 13.2175 18.7924 12.2566C18.2348 11.2956 17.9561 10.2101 17.9561 9Z" fill="#6B6F77"/>
<path d="M38.1408 15.1842L33.3539 9.64985V15.1842H31.3252V2.81641H33.3539V8.45756L38.1586 2.81641H40.7034L35.3292 9.00922L40.7924 15.1842H38.1408Z" fill="#6B6F77"/>
<path d="M52.2747 6.50006C52.1679 7.12883 51.9129 7.72201 51.5095 8.2796C51.118 8.83719 50.5663 9.29394 49.8545 9.64985C49.1427 9.9939 48.2766 10.1659 47.2564 10.1659H45.0142L44.1244 15.1842H42.0957L44.2845 2.81641H48.5554C49.8011 2.81641 50.7443 3.0952 51.3849 3.65279C52.0256 4.19852 52.3459 4.91627 52.3459 5.80604C52.3459 5.96027 52.3221 6.19161 52.2747 6.50006ZM47.5411 8.58213C48.3122 8.58213 48.9173 8.39824 49.3562 8.03047C49.8071 7.6627 50.0859 7.15256 50.1926 6.50006C50.2282 6.32211 50.246 6.15008 50.246 5.98399C50.246 5.48572 50.0799 5.10015 49.7477 4.82729C49.4274 4.54256 48.9351 4.4002 48.2707 4.4002H46.0285L45.2989 8.58213H47.5411Z" fill="#6B6F77"/>
<path d="M55.6781 13.5471H59.86V15.1842H53.6494V2.81641H55.6781V13.5471Z" fill="#6B6F77"/>
<path d="M63.1918 4.46259V8.09286H67.4627V9.74783H63.1918V13.5383H67.9965V15.1932H61.1631V2.80762H67.9965V4.46259H63.1918Z" fill="#6B6F77"/>
</svg>
