<svg width="17" height="17" viewBox="0 0 17 17" fill="none" xmlns="http://www.w3.org/2000/svg">
<g clip-path="url(#clip0_2860_56150)">
<path d="M6.37516 8.50033C6.37516 8.68819 6.30053 8.86835 6.1677 9.00119C6.03486 9.13403 5.85469 9.20866 5.66683 9.20866C5.47897 9.20866 5.2988 9.13403 5.16596 9.00119C5.03312 8.86835 4.9585 8.68819 4.9585 8.50033C4.9585 8.31246 5.03312 8.1323 5.16596 7.99946C5.2988 7.86662 5.47897 7.79199 5.66683 7.79199C5.85469 7.79199 6.03486 7.86662 6.1677 7.99946C6.30053 8.1323 6.37516 8.31246 6.37516 8.50033ZM9.2085 8.50033C9.2085 8.68819 9.13387 8.86835 9.00103 9.00119C8.86819 9.13403 8.68802 9.20866 8.50016 9.20866C8.3123 9.20866 8.13213 9.13403 7.9993 9.00119C7.86646 8.86835 7.79183 8.68819 7.79183 8.50033C7.79183 8.31246 7.86646 8.1323 7.9993 7.99946C8.13213 7.86662 8.3123 7.79199 8.50016 7.79199C8.68802 7.79199 8.86819 7.86662 9.00103 7.99946C9.13387 8.1323 9.2085 8.31246 9.2085 8.50033ZM12.0418 8.50033C12.0418 8.68819 11.9672 8.86835 11.8344 9.00119C11.7015 9.13403 11.5214 9.20866 11.3335 9.20866C11.1456 9.20866 10.9655 9.13403 10.8326 9.00119C10.6998 8.86835 10.6252 8.68819 10.6252 8.50033C10.6252 8.31246 10.6998 8.1323 10.8326 7.99946C10.9655 7.86662 11.1456 7.79199 11.3335 7.79199C11.5214 7.79199 11.7015 7.86662 11.8344 7.99946C11.9672 8.1323 12.0418 8.31246 12.0418 8.50033Z" fill="#6B6F77"/>
<path fill-rule="evenodd" clip-rule="evenodd" d="M16.1144 8.50032C16.1144 4.29495 12.7052 0.885742 8.49984 0.885742C4.29446 0.885742 0.885254 4.29495 0.885254 8.50032C0.885254 9.71724 1.17142 10.8697 1.68 11.8911C1.7558 12.0434 1.77209 12.1992 1.73667 12.3303L1.31521 13.907C1.02621 14.9865 2.01363 15.9739 3.09313 15.6849L4.66988 15.2628C4.81834 15.2286 4.97413 15.2487 5.10905 15.3194C6.16224 15.8442 7.32315 16.1166 8.49984 16.1149C12.7052 16.1149 16.1144 12.7057 16.1144 8.50032ZM8.49984 1.94824C10.2376 1.94824 11.9041 2.63855 13.1329 3.8673C14.3616 5.09606 15.0519 6.7626 15.0519 8.50032C15.0519 10.238 14.3616 11.9046 13.1329 13.1333C11.9041 14.3621 10.2376 15.0524 8.49984 15.0524C7.48764 15.0542 6.48895 14.8202 5.58292 14.3689C5.21663 14.1813 4.79438 14.1342 4.39575 14.2364L2.8183 14.6586C2.75224 14.6762 2.68271 14.6761 2.61669 14.6584C2.55066 14.6406 2.49048 14.6058 2.44217 14.5574C2.39386 14.5091 2.35914 14.4488 2.34148 14.3828C2.32383 14.3167 2.32386 14.2472 2.34159 14.1812L2.76375 12.6044C2.86598 12.2058 2.81887 11.7835 2.6313 11.4172C2.18001 10.5112 1.94597 9.51252 1.94775 8.50032C1.94775 6.7626 2.63806 5.09606 3.86681 3.8673C5.09557 2.63855 6.76212 1.94824 8.49984 1.94824Z" fill="#6B6F77"/>
</g>
<defs>
<clipPath id="clip0_2860_56150">
<rect width="17" height="17" fill="white"/>
</clipPath>
</defs>
</svg>
