<svg width="25" height="24" viewBox="0 0 25 24" fill="none" xmlns="http://www.w3.org/2000/svg">
<g clip-path="url(#clip0_1088_8188)">
<path d="M16.249 8.53354C16.249 10.6284 14.5649 12.3171 12.499 12.3171C10.4332 12.3171 8.74902 10.6284 8.74902 8.53354C8.74902 6.43869 10.4332 4.75 12.499 4.75C14.5649 4.75 16.249 6.43869 16.249 8.53354Z" stroke="#3E3F45" stroke-width="1.5"/>
<path d="M17.1875 20L7.8125 20C7.06658 20 6.35121 19.7612 5.82376 19.3361C5.29632 18.911 5 18.3344 5 17.7332C5 16.3305 5.69141 14.9852 6.92211 13.9932C8.15282 13.0013 9.82202 12.4441 11.5625 12.4441L13.4375 12.4441C15.178 12.4441 16.8472 13.0013 18.0779 13.9932C19.3086 14.9852 20 16.3305 20 17.7332C20 18.3344 19.7037 18.911 19.1762 19.3361C18.6488 19.7612 17.9334 20 17.1875 20Z" stroke="#3E3F45" stroke-width="1.5" stroke-linecap="round" stroke-linejoin="round"/>
</g>
<defs>
<clipPath id="clip0_1088_8188">
<rect width="24" height="24" fill="white" transform="translate(0.5)"/>
</clipPath>
</defs>
</svg>
