<svg width="30" height="30" viewBox="0 0 30 30" fill="none" xmlns="http://www.w3.org/2000/svg">
<path fill-rule="evenodd" clip-rule="evenodd" d="M14.6129 26.2258C21.0265 26.2258 26.2258 21.0265 26.2258 14.6129C26.2258 8.19927 21.0265 3 14.6129 3C8.19927 3 3 8.19927 3 14.6129C3 21.0265 8.19927 26.2258 14.6129 26.2258ZM21.369 11.5548C21.8179 11.0303 21.7567 10.2412 21.2322 9.79231C20.7077 9.34339 19.9187 9.40463 19.4697 9.92909L12.9358 17.5625L8.76346 12.9749C8.29897 12.4642 7.50841 12.4267 6.99768 12.8912C6.48695 13.3557 6.44947 14.1462 6.91396 14.657L11.2769 19.4542C12.1877 20.4558 13.7704 20.432 14.6508 19.4035L21.369 11.5548Z" fill="#DFE2E7"/>
</svg>
