<svg width="30" height="30" viewBox="0 0 30 30" fill="none" xmlns="http://www.w3.org/2000/svg">
<path fill-rule="evenodd" clip-rule="evenodd" d="M14.6129 26.2258C21.0265 26.2258 26.2258 21.0265 26.2258 14.6129C26.2258 8.19927 21.0265 3 14.6129 3C8.19927 3 3 8.19927 3 14.6129C3 21.0265 8.19927 26.2258 14.6129 26.2258ZM21.5471 12.4437C22.0057 11.9278 21.9592 11.1377 21.4432 10.679C20.9273 10.2204 20.1372 10.2668 19.6785 10.7828L13.4738 17.7632L9.52156 13.5785C9.04754 13.0766 8.25641 13.054 7.75451 13.528C7.25262 14.0021 7.23001 14.7932 7.70403 15.2951L11.8436 19.6781C12.75 20.6378 14.284 20.6147 15.161 19.628L21.5471 12.4437Z" fill="#DFE2E7"/>
</svg>
