<svg width="30" height="30" viewBox="0 0 30 30" fill="none" xmlns="http://www.w3.org/2000/svg">
<path d="M16 24H6.5C5.67157 24 5 23.3284 5 22.5V11C5 10.1716 5.67157 9.5 6.5 9.5H9.02175C9.67099 9.5 10.2465 9.08231 10.4478 8.46506L11.0773 6.53493C11.2786 5.91769 11.8541 5.5 12.5034 5.5H18.6003C19.2484 5.5 19.8232 5.91626 20.0254 6.53203L20.6611 8.46797C20.8633 9.08374 21.4381 9.5 22.0862 9.5H24.5C25.3284 9.5 26 10.1716 26 11V17.5" stroke="#6B6F77" stroke-width="1.7" stroke-linecap="round"/>
<circle cx="15.5" cy="15.5" r="3.65" stroke="#6B6F77" stroke-width="1.7"/>
<path d="M22.5 18.5V25.5M19 22H26" stroke="#6B6F77" stroke-width="1.7" stroke-linecap="round"/>
</svg>
