<svg width="25" height="24" viewBox="0 0 25 24" fill="none" xmlns="http://www.w3.org/2000/svg">
<circle cx="12.75" cy="12" r="12" fill="#5451FF"/>
<path d="M18.0625 7.13086H17.2919C16.6233 7.13086 15.9989 6.79674 15.628 6.24045L15.3166 5.77352C15.2681 5.70084 15.2024 5.64124 15.1254 5.6C15.0484 5.55876 14.9624 5.53716 14.875 5.53711H10.625C10.5376 5.53716 10.4516 5.55876 10.3746 5.6C10.2976 5.64124 10.2319 5.70084 10.1834 5.77352L9.87143 6.24101C9.50042 6.79698 8.87622 7.13086 8.20783 7.13086H7.4375C7.01481 7.13086 6.60943 7.29877 6.31055 7.59766C6.01166 7.89654 5.84375 8.30192 5.84375 8.72461V16.1621C5.84375 16.5848 6.01166 16.9902 6.31055 17.2891C6.60943 17.5879 7.01481 17.7559 7.4375 17.7559H18.0625C18.4852 17.7559 18.8906 17.5879 19.1895 17.2891C19.4883 16.9902 19.6562 16.5848 19.6562 16.1621V8.72461C19.6562 8.30192 19.4883 7.89654 19.1895 7.59766C18.8906 7.29877 18.4852 7.13086 18.0625 7.13086ZM15.1406 12.1777C15.1406 12.6506 15.0004 13.1128 14.7377 13.5059C14.475 13.899 14.1017 14.2054 13.6649 14.3864C13.228 14.5673 12.7473 14.6147 12.2836 14.5224C11.8199 14.4302 11.3939 14.2025 11.0596 13.8682C10.7252 13.5338 10.4976 13.1079 10.4053 12.6441C10.3131 12.1804 10.3604 11.6997 10.5414 11.2629C10.7223 10.8261 11.0287 10.4527 11.4218 10.19C11.815 9.92732 12.2772 9.78711 12.75 9.78711C13.384 9.78711 13.9921 10.039 14.4404 10.4873C14.8888 10.9356 15.1406 11.5437 15.1406 12.1777Z" fill="white"/>
</svg>
