<svg width="150" height="150" viewBox="0 0 150 150" fill="none" xmlns="http://www.w3.org/2000/svg">
<rect width="150" height="150" fill="white"/>
<g filter="url(#filter0_d_3161_66607)">
<path fill-rule="evenodd" clip-rule="evenodd" d="M56.0744 120.999C74.3409 120.999 89.1488 106.613 89.1488 88.8659C89.1488 71.1191 74.3409 56.7324 56.0744 56.7324C37.8079 56.7324 23 71.1191 23 88.8659C23 96.302 25.5998 103.148 29.9645 108.593L26.4399 118.583C26.1985 119.267 26.8242 119.944 27.5251 119.756L39.3469 116.593C44.2545 119.394 49.9714 120.999 56.0744 120.999Z" fill="url(#paint0_linear_3161_66607)"/>
</g>
<g filter="url(#filter1_bd_3161_66607)">
<path fill-rule="evenodd" clip-rule="evenodd" d="M119.589 91.811C124.037 85.4735 126.636 77.8189 126.636 69.5757C126.636 47.7187 108.361 30 85.818 30C63.2748 30 45 47.7187 45 69.5757C45 91.4328 63.2748 109.151 85.818 109.151C94.2743 109.151 102.13 106.658 108.646 102.389L122.317 106.494C123.242 106.772 124.1 105.899 123.805 104.979L119.589 91.811Z" fill="url(#paint1_linear_3161_66607)" shape-rendering="crispEdges"/>
<path d="M119.589 91.811L119.18 91.5238L119.037 91.727L119.113 91.9635L119.589 91.811ZM108.646 102.389L108.79 101.91L108.567 101.843L108.372 101.97L108.646 102.389ZM122.317 106.494L122.173 106.973L122.317 106.494ZM123.805 104.979L123.329 105.131L123.805 104.979ZM126.136 69.5757C126.136 77.7119 123.571 85.2669 119.18 91.5238L119.999 92.0982C124.502 85.6802 127.136 77.926 127.136 69.5757H126.136ZM85.818 30.5C108.1 30.5 126.136 48.0093 126.136 69.5757H127.136C127.136 47.4281 108.623 29.5 85.818 29.5V30.5ZM45.5 69.5757C45.5 48.0093 63.5363 30.5 85.818 30.5V29.5C63.0134 29.5 44.5 47.4281 44.5 69.5757H45.5ZM85.818 108.651C63.5363 108.651 45.5 91.1422 45.5 69.5757H44.5C44.5 91.7234 63.0134 109.651 85.818 109.651V108.651ZM108.372 101.97C101.936 106.188 94.1749 108.651 85.818 108.651V109.651C94.3737 109.651 102.324 107.129 108.92 102.807L108.372 101.97ZM122.461 106.015L108.79 101.91L108.502 102.867L122.173 106.973L122.461 106.015ZM123.329 105.131C123.501 105.668 123.001 106.178 122.461 106.015L122.173 106.973C123.484 107.367 124.699 106.13 124.281 104.827L123.329 105.131ZM119.113 91.9635L123.329 105.131L124.281 104.827L120.065 91.6585L119.113 91.9635Z" fill="url(#paint2_linear_3161_66607)"/>
</g>
<g filter="url(#filter2_d_3161_66607)">
<circle cx="73.0818" cy="69.0818" r="4.0818" fill="white"/>
</g>
<g filter="url(#filter3_d_3161_66607)">
<circle cx="86.2459" cy="69.0818" r="4.0818" fill="white"/>
</g>
<g filter="url(#filter4_d_3161_66607)">
<circle cx="99.4099" cy="69.0818" r="4.0818" fill="white"/>
</g>
<defs>
<filter id="filter0_d_3161_66607" x="13.7" y="51.4324" width="84.7484" height="82.8666" filterUnits="userSpaceOnUse" color-interpolation-filters="sRGB">
<feFlood flood-opacity="0" result="BackgroundImageFix"/>
<feColorMatrix in="SourceAlpha" type="matrix" values="0 0 0 0 0 0 0 0 0 0 0 0 0 0 0 0 0 0 127 0" result="hardAlpha"/>
<feOffset dy="4"/>
<feGaussianBlur stdDeviation="4.65"/>
<feComposite in2="hardAlpha" operator="out"/>
<feColorMatrix type="matrix" values="0 0 0 0 0.331099 0 0 0 0 0.317448 0 0 0 0 1 0 0 0 0.2 0"/>
<feBlend mode="normal" in2="BackgroundImageFix" result="effect1_dropShadow_3161_66607"/>
<feBlend mode="normal" in="SourceGraphic" in2="effect1_dropShadow_3161_66607" result="shape"/>
</filter>
<filter id="filter1_bd_3161_66607" x="13" y="-2" width="145.637" height="143.151" filterUnits="userSpaceOnUse" color-interpolation-filters="sRGB">
<feFlood flood-opacity="0" result="BackgroundImageFix"/>
<feGaussianBlur in="BackgroundImageFix" stdDeviation="15.75"/>
<feComposite in2="SourceAlpha" operator="in" result="effect1_backgroundBlur_3161_66607"/>
<feColorMatrix in="SourceAlpha" type="matrix" values="0 0 0 0 0 0 0 0 0 0 0 0 0 0 0 0 0 0 127 0" result="hardAlpha"/>
<feOffset dy="4"/>
<feGaussianBlur stdDeviation="5.6"/>
<feComposite in2="hardAlpha" operator="out"/>
<feColorMatrix type="matrix" values="0 0 0 0 0.331099 0 0 0 0 0.317448 0 0 0 0 1 0 0 0 0.2 0"/>
<feBlend mode="normal" in2="effect1_backgroundBlur_3161_66607" result="effect2_dropShadow_3161_66607"/>
<feBlend mode="normal" in="SourceGraphic" in2="effect2_dropShadow_3161_66607" result="shape"/>
</filter>
<filter id="filter2_d_3161_66607" x="65" y="61" width="16.1641" height="16.1641" filterUnits="userSpaceOnUse" color-interpolation-filters="sRGB">
<feFlood flood-opacity="0" result="BackgroundImageFix"/>
<feColorMatrix in="SourceAlpha" type="matrix" values="0 0 0 0 0 0 0 0 0 0 0 0 0 0 0 0 0 0 127 0" result="hardAlpha"/>
<feOffset/>
<feGaussianBlur stdDeviation="2"/>
<feComposite in2="hardAlpha" operator="out"/>
<feColorMatrix type="matrix" values="0 0 0 0 0.331099 0 0 0 0 0.317448 0 0 0 0 1 0 0 0 1 0"/>
<feBlend mode="normal" in2="BackgroundImageFix" result="effect1_dropShadow_3161_66607"/>
<feBlend mode="normal" in="SourceGraphic" in2="effect1_dropShadow_3161_66607" result="shape"/>
</filter>
<filter id="filter3_d_3161_66607" x="78.1641" y="61" width="16.1641" height="16.1641" filterUnits="userSpaceOnUse" color-interpolation-filters="sRGB">
<feFlood flood-opacity="0" result="BackgroundImageFix"/>
<feColorMatrix in="SourceAlpha" type="matrix" values="0 0 0 0 0 0 0 0 0 0 0 0 0 0 0 0 0 0 127 0" result="hardAlpha"/>
<feOffset/>
<feGaussianBlur stdDeviation="2"/>
<feComposite in2="hardAlpha" operator="out"/>
<feColorMatrix type="matrix" values="0 0 0 0 0.331099 0 0 0 0 0.317448 0 0 0 0 1 0 0 0 1 0"/>
<feBlend mode="normal" in2="BackgroundImageFix" result="effect1_dropShadow_3161_66607"/>
<feBlend mode="normal" in="SourceGraphic" in2="effect1_dropShadow_3161_66607" result="shape"/>
</filter>
<filter id="filter4_d_3161_66607" x="91.3281" y="61" width="16.1641" height="16.1641" filterUnits="userSpaceOnUse" color-interpolation-filters="sRGB">
<feFlood flood-opacity="0" result="BackgroundImageFix"/>
<feColorMatrix in="SourceAlpha" type="matrix" values="0 0 0 0 0 0 0 0 0 0 0 0 0 0 0 0 0 0 127 0" result="hardAlpha"/>
<feOffset/>
<feGaussianBlur stdDeviation="2"/>
<feComposite in2="hardAlpha" operator="out"/>
<feColorMatrix type="matrix" values="0 0 0 0 0.331099 0 0 0 0 0.317448 0 0 0 0 1 0 0 0 1 0"/>
<feBlend mode="normal" in2="BackgroundImageFix" result="effect1_dropShadow_3161_66607"/>
<feBlend mode="normal" in="SourceGraphic" in2="effect1_dropShadow_3161_66607" result="shape"/>
</filter>
<linearGradient id="paint0_linear_3161_66607" x1="78" y1="65.9995" x2="32" y2="137" gradientUnits="userSpaceOnUse">
<stop stop-color="#6360FF"/>
<stop offset="1" stop-color="#DEDEFF"/>
</linearGradient>
<linearGradient id="paint1_linear_3161_66607" x1="55.6709" y1="37" x2="130.671" y2="106.5" gradientUnits="userSpaceOnUse">
<stop stop-color="white" stop-opacity="0.06"/>
<stop offset="1" stop-color="white"/>
</linearGradient>
<linearGradient id="paint2_linear_3161_66607" x1="55.1709" y1="28" x2="130.671" y2="138" gradientUnits="userSpaceOnUse">
<stop stop-color="#E6E5FF"/>
<stop offset="1" stop-color="white"/>
</linearGradient>
</defs>
</svg>
