<svg width="24" height="24" viewBox="0 0 24 24" fill="none" xmlns="http://www.w3.org/2000/svg">
<path fill-rule="evenodd" clip-rule="evenodd" d="M5.73808 15.2723C5.58564 15.1264 5.5 14.9286 5.5 14.7224C5.5 14.5161 5.58564 14.3183 5.73808 14.1724L11.43 8.72773C11.5825 8.58192 11.7893 8.5 12.0049 8.5C12.2205 8.5 12.4273 8.58192 12.5798 8.72773L18.2717 14.1724C18.4199 14.3191 18.5018 14.5156 18.5 14.7196C18.4981 14.9235 18.4126 15.1186 18.2618 15.2628C18.1111 15.407 17.9071 15.4888 17.6939 15.4906C17.4807 15.4924 17.2753 15.414 17.122 15.2723L12.0049 10.3775L6.88785 15.2723C6.73536 15.4181 6.52858 15.5 6.31296 15.5C6.09735 15.5 5.89056 15.4181 5.73808 15.2723Z" fill="#3E3F45"/>
</svg>
