<svg width="24" height="25" viewBox="0 0 24 25" fill="none" xmlns="http://www.w3.org/2000/svg">
<path fill-rule="evenodd" clip-rule="evenodd" d="M18.2619 9.22773C18.4144 9.3736 18.5 9.5714 18.5 9.77765C18.5 9.9839 18.4144 10.1817 18.2619 10.3276L12.57 15.7723C12.4175 15.9181 12.2107 16 11.9951 16C11.7795 16 11.5727 15.9181 11.4202 15.7723L5.72826 10.3276C5.58014 10.1809 5.49818 9.98439 5.50003 9.78045C5.50188 9.57651 5.5874 9.38142 5.73816 9.23721C5.88892 9.09299 6.09287 9.01119 6.30607 9.00942C6.51927 9.00765 6.72467 9.08605 6.87803 9.22773L11.9951 14.1225L17.1122 9.22773C17.2646 9.08192 17.4714 9 17.687 9C17.9027 9 18.1094 9.08192 18.2619 9.22773Z" fill="#3E3F45"/>
</svg>
