<svg width="24" height="24" viewBox="0 0 24 24" fill="none" xmlns="http://www.w3.org/2000/svg">
<path fill-rule="evenodd" clip-rule="evenodd" d="M18.2619 8.72773C18.4144 8.8736 18.5 9.0714 18.5 9.27765C18.5 9.4839 18.4144 9.6817 18.2619 9.82756L12.57 15.2723C12.4175 15.4181 12.2107 15.5 11.9951 15.5C11.7795 15.5 11.5727 15.4181 11.4202 15.2723L5.72826 9.82756C5.58014 9.68087 5.49818 9.48439 5.50003 9.28045C5.50188 9.07651 5.5874 8.88142 5.73816 8.73721C5.88892 8.59299 6.09287 8.51119 6.30607 8.50942C6.51927 8.50765 6.72467 8.58605 6.87803 8.72773L11.9951 13.6225L17.1122 8.72773C17.2646 8.58192 17.4714 8.5 17.687 8.5C17.9027 8.5 18.1094 8.58192 18.2619 8.72773Z" fill="#3E3F45"/>
</svg>
