<svg width="25" height="24" viewBox="0 0 25 24" fill="none" xmlns="http://www.w3.org/2000/svg">
<circle cx="12.75" cy="12" r="12" fill="#5451FF"/>
<path d="M12.3663 15.9426L17.0998 11.2091C16.3035 10.8764 15.5802 10.3906 14.9711 9.77931C14.3595 9.17005 13.8735 8.44659 13.5407 7.65001L8.80723 12.3835C8.43795 12.7528 8.25298 12.9377 8.09426 13.1413C7.90699 13.3816 7.74627 13.6414 7.6149 13.9163C7.50418 14.1493 7.42162 14.3976 7.25649 14.893L6.38481 17.5061C6.34469 17.6257 6.33873 17.7542 6.36762 17.8771C6.3965 17.9999 6.45908 18.1122 6.54831 18.2015C6.63754 18.2907 6.7499 18.3533 6.87274 18.3822C6.99558 18.4111 7.12405 18.4051 7.24369 18.365L9.85684 17.4933C10.3528 17.3282 10.6005 17.2456 10.8335 17.1349C11.1095 17.0035 11.3679 16.8437 11.6085 16.6555C11.8121 16.4968 11.997 16.3118 12.3663 15.9426ZM18.4131 9.89579C18.885 9.42383 19.1502 8.78371 19.1502 8.11625C19.1502 7.4488 18.885 6.80868 18.4131 6.33672C17.9411 5.86476 17.301 5.59961 16.6335 5.59961C15.9661 5.59961 15.326 5.86476 14.854 6.33672L14.2863 6.9044L14.3106 6.97544C14.5903 7.77595 15.0481 8.50249 15.6495 9.10026C16.2652 9.71967 17.0172 10.1865 17.8454 10.4635L18.4131 9.89579Z" fill="white"/>
</svg>
