<svg width="24" height="25" viewBox="0 0 24 25" fill="none" xmlns="http://www.w3.org/2000/svg">
<path d="M12 9V13.125M19.5 12.5C19.5 13.4849 19.306 14.4602 18.9291 15.3701C18.5522 16.2801 17.9997 17.1069 17.3033 17.8033C16.6069 18.4997 15.7801 19.0522 14.8701 19.4291C13.9602 19.806 12.9849 20 12 20C11.0151 20 10.0398 19.806 9.12987 19.4291C8.21993 19.0522 7.39314 18.4997 6.6967 17.8033C6.00026 17.1069 5.44781 16.2801 5.0709 15.3701C4.69399 14.4602 4.5 13.4849 4.5 12.5C4.5 10.5109 5.29018 8.60322 6.6967 7.1967C8.10322 5.79018 10.0109 5 12 5C13.9891 5 15.8968 5.79018 17.3033 7.1967C18.7098 8.60322 19.5 10.5109 19.5 12.5ZM12 15.625H12.0067V15.6317H12V15.625Z" stroke="white" stroke-width="1.25" stroke-linecap="round" stroke-linejoin="round"/>
</svg>
