<svg width="21" height="20" viewBox="0 0 21 20" fill="none" xmlns="http://www.w3.org/2000/svg">
<circle cx="10.5" cy="10" r="10" fill="#5451FF"/>
<path d="M10.1799 13.2871L14.1245 9.34253C13.4609 9.06531 12.8582 8.66049 12.3506 8.15105C11.8409 7.64334 11.4359 7.04045 11.1586 6.37664L7.21403 10.3212C6.9063 10.6289 6.75216 10.7831 6.61989 10.9527C6.46383 11.1529 6.3299 11.3695 6.22042 11.5985C6.12816 11.7927 6.05935 11.9996 5.92175 12.4124L5.19535 14.59C5.16191 14.6897 5.15695 14.7968 5.18102 14.8992C5.20509 15.0015 5.25724 15.0952 5.3316 15.1695C5.40596 15.2439 5.49959 15.296 5.60196 15.3201C5.70433 15.3442 5.81138 15.3392 5.91109 15.3058L8.08871 14.5794C8.50204 14.4418 8.70845 14.373 8.90258 14.2807C9.13263 14.1712 9.34792 14.038 9.54845 13.8812C9.71805 13.749 9.87219 13.5948 10.1799 13.2871ZM15.2189 8.24812C15.6122 7.85482 15.8332 7.32138 15.8332 6.76517C15.8332 6.20896 15.6122 5.67553 15.2189 5.28223C14.8256 4.88892 14.2922 4.66797 13.736 4.66797C13.1797 4.66797 12.6463 4.88892 12.253 5.28223L11.7799 5.7553L11.8002 5.8145C12.0333 6.48158 12.4148 7.08704 12.916 7.58518C13.429 8.10135 14.0556 8.49038 14.7458 8.72119L15.2189 8.24812Z" fill="white"/>
</svg>
