<svg width="150" height="150" viewBox="0 0 150 150" fill="none" xmlns="http://www.w3.org/2000/svg">
<path d="M36.601 134.399L27.0504 71.9674C26.6795 68.8707 28.3748 65.7767 31.5408 64.935L104.092 47.6138C109.642 46.5038 112.238 49.8566 112.539 52.4802L118.936 111.652L40.0025 136.737C37.5364 137.333 36.7073 135.426 36.601 134.399Z" fill="url(#paint0_linear_993_25131)" stroke="url(#paint1_linear_993_25131)" stroke-width="1.85545"/>
<g filter="url(#filter0_b_993_25131)">
<path d="M66.078 44.5069C65.7649 44.6932 65.317 44.5172 65.2136 44.1678C65.098 43.7773 64.9324 43.3948 64.7145 43.0288C63.3052 40.6611 60.2433 39.8843 57.8756 41.2936C56.8503 41.9039 56.1233 42.8242 55.743 43.8637C55.5826 44.302 55.0183 44.5283 54.5993 44.3227C53.937 43.9978 53.1922 43.8154 52.4047 43.8154C49.6493 43.8154 47.4156 46.0491 47.4156 48.8044C47.4156 49.5948 47.5994 50.3422 47.9265 51.0063C48.1403 51.4402 47.891 52.0378 47.4324 52.1919C45.4565 52.8557 44.0332 54.7228 44.0332 56.9223C44.0332 59.1575 45.5032 61.0494 47.5292 61.6841C47.9896 61.8283 48.2505 62.4175 48.0471 62.8551C47.7504 63.4935 47.5847 64.2051 47.5847 64.9555C47.5847 67.7109 49.8184 69.9446 52.5738 69.9446C53.3242 69.9446 54.0359 69.7789 54.6743 69.4822C55.1118 69.2788 55.701 69.5397 55.8453 70.0001C56.4799 72.0261 58.3718 73.4961 60.6071 73.4961C62.8469 73.4961 64.742 72.0201 65.3728 69.9876C65.5152 69.5286 66.0995 69.2667 66.5367 69.4665C67.9761 70.1246 69.7041 70.0884 71.167 69.2176C73.5347 67.8082 74.3116 64.7464 72.9022 62.3787C72.7306 62.0904 72.9064 61.6785 73.2331 61.602C73.7194 61.4881 74.1967 61.2988 74.6487 61.0297C77.0164 59.6203 77.7932 56.5585 76.3839 54.1908C75.7442 53.1162 74.7642 52.3693 73.6631 52.0057C73.2177 51.8587 72.9725 51.2962 73.1672 50.8695C73.8238 49.4306 73.7871 47.704 72.9169 46.2421C71.5076 43.8744 68.4457 43.0976 66.078 44.5069Z" fill="#1811FF" fill-opacity="0.27"/>
<path d="M65.0343 44.2209C65.1049 44.4592 65.2899 44.6302 65.4988 44.7123C65.7078 44.7943 65.9598 44.7948 66.1736 44.6676C68.4526 43.311 71.3997 44.0588 72.7563 46.3377C73.5938 47.7447 73.6294 49.4064 72.9971 50.7919C72.8744 51.0609 72.8933 51.3642 73.0037 51.6172C73.1142 51.8703 73.3236 52.0905 73.6045 52.1833C74.6644 52.5332 75.6075 53.252 76.2232 54.2864C77.5798 56.5654 76.832 59.5125 74.5531 60.869C74.1177 61.1282 73.6583 61.3104 73.1904 61.4199C72.96 61.4739 72.7915 61.6435 72.7088 61.8376C72.6261 62.0317 72.6204 62.2707 72.7416 62.4743C74.0981 64.7533 73.3503 67.7004 71.0714 69.0569C69.6634 69.895 68.0004 69.9301 66.6144 69.2965C66.3387 69.1705 66.0265 69.1935 65.7678 69.3094C65.5091 69.4252 65.284 69.6428 65.1942 69.9322C64.5871 71.8887 62.7627 73.3092 60.6071 73.3092C58.4558 73.3092 56.6346 71.8945 56.0237 69.9442C55.9327 69.6539 55.7056 69.4364 55.4454 69.3213C55.1852 69.2061 54.8714 69.1844 54.5955 69.3126C53.9812 69.5981 53.2964 69.7576 52.5738 69.7576C49.9217 69.7576 47.7717 67.6076 47.7717 64.9555C47.7717 64.2329 47.9312 63.5481 48.2167 62.9339C48.3449 62.6579 48.3232 62.3442 48.2081 62.0839C48.0929 61.8237 47.8754 61.5966 47.5851 61.5057C45.6348 60.8948 44.2202 59.0735 44.2202 56.9223C44.2202 54.8055 45.5899 53.0081 47.4919 52.3691C47.7811 52.272 47.9943 52.0394 48.1042 51.776C48.214 51.5126 48.2291 51.1974 48.0943 50.9237C47.7795 50.2847 47.6026 49.5655 47.6026 48.8044C47.6026 46.1523 49.7526 44.0023 52.4047 44.0023C53.163 44.0023 53.8797 44.178 54.5169 44.4906C55.0355 44.745 55.72 44.4707 55.9186 43.928C56.2847 42.9273 56.9842 42.0418 57.9713 41.4543C60.2502 40.0977 63.1973 40.8455 64.5539 43.1244C64.7637 43.4769 64.9231 43.8452 65.0343 44.2209Z" stroke="url(#paint2_linear_993_25131)" stroke-width="0.373924"/>
</g>
<g filter="url(#filter1_b_993_25131)">
<path d="M64.6542 100.742C64.3411 100.929 63.8931 100.753 63.7898 100.403C63.6742 100.013 63.5086 99.6301 63.2907 99.2642C61.8814 96.8965 58.8195 96.1196 56.4518 97.529C55.4265 98.1393 54.6995 99.0595 54.3192 100.099C54.1588 100.537 53.5945 100.764 53.1755 100.558C52.5132 100.233 51.7683 100.051 50.9809 100.051C48.2255 100.051 45.9918 102.284 45.9918 105.04C45.9918 105.83 46.1756 106.578 46.5027 107.242C46.7165 107.676 46.4671 108.273 46.0086 108.427C44.0327 109.091 42.6094 110.958 42.6094 113.158C42.6094 115.393 44.0794 117.285 46.1054 117.919C46.5658 118.064 46.8267 118.653 46.6233 119.09C46.3266 119.729 46.1609 120.44 46.1609 121.191C46.1609 123.946 48.3946 126.18 51.15 126.18C51.9004 126.18 52.612 126.014 53.2504 125.718C53.688 125.514 54.2772 125.775 54.4214 126.235C55.056 128.261 56.948 129.731 59.1832 129.731C61.4231 129.731 63.3182 128.255 63.9489 126.223C64.0914 125.764 64.6757 125.502 65.1128 125.702C66.5523 126.36 68.2802 126.324 69.7432 125.453C72.1109 124.044 72.8877 120.982 71.4784 118.614C71.3068 118.326 71.4826 117.914 71.8092 117.837C72.2955 117.723 72.7729 117.534 73.2249 117.265C75.5925 115.856 76.3694 112.794 74.9601 110.426C74.3204 109.352 73.3404 108.605 72.2393 108.241C71.7939 108.094 71.5486 107.532 71.7434 107.105C72.4 105.666 72.3633 103.939 71.4931 102.477C70.0837 100.11 67.0218 99.3329 64.6542 100.742Z" fill="#1811FF" fill-opacity="0.42"/>
<path d="M63.6105 100.456C63.681 100.695 63.8661 100.866 64.075 100.948C64.284 101.03 64.536 101.03 64.7498 100.903C67.0287 99.5464 69.9759 100.294 71.3324 102.573C72.17 103.98 72.2055 105.642 71.5733 107.027C71.4505 107.296 71.4695 107.6 71.5799 107.853C71.6903 108.106 71.8998 108.326 72.1807 108.419C73.2406 108.769 74.1837 109.487 74.7994 110.522C76.1559 112.801 75.4082 115.748 73.1292 117.104C72.6939 117.364 72.2345 117.546 71.7666 117.655C71.5361 117.709 71.3677 117.879 71.285 118.073C71.2023 118.267 71.1965 118.506 71.3177 118.71C72.6743 120.989 71.9265 123.936 69.6476 125.292C68.2396 126.13 66.5766 126.165 65.1906 125.532C64.9149 125.406 64.6027 125.429 64.344 125.545C64.0853 125.661 63.8602 125.878 63.7704 126.168C63.1632 128.124 61.3389 129.545 59.1832 129.545C57.032 129.545 55.2107 128.13 54.5998 126.18C54.5089 125.889 54.2818 125.672 54.0216 125.557C53.7613 125.441 53.4476 125.42 53.1716 125.548C52.5574 125.833 51.8726 125.993 51.15 125.993C48.4979 125.993 46.3479 123.843 46.3479 121.191C46.3479 120.468 46.5074 119.783 46.7928 119.169C46.9211 118.893 46.8994 118.58 46.7842 118.319C46.6691 118.059 46.4515 117.832 46.1612 117.741C44.211 117.13 42.7963 115.309 42.7963 113.158C42.7963 111.041 44.1661 109.243 46.0681 108.604C46.3572 108.507 46.5705 108.275 46.6803 108.011C46.7902 107.748 46.8053 107.433 46.6704 107.159C46.3557 106.52 46.1788 105.801 46.1788 105.04C46.1788 102.388 48.3287 100.238 50.9809 100.238C51.7392 100.238 52.4559 100.413 53.0931 100.726C53.6117 100.98 54.2962 100.706 54.4947 100.163C54.8608 99.1627 55.5604 98.2772 56.5474 97.6896C58.8264 96.3331 61.7735 97.0808 63.1301 99.3598C63.3399 99.7123 63.4993 100.081 63.6105 100.456Z" stroke="url(#paint3_linear_993_25131)" stroke-width="0.373924"/>
</g>
<g filter="url(#filter2_b_993_25131)">
<circle cx="92.8992" cy="70.7693" r="9.1961" fill="#5451FF" fill-opacity="0.71"/>
</g>
<rect x="79.9434" y="105.576" width="32.2622" height="15.158" rx="7.57899" transform="rotate(-32.7135 79.9434 105.576)" fill="#5451FF"/>
<path d="M76.4693 28.5581L79.8422 29.2767L79.3919 25.8572C79.1717 24.1861 81.3703 23.3755 82.2875 24.7896L84.1647 27.683L86.264 24.9469C87.2898 23.6097 89.417 24.5908 89.0657 26.2392L88.3472 29.6122L91.7666 29.1619C93.4377 28.9416 94.2484 31.1402 92.8342 32.0575L89.9409 33.9347L92.6769 36.0339C94.0141 37.0598 93.033 39.1869 91.3846 38.8357L88.0117 38.1171L88.462 41.5366C88.6822 43.2077 86.4836 44.0183 85.5664 42.6042L83.6892 39.7108L81.5899 42.4469C80.5641 43.7841 78.4369 42.803 78.7882 41.1546L79.5067 37.7817L76.0873 38.2319C74.4162 38.4522 73.6055 36.2536 75.0197 35.3363L77.913 33.4591L75.177 31.3599C73.8398 30.334 74.8209 28.2069 76.4693 28.5581Z" fill="#E2E1FF"/>
<rect x="30.7246" y="46.1738" width="7.44775" height="2.44365" fill="#EEEEFF"/>
<rect x="118.936" y="50.5781" width="7.44775" height="2.44365" transform="rotate(-78.4615 118.936 50.5781)" fill="#DDDCFF"/>
<rect x="33.8027" y="29.5146" width="7.44775" height="2.44365" transform="rotate(-61.8791 33.8027 29.5146)" fill="#DDDCFF"/>
<rect x="63.625" y="17" width="7.44775" height="2.44365" transform="rotate(12.6508 63.625 17)" fill="#EEEEFF"/>
<circle cx="42.6102" cy="35.1551" r="3.14141" fill="#9997FF"/>
<path d="M86.6651 91.7501C86.9725 91.4958 87.2578 91.2062 87.5112 90.8772C89.3579 88.4887 88.9186 85.0547 86.5301 83.208C84.1416 81.3614 80.7076 81.8007 78.8609 84.1892C78.579 84.5538 78.3509 84.9436 78.1742 85.3475C77.8834 84.9559 77.5357 84.5964 77.1309 84.2834C74.7414 82.4369 71.3074 82.8762 69.4597 85.2648C67.612 87.6534 68.0524 91.0874 70.4409 92.934C70.8468 93.2478 71.2833 93.4937 71.7356 93.6776C71.3853 93.9518 71.0627 94.2731 70.7772 94.6423C68.9305 97.0308 69.3699 100.465 71.7583 102.311C74.1468 104.158 77.5809 103.719 79.4275 101.33C79.6837 100.999 79.8948 100.645 80.064 100.281C80.2665 100.499 80.4879 100.703 80.731 100.891C83.1195 102.737 86.5536 102.298 88.4002 99.9097C90.2469 97.5212 89.8075 94.0871 87.4191 92.2405C87.1771 92.0534 86.9238 91.8905 86.6631 91.7503L86.6651 91.7501Z" fill="white"/>
<circle cx="106.683" cy="33.5348" r="1.62077" fill="#9997FF"/>
<g filter="url(#filter3_b_993_25131)">
<path d="M38.0785 135.556L42.408 91.2056C42.6039 89.2551 44.178 85.2986 47.9877 84.5594L125.098 65.4203C129.985 64.7253 130.352 68.2074 129.542 71.7231L120.971 110.75C120.847 111.315 120.431 111.772 119.879 111.947L40.1814 137.257C39.0729 137.609 37.9655 136.713 38.0785 135.556Z" fill="url(#paint4_linear_993_25131)" fill-opacity="0.5"/>
<path d="M38.0785 135.556L42.408 91.2056C42.6039 89.2551 44.178 85.2986 47.9877 84.5594L125.098 65.4203C129.985 64.7253 130.352 68.2074 129.542 71.7231L120.971 110.75C120.847 111.315 120.431 111.772 119.879 111.947L40.1814 137.257C39.0729 137.609 37.9655 136.713 38.0785 135.556Z" stroke="url(#paint5_linear_993_25131)" stroke-width="1.5462"/>
</g>
<defs>
<filter id="filter0_b_993_25131" x="40.4541" y="37.0117" width="40.2109" height="40.0634" filterUnits="userSpaceOnUse" color-interpolation-filters="sRGB">
<feFlood flood-opacity="0" result="BackgroundImageFix"/>
<feGaussianBlur in="BackgroundImageFix" stdDeviation="1.78954"/>
<feComposite in2="SourceAlpha" operator="in" result="effect1_backgroundBlur_993_25131"/>
<feBlend mode="normal" in="SourceGraphic" in2="effect1_backgroundBlur_993_25131" result="shape"/>
</filter>
<filter id="filter1_b_993_25131" x="37.5614" y="91.7782" width="43.1487" height="43.0012" filterUnits="userSpaceOnUse" color-interpolation-filters="sRGB">
<feFlood flood-opacity="0" result="BackgroundImageFix"/>
<feGaussianBlur in="BackgroundImageFix" stdDeviation="2.52399"/>
<feComposite in2="SourceAlpha" operator="in" result="effect1_backgroundBlur_993_25131"/>
<feBlend mode="normal" in="SourceGraphic" in2="effect1_backgroundBlur_993_25131" result="shape"/>
</filter>
<filter id="filter2_b_993_25131" x="55.4549" y="33.325" width="74.889" height="74.889" filterUnits="userSpaceOnUse" color-interpolation-filters="sRGB">
<feFlood flood-opacity="0" result="BackgroundImageFix"/>
<feGaussianBlur in="BackgroundImageFix" stdDeviation="14.1241"/>
<feComposite in2="SourceAlpha" operator="in" result="effect1_backgroundBlur_993_25131"/>
<feBlend mode="normal" in="SourceGraphic" in2="effect1_backgroundBlur_993_25131" result="shape"/>
</filter>
<filter id="filter3_b_993_25131" x="35.0085" y="62.2692" width="97.9303" height="78.1275" filterUnits="userSpaceOnUse" color-interpolation-filters="sRGB">
<feFlood flood-opacity="0" result="BackgroundImageFix"/>
<feGaussianBlur in="BackgroundImageFix" stdDeviation="1.14419"/>
<feComposite in2="SourceAlpha" operator="in" result="effect1_backgroundBlur_993_25131"/>
<feBlend mode="normal" in="SourceGraphic" in2="effect1_backgroundBlur_993_25131" result="shape"/>
</filter>
<linearGradient id="paint0_linear_993_25131" x1="72.6443" y1="49.1757" x2="78.4115" y2="127.537" gradientUnits="userSpaceOnUse">
<stop stop-color="#E9E8FF"/>
<stop offset="1" stop-color="#5451FF"/>
</linearGradient>
<linearGradient id="paint1_linear_993_25131" x1="8.5018" y1="86.1794" x2="131.454" y2="44.9361" gradientUnits="userSpaceOnUse">
<stop stop-color="white"/>
<stop offset="1" stop-color="#5451FF" stop-opacity="0"/>
</linearGradient>
<linearGradient id="paint2_linear_993_25131" x1="60.5599" y1="40.5908" x2="46.263" y2="64.1874" gradientUnits="userSpaceOnUse">
<stop stop-color="white"/>
<stop offset="1" stop-color="white" stop-opacity="0.17"/>
</linearGradient>
<linearGradient id="paint3_linear_993_25131" x1="59.1361" y1="96.8262" x2="44.8392" y2="120.423" gradientUnits="userSpaceOnUse">
<stop stop-color="white"/>
<stop offset="1" stop-color="white" stop-opacity="0.17"/>
</linearGradient>
<linearGradient id="paint4_linear_993_25131" x1="90.0531" y1="75.2098" x2="-59.7666" y2="242.084" gradientUnits="userSpaceOnUse">
<stop stop-color="white"/>
<stop offset="1" stop-color="#A7A5FF" stop-opacity="0"/>
</linearGradient>
<linearGradient id="paint5_linear_993_25131" x1="84.2061" y1="67.1173" x2="138.232" y2="80.6905" gradientUnits="userSpaceOnUse">
<stop stop-color="white"/>
<stop offset="1" stop-color="#CECDFF"/>
</linearGradient>
</defs>
</svg>
