<svg width="16" height="17" viewBox="0 0 16 17" fill="none" xmlns="http://www.w3.org/2000/svg">
<g clip-path="url(#clip0_649_29624)">
<path d="M6.61317 11.4598C6.43365 10.9968 6.10584 10.6135 5.68588 10.3756C5.26592 10.1376 4.77995 10.0599 4.3112 10.1556C3.84245 10.2513 3.4201 10.5145 3.11647 10.9002C2.81284 11.2858 2.64684 11.7699 2.6469 12.2696C2.6469 12.4907 2.60347 12.7096 2.51932 12.9125C2.43516 13.1154 2.31207 13.2981 2.15766 13.4492C2.00326 13.6003 1.82083 13.7166 1.6217 13.7909C1.42256 13.8652 1.21096 13.8959 1 13.8812C1.33929 14.4978 1.86368 14.98 2.49176 15.2529C3.11984 15.5258 3.81647 15.5742 4.47351 15.3905C5.13054 15.2068 5.71123 14.8013 6.12542 14.2369C6.53961 13.6726 6.76413 12.981 6.76413 12.2696C6.76413 11.9831 6.71061 11.7096 6.61317 11.4598ZM6.61317 11.4598C7.42907 11.169 8.2094 10.7786 8.93803 10.2968M5.4775 10.2789C5.75559 9.42354 6.12918 8.60549 6.59052 7.84172M8.93735 10.2968C10.2386 9.43665 11.3524 8.29983 12.2064 6.96017L14.8662 2.78645C14.9681 2.62748 15.014 2.43645 14.9963 2.24596C14.9785 2.05547 14.898 1.87735 14.7687 1.74201C14.6393 1.60667 14.469 1.52252 14.2869 1.50391C14.1049 1.48531 13.9223 1.53341 13.7703 1.64L9.7807 4.4232C8.49988 5.31661 7.41297 6.48181 6.59052 7.84315C7.63471 8.33187 8.47019 9.20591 8.93735 10.2983" stroke="#5451FF" stroke-width="1.1" stroke-linecap="round" stroke-linejoin="round"/>
</g>
<defs>
<clipPath id="clip0_649_29624">
<rect width="16" height="16" fill="white" transform="translate(0 0.5)"/>
</clipPath>
</defs>
</svg>
