<svg width="37" height="37" viewBox="0 0 37 37" fill="none" xmlns="http://www.w3.org/2000/svg">
<g opacity="0.8">
<g filter="url(#filter0_ii_649_29706)">
<path d="M12.6229 22.0421C9.9587 22.2134 7.5409 23.2281 6.16897 26.8433C6.01292 27.2557 5.63773 27.506 5.20012 27.506C4.46236 27.506 2.18135 25.6686 1.53125 25.225C1.53191 30.6935 4.05065 35.5 10.0317 35.5C15.0692 35.5 18.5316 32.5934 18.5316 27.5186C18.5316 27.3121 18.4884 27.1149 18.4672 26.9123L12.6229 22.0421ZM31.9381 1.5C30.9314 1.5 29.9878 1.94559 29.2679 2.59238C15.6941 14.7182 14.2817 15.003 14.2817 18.5724C14.2817 19.4821 14.4975 20.3494 14.8614 21.1423L19.0993 24.6738C19.5781 24.7933 20.0715 24.875 20.5862 24.875C24.7106 24.875 27.1011 21.8555 34.6082 7.84445C35.0983 6.89152 35.5312 5.86223 35.5312 4.79043C35.5312 2.87062 33.8047 1.5 31.9381 1.5Z" fill="#6360FF"/>
</g>
<path d="M9.04839 23.3603C7.99096 24.0535 7.07342 25.1647 6.40279 26.9318L9.04839 23.3603ZM9.04839 23.3603C10.082 22.6828 11.2705 22.3905 12.5399 22.2984M9.04839 23.3603L12.5399 22.2984M12.5399 22.2984L18.2308 27.0408C18.236 27.0805 18.2417 27.1199 18.247 27.1576C18.2515 27.1889 18.2558 27.219 18.2596 27.2472C18.2725 27.3441 18.2816 27.4321 18.2816 27.5186C18.2816 29.9961 17.4384 31.9205 16.0024 33.2275C14.5635 34.5372 12.5037 35.25 10.0317 35.25C7.11792 35.25 5.06925 34.084 3.7407 32.2657C2.48624 30.5488 1.86056 28.2308 1.78834 25.719M12.5399 22.2984L1.78834 25.719M1.78834 25.719C1.84753 25.7627 1.91049 25.8094 1.9768 25.8586C2.0249 25.8943 2.07477 25.9313 2.12623 25.9694C2.44331 26.2043 2.81515 26.4776 3.19053 26.7374C3.56502 26.9966 3.94798 27.2459 4.28711 27.4313C4.45662 27.524 4.61969 27.6032 4.76837 27.6598C4.91295 27.7149 5.06281 27.756 5.20012 27.756C5.73842 27.756 6.20871 27.4444 6.40271 26.932L1.78834 25.719ZM29.4345 2.77883L29.435 2.77834C30.1191 2.16369 31.0054 1.75 31.9381 1.75C33.6987 1.75 35.2812 3.03871 35.2812 4.79043C35.2812 5.79821 34.8736 6.78159 34.3869 7.72825C30.6313 14.7374 28.1684 18.9718 26.1352 21.4555C25.121 22.6945 24.2247 23.4837 23.3418 23.9647C22.4634 24.4433 21.5833 24.625 20.5862 24.625C20.1172 24.625 19.6631 24.5535 19.2151 24.4448L15.0654 20.9869C14.7288 20.2369 14.5317 19.4227 14.5317 18.5724C14.5317 17.6982 14.6182 17.0535 14.9399 16.383C15.2654 15.7044 15.8412 14.9797 16.8607 13.9685C18.0435 12.7953 19.7913 11.2667 22.3715 9.00988C24.2501 7.36678 26.57 5.3377 29.4345 2.77883Z" stroke="url(#paint0_linear_649_29706)" stroke-width="0.5"/>
</g>
<defs>
<filter id="filter0_ii_649_29706" x="0.83125" y="0.8" width="35.7" height="35.7" filterUnits="userSpaceOnUse" color-interpolation-filters="sRGB">
<feFlood flood-opacity="0" result="BackgroundImageFix"/>
<feBlend mode="normal" in="SourceGraphic" in2="BackgroundImageFix" result="shape"/>
<feColorMatrix in="SourceAlpha" type="matrix" values="0 0 0 0 0 0 0 0 0 0 0 0 0 0 0 0 0 0 127 0" result="hardAlpha"/>
<feOffset dx="-0.7" dy="-0.7"/>
<feGaussianBlur stdDeviation="0.4"/>
<feComposite in2="hardAlpha" operator="arithmetic" k2="-1" k3="1"/>
<feColorMatrix type="matrix" values="0 0 0 0 0.866667 0 0 0 0 0.862745 0 0 0 0 1 0 0 0 0.7 0"/>
<feBlend mode="normal" in2="shape" result="effect1_innerShadow_649_29706"/>
<feColorMatrix in="SourceAlpha" type="matrix" values="0 0 0 0 0 0 0 0 0 0 0 0 0 0 0 0 0 0 127 0" result="hardAlpha"/>
<feOffset dx="1" dy="1"/>
<feGaussianBlur stdDeviation="2"/>
<feComposite in2="hardAlpha" operator="arithmetic" k2="-1" k3="1"/>
<feColorMatrix type="matrix" values="0 0 0 0 1 0 0 0 0 1 0 0 0 0 1 0 0 0 0.25 0"/>
<feBlend mode="normal" in2="effect1_innerShadow_649_29706" result="effect2_innerShadow_649_29706"/>
</filter>
<linearGradient id="paint0_linear_649_29706" x1="34.6244" y1="1.5" x2="1.53125" y2="35.5" gradientUnits="userSpaceOnUse">
<stop stop-color="white" stop-opacity="0.25"/>
<stop offset="1" stop-color="white" stop-opacity="0.5"/>
</linearGradient>
</defs>
</svg>
