<svg width="16" height="17" viewBox="0 0 16 17" fill="none" xmlns="http://www.w3.org/2000/svg">
<g clip-path="url(#clip0_649_29616)">
<path d="M4.80651 10.0552C4.80651 10.3252 5.02539 10.544 5.29539 10.544H6.08535C6.25066 10.544 6.40477 10.4605 6.495 10.322C7.21594 9.21521 8.33067 8.44972 9.50217 8.06559C10.6798 7.67945 11.8593 7.69554 12.7078 8.07454C13.8077 8.58592 14.3138 9.6016 14.2881 10.6985C14.262 11.8084 13.6863 12.9736 12.6356 13.6881L12.6347 13.6887C11.8802 14.2044 10.3593 14.7347 8.46586 14.8684C6.58593 15.0012 4.39002 14.7386 2.29134 13.7263C1.53159 13.3598 1.12216 12.5052 1.24037 11.603C1.55879 9.17264 2.27555 4.88341 3.56304 2.36072C3.78708 1.92174 4.2795 1.65588 4.85355 1.65588H5.7349C6.67835 1.65588 7.27507 2.66899 6.81761 3.49412L6.68245 3.73792C6.62376 3.84377 6.51226 3.90944 6.39123 3.90944C5.51601 3.90944 4.80651 4.61895 4.80651 5.49416V10.0552Z" stroke="#5451FF" stroke-width="0.977778" stroke-linejoin="round"/>
</g>
<defs>
<clipPath id="clip0_649_29616">
<rect width="16" height="16" fill="white" transform="translate(0 0.5)"/>
</clipPath>
</defs>
</svg>
