<svg width="36" height="37" viewBox="0 0 36 37" fill="none" xmlns="http://www.w3.org/2000/svg">
<g clip-path="url(#clip0_649_29664)">
<path d="M10.8144 21.9984C10.8144 22.6059 11.3069 23.0984 11.9144 23.0984H13.6918C14.0637 23.0984 14.4105 22.9104 14.6135 22.5987C16.2356 20.1085 18.7438 18.3861 21.3796 17.5218C24.0292 16.653 26.6832 16.6892 28.5922 17.542C31.067 18.6926 32.2058 20.9778 32.1479 23.4458C32.0894 25.9433 30.7939 28.5648 28.4299 30.1725L28.4279 30.1739C26.6758 31.3713 23.0915 32.6013 18.6521 32.8534C14.2448 33.1037 9.11456 32.3816 4.27747 29.814C3.12462 29.202 2.48953 27.8938 2.6615 26.4968C3.24962 21.7195 4.68679 12.2729 7.36646 6.0731C8.18483 4.17969 10.2157 3.1 12.5237 3.1H14.0322C15.6482 3.1 16.6703 4.83534 15.8868 6.2487L15.0353 7.78458C14.9032 8.02275 14.6523 8.17052 14.38 8.17052C12.4108 8.17052 10.8144 9.7669 10.8144 11.7361V21.9984Z" stroke="#6B6F77" stroke-width="2.2" stroke-linejoin="round"/>
</g>
<defs>
<clipPath id="clip0_649_29664">
<rect width="36" height="36" fill="white" transform="translate(0 0.5)"/>
</clipPath>
</defs>
</svg>
