<svg width="151" height="150" viewBox="0 0 151 150" fill="none" xmlns="http://www.w3.org/2000/svg">
<g filter="url(#filter0_b_993_25147)">
<path d="M51.3507 32.9679C51.0345 33.1562 50.5819 32.9783 50.4775 32.6254C50.3607 32.2309 50.1934 31.8444 49.9733 31.4747C48.5495 29.0827 45.4563 28.2979 43.0643 29.7217C42.0285 30.3383 41.294 31.2679 40.9098 32.3182C40.7478 32.761 40.1777 32.9895 39.7544 32.7819C39.0854 32.4536 38.3329 32.2693 37.5373 32.2693C34.7537 32.2693 32.4972 34.5259 32.4972 37.3095C32.4972 38.1079 32.6828 38.863 33.0133 39.5339C33.2293 39.9723 32.9774 40.576 32.5141 40.7316C30.518 41.4022 29.0801 43.2884 29.0801 45.5105C29.0801 47.7686 30.5651 49.68 32.6119 50.3211C33.077 50.4668 33.3406 51.062 33.1351 51.5041C32.8354 52.149 32.668 52.868 32.668 53.626C32.668 56.4096 34.9246 58.6662 37.7082 58.6662C38.4662 58.6662 39.1852 58.4989 39.8302 58.1991C40.2722 57.9936 40.8674 58.2572 41.0131 58.7223C41.6543 60.7691 43.5656 62.2541 45.8237 62.2541C48.0866 62.2541 50.0011 60.763 50.6383 58.7097C50.7822 58.246 51.3725 57.9814 51.8141 58.1833C53.2683 58.8481 55.014 58.8115 56.4919 57.9318C58.8838 56.508 59.6687 53.4147 58.2449 51.0228C58.0715 50.7316 58.2491 50.3154 58.5791 50.2382C59.0704 50.1231 59.5526 49.9318 60.0092 49.66C62.4012 48.2362 63.186 45.143 61.7622 42.751C61.116 41.6654 60.1259 40.9109 59.0136 40.5436C58.5636 40.395 58.3158 39.8268 58.5126 39.3957C59.1759 37.9421 59.1388 36.1978 58.2597 34.7209C56.8359 32.329 53.7427 31.5441 51.3507 32.9679Z" fill="url(#paint0_linear_993_25147)" fill-opacity="0.42"/>
<path d="M50.2963 32.679C50.3676 32.9198 50.5545 33.0925 50.7656 33.1754C50.9768 33.2583 51.2313 33.2588 51.4473 33.1302C53.7496 31.7598 56.727 32.5152 58.0974 34.8175C58.9435 36.2389 58.9795 37.9176 58.3407 39.3173C58.2167 39.589 58.2359 39.8954 58.3474 40.1511C58.459 40.4068 58.6706 40.6292 58.9543 40.7229C60.0251 41.0765 60.9778 41.8026 61.5999 42.8476C62.9704 45.1499 62.2149 48.1273 59.9126 49.4977C59.4728 49.7595 59.0087 49.9436 58.536 50.0543C58.3032 50.1088 58.133 50.2801 58.0495 50.4762C57.9659 50.6722 57.9601 50.9137 58.0826 51.1194C59.453 53.4217 58.6976 56.3991 56.3953 57.7695C54.9729 58.6162 53.2928 58.6516 51.8926 58.0115C51.6141 57.8842 51.2987 57.9075 51.0374 58.0245C50.776 58.1415 50.5486 58.3613 50.4579 58.6537C49.8445 60.6302 48.0015 62.0653 45.8237 62.0653C43.6505 62.0653 41.8105 60.6361 41.1934 58.6659C41.1015 58.3726 40.8721 58.1528 40.6092 58.0365C40.3463 57.9202 40.0294 57.8982 39.7506 58.0278C39.13 58.3162 38.4382 58.4773 37.7082 58.4773C35.0289 58.4773 32.8569 56.3053 32.8569 53.626C32.8569 52.896 33.018 52.2042 33.3064 51.5837C33.436 51.3049 33.414 50.9879 33.2977 50.725C33.1814 50.4621 32.9616 50.2327 32.6683 50.1408C30.6981 49.5237 29.269 47.6837 29.269 45.5105C29.269 43.372 30.6527 41.5562 32.5742 40.9107C32.8663 40.8125 33.0818 40.5776 33.1927 40.3115C33.3037 40.0454 33.319 39.727 33.1827 39.4504C32.8647 38.8049 32.686 38.0783 32.686 37.3095C32.686 34.6302 34.858 32.4582 37.5373 32.4582C38.3034 32.4582 39.0275 32.6356 39.6712 32.9514C40.1951 33.2084 40.8866 32.9313 41.0872 32.383C41.457 31.3721 42.1638 30.4776 43.1609 29.884C45.4632 28.5136 48.4406 29.269 49.811 31.5713C50.023 31.9274 50.184 32.2994 50.2963 32.679Z" stroke="url(#paint1_linear_993_25147)" stroke-width="0.377755"/>
</g>
<circle cx="59.9588" cy="21.5135" r="2.51347" fill="#BBB9FF"/>
<rect x="49.5879" y="116.525" width="70.1427" height="32.9556" rx="16.4778" transform="rotate(-32.7135 49.5879 116.525)" fill="url(#paint2_linear_993_25147)"/>
<g filter="url(#filter1_b_993_25147)">
<circle cx="77.7021" cy="70.5118" r="35.3258" transform="rotate(23.9306 77.7021 70.5118)" fill="#5451FF" fill-opacity="0.1"/>
<circle cx="77.7021" cy="70.5118" r="33.9632" transform="rotate(23.9306 77.7021 70.5118)" stroke="url(#paint3_linear_993_25147)" stroke-width="2.72507"/>
</g>
<circle cx="123.111" cy="70.5113" r="3.30431" fill="#BBB9FF"/>
<circle cx="40.863" cy="122.39" r="3.25951" fill="#DDDCFF"/>
<rect x="130.15" y="93.6221" width="10.9384" height="3.58897" transform="rotate(-122.208 130.15 93.6221)" fill="#EEEEFF"/>
<path d="M35.4551 94.9704V92.5971H45.3064L60.7106 85.8018L60.9681 87.6361C61.0062 88.1423 60.8431 88.5517 60.7106 88.7409L51.7186 103.496C51.0802 104.461 50.7409 104.9 50.0006 105.033C49.0429 105.204 48.2435 104.905 47.7702 104.163L43.4911 97.9696C43.3089 97.6783 42.9311 97.405 42.6645 97.3358L36.0317 95.7858C35.5725 95.6104 35.4551 95.122 35.4551 94.9704Z" fill="url(#paint4_linear_993_25147)"/>
<rect x="18.5" y="91.1494" width="10.9384" height="3.58897" transform="rotate(-61.9013 18.5 91.1494)" fill="#EEEEFF"/>
<path d="M36.3176 91.4831L59.1952 84.8612C60.2681 84.5506 61.153 85.7353 60.5508 86.676L50.5849 102.243C50.1228 102.965 49.0772 102.991 48.5801 102.292L44.0678 95.9543C43.8977 95.7153 43.6465 95.5463 43.3611 95.4786L36.375 93.8229C35.1647 93.5361 35.1228 91.829 36.3176 91.4831Z" fill="url(#paint5_linear_993_25147)"/>
<defs>
<filter id="filter0_b_993_25147" x="23.9804" y="23.912" width="43.592" height="43.4416" filterUnits="userSpaceOnUse" color-interpolation-filters="sRGB">
<feFlood flood-opacity="0" result="BackgroundImageFix"/>
<feGaussianBlur in="BackgroundImageFix" stdDeviation="2.54984"/>
<feComposite in2="SourceAlpha" operator="in" result="effect1_backgroundBlur_993_25147"/>
<feBlend mode="normal" in="SourceGraphic" in2="effect1_backgroundBlur_993_25147" result="shape"/>
</filter>
<filter id="filter1_b_993_25147" x="39.8384" y="32.648" width="75.7274" height="75.7274" filterUnits="userSpaceOnUse" color-interpolation-filters="sRGB">
<feFlood flood-opacity="0" result="BackgroundImageFix"/>
<feGaussianBlur in="BackgroundImageFix" stdDeviation="1.26437"/>
<feComposite in2="SourceAlpha" operator="in" result="effect1_backgroundBlur_993_25147"/>
<feBlend mode="normal" in="SourceGraphic" in2="effect1_backgroundBlur_993_25147" result="shape"/>
</filter>
<linearGradient id="paint0_linear_993_25147" x1="45.7761" y1="29.0117" x2="45.7761" y2="62.2541" gradientUnits="userSpaceOnUse">
<stop stop-color="#A4A1FF"/>
<stop offset="1" stop-color="#B4B2FF"/>
</linearGradient>
<linearGradient id="paint1_linear_993_25147" x1="45.7761" y1="29.0117" x2="45.7761" y2="62.2541" gradientUnits="userSpaceOnUse">
<stop stop-color="white"/>
<stop offset="1" stop-color="white" stop-opacity="0.17"/>
</linearGradient>
<linearGradient id="paint2_linear_993_25147" x1="128.727" y1="89.9007" x2="48.7481" y2="139.846" gradientUnits="userSpaceOnUse">
<stop stop-color="#6360FF"/>
<stop offset="1" stop-color="#5451FF" stop-opacity="0"/>
</linearGradient>
<linearGradient id="paint3_linear_993_25147" x1="51.8895" y1="43.3659" x2="98.7087" y2="100.338" gradientUnits="userSpaceOnUse">
<stop stop-color="#F2F2FF"/>
<stop offset="1" stop-color="white" stop-opacity="0.81"/>
</linearGradient>
<linearGradient id="paint4_linear_993_25147" x1="60.5305" y1="86.7999" x2="42.5106" y2="101.978" gradientUnits="userSpaceOnUse">
<stop stop-color="#9F9DFF"/>
<stop offset="0.378909" stop-color="#8986FF"/>
<stop offset="0.963306" stop-color="#F3F3FF"/>
</linearGradient>
<linearGradient id="paint5_linear_993_25147" x1="46.5551" y1="84.1163" x2="54.7593" y2="109.035" gradientUnits="userSpaceOnUse">
<stop stop-color="#5155FF"/>
<stop offset="1" stop-color="white"/>
</linearGradient>
</defs>
</svg>
