<svg width="36" height="36" viewBox="0 0 36 36" fill="none" xmlns="http://www.w3.org/2000/svg">
<path d="M14.8796 24.6596C14.4757 23.6178 13.7381 22.7554 12.7932 22.2201C11.8483 21.6847 10.7549 21.5097 9.7002 21.725C8.64552 21.9404 7.69521 22.5326 7.01205 23.4004C6.32889 24.2681 5.95539 25.3573 5.95551 26.4815C5.95552 26.9792 5.85781 27.4715 5.66846 27.9281C5.47911 28.3846 5.20215 28.7956 4.85474 29.1356C4.50733 29.4756 4.09687 29.7373 3.64882 29.9045C3.20076 30.0717 2.72465 30.1409 2.25 30.1077C3.01341 31.4951 4.19328 32.58 5.60646 33.194C7.01964 33.8081 8.58706 33.9169 10.0654 33.5035C11.5437 33.0902 12.8503 32.1779 13.7822 30.9081C14.7141 29.6384 15.2193 28.0824 15.2193 26.4815C15.2193 25.837 15.0989 25.2216 14.8796 24.6596ZM14.8796 24.6596C16.7154 24.0052 18.4712 23.1269 20.1106 22.0429M12.3244 22.0025C12.9501 20.078 13.7907 18.2373 14.8287 16.5189M20.109 22.0429C23.0368 20.1075 25.5428 17.5496 27.4645 14.5354L33.4489 5.14451C33.6781 4.78684 33.7816 4.357 33.7416 3.9284C33.7016 3.49981 33.5206 3.09903 33.2295 2.79452C32.9384 2.49002 32.5553 2.30067 32.1456 2.25881C31.7359 2.21695 31.3251 2.32518 30.9832 2.56501L22.0066 8.8272C19.1247 10.8374 16.6792 13.4591 14.8287 16.5221C17.1781 17.6217 19.0579 19.5883 20.109 22.0461" stroke="#6B6F77" stroke-width="2.475" stroke-linecap="round" stroke-linejoin="round"/>
</svg>
