<svg width="17" height="16" viewBox="0 0 17 16" fill="none" xmlns="http://www.w3.org/2000/svg">
<path d="M13.8332 11.3335V7.63481C13.8332 7.27881 13.8332 7.10081 13.7898 6.93481C13.7515 6.78807 13.6884 6.64896 13.6032 6.52348C13.5065 6.38148 13.3732 6.26348 13.1045 6.02948L9.9045 3.22948C9.40717 2.79414 9.15784 2.57614 8.87784 2.49348C8.63117 2.42014 8.3685 2.42014 8.12117 2.49348C7.84117 2.57614 7.59317 2.79348 7.09584 3.22814L3.89517 6.02948C3.62717 6.26414 3.49317 6.38148 3.39717 6.52281C3.3117 6.64846 3.24835 6.78781 3.20984 6.93481C3.1665 7.10014 3.1665 7.27881 3.1665 7.63481V11.3335C3.1665 11.9548 3.1665 12.2655 3.26784 12.5101C3.33477 12.672 3.43292 12.819 3.55669 12.9429C3.68046 13.0668 3.82741 13.1651 3.98917 13.2321C4.2345 13.3335 4.54517 13.3335 5.1665 13.3335C5.78784 13.3335 6.0985 13.3335 6.34384 13.2321C6.50559 13.1651 6.65255 13.0668 6.77632 12.9429C6.90009 12.819 6.99824 12.672 7.06517 12.5101C7.1665 12.2655 7.1665 11.9548 7.1665 11.3335V10.6668C7.1665 10.3132 7.30698 9.97405 7.55703 9.724C7.80708 9.47395 8.14622 9.33348 8.49984 9.33348C8.85346 9.33348 9.1926 9.47395 9.44265 9.724C9.69269 9.97405 9.83317 10.3132 9.83317 10.6668V11.3335C9.83317 11.9548 9.83317 12.2655 9.9345 12.5101C10.0014 12.672 10.0996 12.819 10.2234 12.9429C10.3471 13.0668 10.4941 13.1651 10.6558 13.2321C10.9012 13.3335 11.2118 13.3335 11.8332 13.3335C12.4545 13.3335 12.7652 13.3335 13.0105 13.2321C13.1723 13.1651 13.3192 13.0668 13.443 12.9429C13.5668 12.819 13.6649 12.672 13.7318 12.5101C13.8332 12.2655 13.8332 11.9548 13.8332 11.3335Z" stroke="#5451FF" stroke-width="1.33333" stroke-linecap="round" stroke-linejoin="round"/>
</svg>
