<svg width="24" height="24" viewBox="0 0 24 24" fill="none" xmlns="http://www.w3.org/2000/svg">
<path d="M19.6417 10.1438L12.0977 3.83177C12.0346 3.77894 11.9549 3.75 11.8726 3.75C11.7883 3.75 11.7069 3.78033 11.6431 3.83545L4.34597 10.1444C4.12627 10.3344 4 10.6105 4 10.9009V19.25C4 19.8023 4.44772 20.25 5 20.25H8.82922C9.38151 20.25 9.82922 19.8023 9.82922 19.25V15.0565C9.82922 14.5042 10.2769 14.0565 10.8292 14.0565H13.2011C13.7534 14.0565 14.2011 14.5042 14.2011 15.0565V19.25C14.2011 19.8023 14.6489 20.25 15.2011 20.25H19C19.5523 20.25 20 19.8023 20 19.25V15.3468V10.9107C20 10.6146 19.8688 10.3338 19.6417 10.1438Z" stroke="#3E3F45" stroke-width="1.7"/>
</svg>
