<svg width="150" height="150" viewBox="0 0 150 150" fill="none" xmlns="http://www.w3.org/2000/svg">
<g id="&#234;&#178;&#140;&#236;&#138;&#164;&#237;&#138;&#184;">
<g id="Group 1000010811">
<g id="Rectangle 2860473" filter="url(#filter0_d_993_24714)">
<path d="M124.279 88.2598L43.3005 75.1801L35.2757 55.7112L49.0218 39.7588L130 52.8384L124.279 88.2598Z" fill="#6360FF" fill-opacity="0.9" shape-rendering="crispEdges"/>
<path d="M124.09 87.9981L43.4629 74.9752L35.5401 55.7539L49.1114 40.0044L129.738 53.0273L124.09 87.9981Z" stroke="url(#paint0_linear_993_24714)" stroke-width="0.456363" shape-rendering="crispEdges"/>
</g>
<path id="Ellipse 114" d="M75.755 57.6367C75.7553 58.5816 68.9629 60.042 60.5834 60.0444C52.204 60.0469 45.4107 58.5904 45.4105 57.6455C45.4102 56.7006 52.203 56.625 60.5825 56.6226C68.9619 56.6201 75.7548 56.6918 75.755 57.6367Z" fill="white"/>
<path id="Ellipse 115" d="M59.8063 93.9717C59.8063 93.0268 66.5992 91.5684 74.9786 91.5684C83.358 91.5684 90.1509 93.0268 90.1509 93.9717C90.1509 94.9166 83.358 94.9902 74.9786 94.9902C66.5992 94.9902 59.8063 94.9166 59.8063 93.9717Z" fill="#7875FF"/>
<g id="Rectangle 2860472" filter="url(#filter1_bd_993_24714)">
<path d="M21.0059 56.6211H110.072L122.045 76.1007L110.072 95.5804H21.0059V56.6211Z" fill="#6360FF" fill-opacity="0.15" shape-rendering="crispEdges"/>
<path d="M21.3481 56.9634H109.881L121.643 76.1007L109.881 95.2381H21.3481V56.9634Z" stroke="url(#paint1_linear_993_24714)" stroke-width="0.684544" shape-rendering="crispEdges"/>
</g>
<path id="Rectangle 2860474" d="M21.188 56.8226L109.961 56.797L121.824 76.0852L109.972 95.3804L21.1992 95.406L21.188 56.8226Z" stroke="url(#paint2_linear_993_24714)" stroke-width="0.375875"/>
<g id="GUE" filter="url(#filter2_d_993_24714)">
<path id="Vector" d="M67.2257 70.8054V74.7521H72.5256V77.2554H67.2257V81.4276H73.2021V83.9986H64.0684V68.2344H73.2021V70.8054H67.2257Z" fill="white"/>
<path id="Vector_2" d="M51.4557 68.2578V78.0005C51.4557 79.068 51.7338 79.8874 52.2901 80.4587C52.8464 81.015 53.6283 81.2932 54.6356 81.2932C55.658 81.2932 56.4473 81.015 57.0036 80.4587C57.5599 79.8874 57.8381 79.068 57.8381 78.0005V68.2578H61.018V77.978C61.018 79.3161 60.7248 80.4512 60.1384 81.3834C59.5671 82.3005 58.7928 82.9921 57.8155 83.4582C56.8533 83.9243 55.7783 84.1573 54.5905 84.1573C53.4178 84.1573 52.3503 83.9243 51.388 83.4582C50.4408 82.9921 49.6891 82.3005 49.1328 81.3834C48.5765 80.4512 48.2983 79.3161 48.2983 77.978V68.2578H51.4557Z" fill="white"/>
<path id="Vector_3" d="M41.9929 72.9937C41.6321 72.3321 41.1359 71.8285 40.5045 71.4827C39.873 71.1369 39.1363 70.964 38.2943 70.964C37.3622 70.964 36.5352 71.1745 35.8135 71.5954C35.0919 72.0164 34.5281 72.6178 34.1221 73.3996C33.7162 74.1815 33.5132 75.0836 33.5132 76.1059C33.5132 77.1584 33.7162 78.0755 34.1221 78.8573C34.5431 79.6392 35.1219 80.2406 35.8587 80.6615C36.5954 81.0825 37.4524 81.293 38.4296 81.293C39.6324 81.293 40.6172 80.9773 41.384 80.3458C42.1508 79.6993 42.6545 78.8047 42.895 77.6621H37.4824V75.2489H46.0073V78.0003C45.7968 79.0979 45.3457 80.1128 44.6541 81.0449C43.9625 81.9771 43.0679 82.7289 41.9704 83.3002C40.8879 83.8565 39.67 84.1346 38.3169 84.1346C36.7983 84.1346 35.4226 83.7963 34.1898 83.1198C32.9719 82.4282 32.0097 81.4734 31.303 80.2556C30.6114 79.0378 30.2656 77.6545 30.2656 76.1059C30.2656 74.5573 30.6114 73.1741 31.303 71.9563C32.0097 70.7234 32.9719 69.7687 34.1898 69.0921C35.4226 68.4005 36.7908 68.0547 38.2943 68.0547C40.0685 68.0547 41.6095 68.4907 42.9176 69.3627C44.2256 70.2197 45.1277 71.43 45.6239 72.9937H41.9929Z" fill="white"/>
</g>
<g id="Group 1000010805">
<g id="Group 1000010808">
<ellipse id="Ellipse 121" cx="106.278" cy="64.6379" rx="5.15333" ry="1.21854" transform="rotate(32.949 106.278 64.6379)" fill="url(#paint3_radial_993_24714)"/>
<ellipse id="Ellipse 122" cx="106.278" cy="64.638" rx="0.743228" ry="1.62557" transform="rotate(122.949 106.278 64.638)" fill="url(#paint4_radial_993_24714)" fill-opacity="0.5"/>
</g>
</g>
<g id="Group 1000010806">
<g id="Group 1000010812">
<ellipse id="Ellipse 120" cx="105.824" cy="63.988" rx="5.48744" ry="1.43372" transform="rotate(31.0455 105.824 63.988)" fill="url(#paint5_radial_993_24714)" fill-opacity="0.75"/>
<ellipse id="Ellipse 121_2" cx="106.005" cy="63.8886" rx="2.5148" ry="0.989201" transform="rotate(31.0455 106.005 63.8886)" fill="url(#paint6_radial_993_24714)"/>
</g>
<g id="Group 1000010836">
<ellipse id="Ellipse 115_2" cx="9.16896" cy="1.16396" rx="9.16896" ry="1.16396" transform="matrix(1 -0.000186711 0.000447937 1 45.4854 55.4609)" fill="url(#paint7_radial_993_24714)" fill-opacity="0.75"/>
<ellipse id="Ellipse 117" cx="54.6549" cy="56.618" rx="2.9976" ry="4.35473" transform="rotate(89.9834 54.6549 56.618)" fill="url(#paint8_radial_993_24714)" fill-opacity="0.3"/>
<ellipse id="Ellipse 116" cx="5.15333" cy="0.786744" rx="5.15333" ry="0.786744" transform="matrix(1 -0.000186711 0.000447937 1 49.501 55.8379)" fill="url(#paint9_radial_993_24714)"/>
<ellipse id="Ellipse 122_2" cx="3.40065" cy="1.6256" rx="3.40065" ry="1.6256" transform="matrix(-4.2159e-08 1 -1 0.000261184 56.2803 53.2227)" fill="url(#paint10_radial_993_24714)" fill-opacity="0.25"/>
<ellipse id="Ellipse 118" cx="0.479863" cy="1.62557" rx="0.479863" ry="1.62557" transform="matrix(0.000447895 1 -1 0.000186668 56.2798 56.1426)" fill="url(#paint11_radial_993_24714)" fill-opacity="0.5"/>
</g>
<mask id="mask0_993_24714" style="mask-type:alpha" maskUnits="userSpaceOnUse" x="74" y="63" width="39" height="39">
<circle id="Ellipse 118_2" cx="93.1865" cy="82.755" r="17.1644" transform="rotate(-0.0165717 93.1865 82.755)" fill="white" fill-opacity="0.1" stroke="#BBB9FF" stroke-width="3.75875"/>
</mask>
<g mask="url(#mask0_993_24714)">
<g id="GUEST">
<g id="Vector_4" filter="url(#filter3_d_993_24714)">
<path d="M109.685 66.5603L109.686 69.7458L104.443 69.7473L104.447 86.2389L100.501 86.24L100.496 69.7485L95.2524 69.75L95.2515 66.5645L109.685 66.5603Z" fill="white"/>
</g>
<g id="Vector_5" filter="url(#filter4_d_993_24714)">
<path d="M85.9156 86.4413C84.5437 86.4417 83.3032 86.2071 82.1942 85.7376C81.1041 85.2681 80.2394 84.5918 79.6001 83.7086C78.9609 82.8255 78.6317 81.7826 78.6125 80.5798L82.8411 80.5785C82.8977 81.3867 83.1798 82.0256 83.6874 82.4953C84.2138 82.965 84.928 83.1997 85.8301 83.1994C86.751 83.1991 87.4745 82.9828 88.0006 82.5504C88.5267 82.0992 88.7896 81.5165 88.7894 80.8024C88.7893 80.2197 88.6106 79.7406 88.2534 79.3648C87.8962 78.989 87.4451 78.6978 86.9 78.4913C86.3737 78.2659 85.6407 78.0218 84.7009 77.7589C83.4228 77.3834 82.3797 77.0173 81.5714 76.6604C80.782 76.2848 80.0958 75.7305 79.513 74.9978C78.949 74.2462 78.6668 73.2502 78.6664 72.0098C78.6661 70.8446 78.9571 69.8296 79.5395 68.965C80.1218 68.1003 80.9392 67.4423 81.9915 66.9909C83.0438 66.5207 84.2465 66.2855 85.5997 66.2851C87.6294 66.2845 89.274 66.7821 90.5335 67.7778C91.8117 68.7547 92.5169 70.1264 92.649 71.893L88.3076 71.8942C88.2698 71.2177 87.9784 70.6633 87.4332 70.2312C86.9069 69.7804 86.202 69.555 85.3187 69.5553C84.5482 69.5555 83.928 69.753 83.4583 70.1478C83.0074 70.5426 82.782 71.1159 82.7822 71.8677C82.7824 72.3939 82.9517 72.8355 83.29 73.1925C83.6472 73.5307 84.0796 73.8124 84.5871 74.0378C85.1133 74.2444 85.8464 74.4885 86.7861 74.7701C88.0642 75.1456 89.1074 75.5212 89.9156 75.8969C90.7239 76.2725 91.4194 76.8361 92.0022 77.5877C92.5851 78.3393 92.8766 79.3259 92.877 80.5475C92.8773 81.5999 92.6051 82.5773 92.0603 83.4795C91.5156 84.3818 90.717 85.1056 89.6647 85.6509C88.6124 86.1774 87.3627 86.4409 85.9156 86.4413Z" fill="white"/>
</g>
<path id="Vector_6" d="M68.0594 69.7575L68.0609 74.6909L74.6857 74.689L74.6866 77.8181L68.0618 77.82L68.0633 83.0353L75.5338 83.0332L75.5347 86.2469L64.1175 86.2502L64.1118 66.5449L75.529 66.5416L75.53 69.7554L68.0594 69.7575Z" fill="white"/>
</g>
</g>
</g>
<g id="Union" filter="url(#filter5_bd_993_24714)">
<mask id="path-24-outside-1_993_24714" maskUnits="userSpaceOnUse" x="68.2811" y="57.5774" width="53.2359" height="55.1479" fill="black">
<rect fill="white" x="68.2811" y="57.5774" width="53.2359" height="55.1479"/>
<path fill-rule="evenodd" clip-rule="evenodd" d="M111.946 81.6343C112.397 92.0969 104.281 100.944 93.8185 101.395C83.3559 101.847 74.5085 93.7307 74.0573 83.2681C73.6062 72.8054 81.7221 63.9581 92.1847 63.5069C102.647 63.0558 111.495 71.1717 111.946 81.6343ZM107.558 99.8977C103.864 102.985 99.1623 104.927 93.9804 105.151C81.4438 105.691 70.8426 95.9666 70.3021 83.43C69.7615 70.8934 79.4862 60.2922 92.0228 59.7516C104.559 59.2111 115.161 68.9358 115.701 81.4724C115.96 87.4738 113.866 93.0318 110.238 97.2548L120.303 106.487C121.067 107.189 121.119 108.378 120.417 109.143C119.715 109.908 118.527 109.959 117.762 109.257L107.558 99.8977Z"/>
</mask>
<path fill-rule="evenodd" clip-rule="evenodd" d="M111.946 81.6343C112.397 92.0969 104.281 100.944 93.8185 101.395C83.3559 101.847 74.5085 93.7307 74.0573 83.2681C73.6062 72.8054 81.7221 63.9581 92.1847 63.5069C102.647 63.0558 111.495 71.1717 111.946 81.6343ZM107.558 99.8977C103.864 102.985 99.1623 104.927 93.9804 105.151C81.4438 105.691 70.8426 95.9666 70.3021 83.43C69.7615 70.8934 79.4862 60.2922 92.0228 59.7516C104.559 59.2111 115.161 68.9358 115.701 81.4724C115.96 87.4738 113.866 93.0318 110.238 97.2548L120.303 106.487C121.067 107.189 121.119 108.378 120.417 109.143C119.715 109.908 118.527 109.959 117.762 109.257L107.558 99.8977Z" fill="white"/>
<path d="M107.558 99.8977L107.867 99.5614L107.572 99.2912L107.266 99.5475L107.558 99.8977ZM110.238 97.2548L109.892 96.9574L109.604 97.2924L109.929 97.5911L110.238 97.2548ZM120.303 106.487L120.611 106.151L120.303 106.487ZM117.762 109.257L118.07 108.921L117.762 109.257ZM93.8382 101.851C104.553 101.389 112.864 92.3291 112.402 81.6146L111.49 81.654C111.93 91.8648 104.01 100.499 93.7988 100.94L93.8382 101.851ZM73.6014 83.2877C74.0634 94.0022 83.1237 102.313 93.8382 101.851L93.7988 100.94C83.588 101.38 74.9536 93.4593 74.5133 83.2484L73.6014 83.2877ZM92.1651 63.051C81.4506 63.513 73.1394 72.5733 73.6014 83.2877L74.5133 83.2484C74.073 73.0376 81.9935 64.4032 92.2044 63.9629L92.1651 63.051ZM112.402 81.6146C111.94 70.9002 102.88 62.589 92.1651 63.051L92.2044 63.9629C102.415 63.5226 111.05 71.4431 111.49 81.654L112.402 81.6146ZM94.0001 105.607C99.2855 105.379 104.082 103.397 107.851 100.248L107.266 99.5475C103.645 102.573 99.0391 104.476 93.9608 104.695L94.0001 105.607ZM69.8461 83.4497C70.3976 96.2381 81.2117 106.158 94.0001 105.607L93.9608 104.695C81.676 105.225 71.2877 95.6952 70.758 83.4104L69.8461 83.4497ZM92.0031 59.2957C79.2147 59.8472 69.2947 70.6613 69.8461 83.4497L70.758 83.4104C70.2283 71.1255 79.7576 60.7373 92.0424 60.2076L92.0031 59.2957ZM116.157 81.4527C115.606 68.6643 104.792 58.7443 92.0031 59.2957L92.0424 60.2076C104.327 59.6779 114.715 69.2072 115.245 81.492L116.157 81.4527ZM110.584 97.5522C114.285 93.2448 116.421 87.5745 116.157 81.4527L115.245 81.492C115.499 87.3732 113.448 92.8188 109.892 96.9574L110.584 97.5522ZM109.929 97.5911L119.994 106.824L120.611 106.151L110.546 96.9185L109.929 97.5911ZM119.994 106.824C120.573 107.355 120.612 108.255 120.081 108.834L120.753 109.451C121.625 108.501 121.562 107.023 120.611 106.151L119.994 106.824ZM120.081 108.834C119.549 109.413 118.649 109.452 118.07 108.921L117.453 109.594C118.404 110.466 119.881 110.402 120.753 109.451L120.081 108.834ZM118.07 108.921L107.867 99.5614L107.25 100.234L117.453 109.594L118.07 108.921Z" fill="#D0CFFF" mask="url(#path-24-outside-1_993_24714)"/>
</g>
</g>
</g>
<defs>
<filter id="filter0_d_993_24714" x="34.135" y="38.6169" width="103.851" height="57.6292" filterUnits="userSpaceOnUse" color-interpolation-filters="sRGB">
<feFlood flood-opacity="0" result="BackgroundImageFix"/>
<feColorMatrix in="SourceAlpha" type="matrix" values="0 0 0 0 0 0 0 0 0 0 0 0 0 0 0 0 0 0 127 0" result="hardAlpha"/>
<feOffset dx="3.42272" dy="3.42272"/>
<feGaussianBlur stdDeviation="2.28181"/>
<feComposite in2="hardAlpha" operator="out"/>
<feColorMatrix type="matrix" values="0 0 0 0 0.717647 0 0 0 0 0.709804 0 0 0 0 1 0 0 0 0.5 0"/>
<feBlend mode="normal" in2="BackgroundImageFix" result="effect1_dropShadow_993_24714"/>
<feBlend mode="normal" in="SourceGraphic" in2="effect1_dropShadow_993_24714" result="shape"/>
</filter>
<filter id="filter1_bd_993_24714" x="9.7296" y="45.3448" width="123.592" height="61.5115" filterUnits="userSpaceOnUse" color-interpolation-filters="sRGB">
<feFlood flood-opacity="0" result="BackgroundImageFix"/>
<feGaussianBlur in="BackgroundImageFix" stdDeviation="5.63813"/>
<feComposite in2="SourceAlpha" operator="in" result="effect1_backgroundBlur_993_24714"/>
<feColorMatrix in="SourceAlpha" type="matrix" values="0 0 0 0 0 0 0 0 0 0 0 0 0 0 0 0 0 0 127 0" result="hardAlpha"/>
<feOffset dx="4.56363" dy="4.56363"/>
<feGaussianBlur stdDeviation="2.28181"/>
<feComposite in2="hardAlpha" operator="out"/>
<feColorMatrix type="matrix" values="0 0 0 0 0.717647 0 0 0 0 0.709804 0 0 0 0 1 0 0 0 0.5 0"/>
<feBlend mode="normal" in2="effect1_backgroundBlur_993_24714" result="effect2_dropShadow_993_24714"/>
<feBlend mode="normal" in="SourceGraphic" in2="effect2_dropShadow_993_24714" result="shape"/>
</filter>
<filter id="filter2_d_993_24714" x="27.2586" y="65.0477" width="48.9505" height="22.1175" filterUnits="userSpaceOnUse" color-interpolation-filters="sRGB">
<feFlood flood-opacity="0" result="BackgroundImageFix"/>
<feColorMatrix in="SourceAlpha" type="matrix" values="0 0 0 0 0 0 0 0 0 0 0 0 0 0 0 0 0 0 127 0" result="hardAlpha"/>
<feOffset/>
<feGaussianBlur stdDeviation="1.5035"/>
<feComposite in2="hardAlpha" operator="out"/>
<feColorMatrix type="matrix" values="0 0 0 0 0.388235 0 0 0 0 0.376471 0 0 0 0 1 0 0 0 1 0"/>
<feBlend mode="normal" in2="BackgroundImageFix" result="effect1_dropShadow_993_24714"/>
<feBlend mode="normal" in="SourceGraphic" in2="effect1_dropShadow_993_24714" result="shape"/>
</filter>
<filter id="filter3_d_993_24714" x="90.6878" y="61.9969" width="23.5618" height="28.8069" filterUnits="userSpaceOnUse" color-interpolation-filters="sRGB">
<feFlood flood-opacity="0" result="BackgroundImageFix"/>
<feColorMatrix in="SourceAlpha" type="matrix" values="0 0 0 0 0 0 0 0 0 0 0 0 0 0 0 0 0 0 127 0" result="hardAlpha"/>
<feOffset/>
<feGaussianBlur stdDeviation="2.28181"/>
<feComposite in2="hardAlpha" operator="out"/>
<feColorMatrix type="matrix" values="0 0 0 0 0.388235 0 0 0 0 0.376471 0 0 0 0 1 0 0 0 1 0"/>
<feBlend mode="normal" in2="BackgroundImageFix" result="effect1_dropShadow_993_24714"/>
<feBlend mode="normal" in="SourceGraphic" in2="effect1_dropShadow_993_24714" result="shape"/>
</filter>
<filter id="filter4_d_993_24714" x="74.0487" y="61.7215" width="23.3919" height="29.2835" filterUnits="userSpaceOnUse" color-interpolation-filters="sRGB">
<feFlood flood-opacity="0" result="BackgroundImageFix"/>
<feColorMatrix in="SourceAlpha" type="matrix" values="0 0 0 0 0 0 0 0 0 0 0 0 0 0 0 0 0 0 127 0" result="hardAlpha"/>
<feOffset/>
<feGaussianBlur stdDeviation="2.28181"/>
<feComposite in2="hardAlpha" operator="out"/>
<feColorMatrix type="matrix" values="0 0 0 0 0.388235 0 0 0 0 0.376471 0 0 0 0 1 0 0 0 1 0"/>
<feBlend mode="normal" in2="BackgroundImageFix" result="effect1_dropShadow_993_24714"/>
<feBlend mode="normal" in="SourceGraphic" in2="effect1_dropShadow_993_24714" result="shape"/>
</filter>
<filter id="filter5_bd_993_24714" x="68.3207" y="57.7699" width="63.3151" height="62.7072" filterUnits="userSpaceOnUse" color-interpolation-filters="sRGB">
<feFlood flood-opacity="0" result="BackgroundImageFix"/>
<feGaussianBlur in="BackgroundImageFix" stdDeviation="0.751751"/>
<feComposite in2="SourceAlpha" operator="in" result="effect1_backgroundBlur_993_24714"/>
<feColorMatrix in="SourceAlpha" type="matrix" values="0 0 0 0 0 0 0 0 0 0 0 0 0 0 0 0 0 0 127 0" result="hardAlpha"/>
<feOffset dx="5.70454" dy="5.70454"/>
<feGaussianBlur stdDeviation="2.28181"/>
<feComposite in2="hardAlpha" operator="out"/>
<feColorMatrix type="matrix" values="0 0 0 0 0.507971 0 0 0 0 0.494303 0 0 0 0 1 0 0 0 0.5 0"/>
<feBlend mode="normal" in2="effect1_backgroundBlur_993_24714" result="effect2_dropShadow_993_24714"/>
<feBlend mode="normal" in="SourceGraphic" in2="effect2_dropShadow_993_24714" result="shape"/>
</filter>
<linearGradient id="paint0_linear_993_24714" x1="48.7514" y1="39.7151" x2="124.279" y2="88.2598" gradientUnits="userSpaceOnUse">
<stop stop-color="#A8A6FF"/>
<stop offset="1" stop-color="#AFADFF"/>
</linearGradient>
<linearGradient id="paint1_linear_993_24714" x1="97.0949" y1="52.1996" x2="22.6622" y2="99.3442" gradientUnits="userSpaceOnUse">
<stop stop-color="white" stop-opacity="0.75"/>
<stop offset="0.475" stop-color="#DBDAFF"/>
<stop offset="1" stop-color="#B2B0FF"/>
</linearGradient>
<linearGradient id="paint2_linear_993_24714" x1="111.705" y1="60.1644" x2="74.4743" y2="102.709" gradientUnits="userSpaceOnUse">
<stop stop-color="white"/>
<stop offset="1" stop-color="white" stop-opacity="0"/>
</linearGradient>
<radialGradient id="paint3_radial_993_24714" cx="0" cy="0" r="1" gradientUnits="userSpaceOnUse" gradientTransform="translate(106.278 64.6379) scale(5.15333 1.21854)">
<stop stop-color="white"/>
<stop offset="1" stop-color="white" stop-opacity="0"/>
</radialGradient>
<radialGradient id="paint4_radial_993_24714" cx="0" cy="0" r="1" gradientUnits="userSpaceOnUse" gradientTransform="translate(106.278 64.638) scale(0.743228 1.62557)">
<stop stop-color="white"/>
<stop offset="1" stop-color="white" stop-opacity="0"/>
</radialGradient>
<radialGradient id="paint5_radial_993_24714" cx="0" cy="0" r="1" gradientUnits="userSpaceOnUse" gradientTransform="translate(105.824 63.988) scale(5.48744 1.43372)">
<stop stop-color="white"/>
<stop offset="1" stop-color="white" stop-opacity="0"/>
</radialGradient>
<radialGradient id="paint6_radial_993_24714" cx="0" cy="0" r="1" gradientUnits="userSpaceOnUse" gradientTransform="translate(106.005 63.8886) scale(2.5148 0.989201)">
<stop stop-color="white"/>
<stop offset="1" stop-color="white" stop-opacity="0"/>
</radialGradient>
<radialGradient id="paint7_radial_993_24714" cx="0" cy="0" r="1" gradientUnits="userSpaceOnUse" gradientTransform="translate(9.16896 1.16396) scale(9.16896 1.16396)">
<stop stop-color="white"/>
<stop offset="1" stop-color="white" stop-opacity="0"/>
</radialGradient>
<radialGradient id="paint8_radial_993_24714" cx="0" cy="0" r="1" gradientUnits="userSpaceOnUse" gradientTransform="translate(54.6549 56.618) scale(2.9976 4.35473)">
<stop stop-color="white"/>
<stop offset="1" stop-color="white" stop-opacity="0"/>
</radialGradient>
<radialGradient id="paint9_radial_993_24714" cx="0" cy="0" r="1" gradientUnits="userSpaceOnUse" gradientTransform="translate(5.15333 0.786744) scale(5.15333 0.786744)">
<stop stop-color="white"/>
<stop offset="1" stop-color="white" stop-opacity="0"/>
</radialGradient>
<radialGradient id="paint10_radial_993_24714" cx="0" cy="0" r="1" gradientUnits="userSpaceOnUse" gradientTransform="translate(3.40065 1.6256) scale(3.40065 1.6256)">
<stop stop-color="white"/>
<stop offset="1" stop-color="white" stop-opacity="0"/>
</radialGradient>
<radialGradient id="paint11_radial_993_24714" cx="0" cy="0" r="1" gradientUnits="userSpaceOnUse" gradientTransform="translate(0.479863 1.62557) scale(0.479863 1.62557)">
<stop stop-color="white"/>
<stop offset="1" stop-color="white" stop-opacity="0"/>
</radialGradient>
</defs>
</svg>
