<svg width="36" height="37" viewBox="0 0 36 37" fill="none" xmlns="http://www.w3.org/2000/svg">
<path d="M31.4145 25.1981C30.5923 20.4136 28.2428 16.004 24.7005 12.5972C23.925 11.8616 23.538 11.4945 22.6815 11.1552C21.825 10.8145 21.0885 10.8145 19.617 10.8145H16.383C14.9115 10.8145 14.175 10.8145 13.3185 11.1552C12.4635 11.4945 12.0735 11.8616 11.2995 12.5972C7.75716 16.004 5.40762 20.4136 4.58547 25.1981C3.85497 29.495 7.91997 32.752 12.462 32.752H23.538C28.0815 32.752 32.148 29.495 31.413 25.1981" stroke="#6B6F77" stroke-width="2.25" stroke-linecap="round" stroke-linejoin="round"/>
<path d="M20.4388 19.47C20.1148 18.3015 18.4633 17.2485 16.4818 18.0368C14.5003 18.8251 14.1868 21.3596 17.1823 21.6301C18.5383 21.7515 19.4203 21.4883 20.2288 22.2327C21.0388 22.9756 21.1888 25.0451 19.1203 25.6023C17.0548 26.1595 15.0073 25.2893 14.7853 24.052M17.7613 16.6518V17.7647M17.7613 25.7734V26.8907M10.8838 7.07386C10.5733 6.63511 10.1248 6.03841 11.0518 5.90386C12.0043 5.76346 12.9928 6.39819 13.9618 6.38649C14.8363 6.37333 15.2818 5.99454 15.7618 5.45341C16.2658 4.8845 17.0458 3.50098 17.9983 3.50098C18.9508 3.50098 19.7308 4.8845 20.2348 5.45341C20.7148 5.99454 21.1603 6.37479 22.0348 6.38503C23.0038 6.39965 23.9923 5.76346 24.9448 5.9024C25.8718 6.03841 25.4233 6.63365 25.1128 7.0724L23.7148 9.05994C23.1148 9.90819 22.8163 10.3323 22.1893 10.5736C21.5623 10.8149 20.7538 10.8135 19.1353 10.8135H16.8613C15.2413 10.8135 14.4328 10.8135 13.8073 10.5736C13.1818 10.3338 12.8818 9.90673 12.2818 9.05848L10.8838 7.07386Z" stroke="#6B6F77" stroke-width="2.25" stroke-linecap="round" stroke-linejoin="round"/>
</svg>
