<svg width="16" height="17" viewBox="0 0 16 17" fill="none" xmlns="http://www.w3.org/2000/svg">
<path d="M13.962 11.4777C13.5966 9.35125 12.5523 7.39142 10.978 5.87731C10.6333 5.55036 10.4613 5.38721 10.0807 5.23641C9.69999 5.08496 9.37265 5.08496 8.71865 5.08496H7.28132C6.62732 5.08496 6.29999 5.08496 5.91932 5.23641C5.53932 5.38721 5.36599 5.55036 5.02199 5.87731C3.44762 7.39142 2.40339 9.35125 2.03799 11.4777C1.71332 13.3874 3.51999 14.835 5.53865 14.835H10.4613C12.4807 14.835 14.288 13.3874 13.9613 11.4777" stroke="#5451FF" stroke-linecap="round" stroke-linejoin="round"/>
<path d="M9.08414 8.93133C8.94014 8.41198 8.20614 7.94398 7.32547 8.29433C6.4448 8.64468 6.30547 9.77114 7.6368 9.89139C8.23947 9.94534 8.63147 9.82833 8.9908 10.1592C9.3508 10.4894 9.41747 11.4091 8.49814 11.6568C7.58014 11.9044 6.67014 11.5177 6.57147 10.9678M7.89414 7.67878V8.17343M7.89414 11.7328V12.2294M4.83747 3.42193C4.69947 3.22693 4.50014 2.96173 4.91214 2.90193C5.33547 2.83953 5.7748 3.12163 6.20547 3.11643C6.59414 3.11058 6.79214 2.94223 7.00547 2.70173C7.22947 2.44888 7.57614 1.83398 7.99947 1.83398C8.4228 1.83398 8.76947 2.44888 8.99347 2.70173C9.2068 2.94223 9.4048 3.11123 9.79347 3.11578C10.2241 3.12228 10.6635 2.83953 11.0868 2.90128C11.4988 2.96173 11.2995 3.22628 11.1615 3.42128L10.5401 4.30463C10.2735 4.68163 10.1408 4.87013 9.86214 4.97738C9.58347 5.08463 9.22414 5.08398 8.5048 5.08398H7.49414C6.77414 5.08398 6.4148 5.08398 6.1368 4.97738C5.8588 4.87078 5.72547 4.68098 5.4588 4.30398L4.83747 3.42193Z" stroke="#5451FF" stroke-linecap="round" stroke-linejoin="round"/>
</svg>
