<svg width="60" height="25" viewBox="0 0 60 25" fill="none" xmlns="http://www.w3.org/2000/svg">
<g id="Group">
<g id="Group_2">
<path id="Vector" fill-rule="evenodd" clip-rule="evenodd" d="M47.2762 25H12.446C5.57284 25 0 19.403 0 12.5C0 5.59701 5.57284 0 12.446 0H47.3072C54.1803 0 59.7532 5.59701 59.7532 12.5C59.7532 19.403 54.1494 25 47.2762 25Z" fill="#FFEB00"/>
</g>
<g id="Group_3">
<g id="Group_4">
<g id="Group_5">
<path id="Vector_2" fill-rule="evenodd" clip-rule="evenodd" d="M13.9629 6.00146C10.2167 6.00146 7.18262 8.39574 7.18262 11.3808C7.18262 13.2776 8.45199 14.9567 10.3406 15.9206L9.69039 18.346C9.65943 18.4082 9.69039 18.5015 9.75231 18.5637C9.78327 18.5947 9.84519 18.6258 9.87615 18.6258C9.90711 18.6258 9.96903 18.5947 9.99999 18.5947L12.7555 16.7291C13.1579 16.7913 13.5604 16.8224 13.9939 16.8224C17.74 16.8224 20.7741 14.397 20.7741 11.443C20.7741 8.39574 17.74 6.00146 13.9629 6.00146Z" fill="black"/>
</g>
</g>
<path id="Vector_3" d="M26.5017 15.8585V19.3411H24.0249V6.49909H25.7587L26.0683 7.30755C26.5946 6.77894 27.3996 6.21924 28.6689 6.21924C31.0838 6.21924 32.2294 8.02272 32.2294 10.9767C32.2294 14.0551 30.4646 16.014 27.9259 16.014C27.4305 16.0451 27.059 16.014 26.5017 15.8585ZM26.5017 8.58242V14.1172C26.6256 14.1483 26.9661 14.1794 27.3067 14.1794C29.0714 14.1794 29.7525 12.9357 29.7525 10.9767C29.7525 9.2665 29.2881 8.24038 27.8949 8.24038C27.3996 8.24038 26.9042 8.36476 26.5017 8.58242Z" fill="black"/>
<path id="Vector_4" d="M37.5856 10.137H38.9789V9.82603C38.9789 8.79991 38.3906 8.33349 37.3999 8.33349C36.6259 8.33349 35.6661 8.55115 34.8611 8.95538L34.18 7.30737C35.0469 6.68548 36.4092 6.28125 37.6166 6.28125C39.9696 6.28125 41.2699 7.52503 41.2699 9.91931V15.7962H39.5361L39.2885 15.0188C38.2977 15.734 37.3689 16.0449 36.564 16.0449C34.7683 16.0449 33.7466 14.9566 33.7466 13.122C33.7466 11.1631 35.0779 10.137 37.5856 10.137ZM39.0098 13.4019V11.6917H37.8643C36.5949 11.6917 35.9448 12.1581 35.9448 13.0599C35.9448 13.7439 36.2853 14.086 37.0284 14.086C37.7095 14.1171 38.5764 13.775 39.0098 13.4019Z" fill="black"/>
<path id="Vector_5" d="M48.7622 14.8321C47.8953 17.1331 46.8736 18.8122 45.3565 19.745L43.8395 18.3458C44.7064 17.5684 45.3565 16.8222 45.8829 15.8271L42.6011 6.84082L45.0469 6.18783L47.1522 13.464L49.2266 6.15674L51.6415 6.84082L48.7622 14.8321Z" fill="black"/>
</g>
</g>
</svg>
