<svg width="105" height="28" viewBox="0 0 105 28" fill="none" xmlns="http://www.w3.org/2000/svg">
<path d="M85.0491 7.55699V12.7215H91.125V15.0759H85.0491V20.4683H91.8845V22.8227H82.1631V5.20258H91.8845V7.55699H85.0491Z" fill="#17171A"/>
<path d="M73.8001 20.4938H79.7494V22.8229H70.9141V5.22809H73.8001V20.4938Z" fill="#17171A"/>
<path d="M69.0229 10.4685C68.871 11.3631 68.5081 12.2069 67.9343 13.0002C67.3773 13.7934 66.5925 14.4432 65.5799 14.9495C64.5672 15.439 63.3352 15.6837 61.8837 15.6837H58.6939L57.428 22.8229H54.542L57.6559 5.22809H63.7318C65.5039 5.22809 66.8457 5.62471 67.7571 6.41795C68.6685 7.19432 69.1241 8.2154 69.1241 9.48122C69.1241 9.70062 69.0904 10.0297 69.0229 10.4685ZM62.2888 13.4305C63.3858 13.4305 64.2466 13.1689 64.871 12.6457C65.5124 12.1225 65.909 11.3968 66.0609 10.4685C66.1115 10.2154 66.1368 9.97066 66.1368 9.73438C66.1368 9.02552 65.9005 8.47701 65.428 8.08882C64.9723 7.68376 64.2719 7.48123 63.3267 7.48123H60.1369L59.0989 13.4305H62.2888Z" fill="#17171A"/>
<path d="M49.534 22.8229L42.7239 14.9495V22.8229H39.8379V5.22809H42.7239V13.2533L49.5593 5.22809H53.1796L45.534 14.0381L53.3061 22.8229H49.534Z" fill="#17171A"/>
<path d="M20.0742 13.9873C20.0742 12.2658 20.4708 10.7215 21.2641 9.35439C22.0742 7.98732 23.1628 6.92403 24.5299 6.16455C25.9138 5.38818 27.4244 5 29.0615 5C30.9349 5 32.5973 5.46413 34.0488 6.39239C35.5171 7.30378 36.5804 8.60334 37.2386 10.2911H33.7703C33.3146 9.36283 32.6817 8.67086 31.8716 8.21516C31.0615 7.75947 30.1248 7.53162 29.0615 7.53162C27.8969 7.53162 26.859 7.79323 25.9476 8.31643C25.0362 8.83963 24.3189 9.59068 23.7957 10.5696C23.2894 11.5485 23.0362 12.6877 23.0362 13.9873C23.0362 15.2868 23.2894 16.4261 23.7957 17.405C24.3189 18.3839 25.0362 19.1433 25.9476 19.6834C26.859 20.2066 27.8969 20.4682 29.0615 20.4682C30.1248 20.4682 31.0615 20.2404 31.8716 19.7847C32.6817 19.329 33.3146 18.637 33.7703 17.7088H37.2386C36.5804 19.3965 35.5171 20.6961 34.0488 21.6075C32.5973 22.5188 30.9349 22.9745 29.0615 22.9745C27.4075 22.9745 25.897 22.5948 24.5299 21.8353C23.1628 21.0589 22.0742 19.9872 21.2641 18.6201C20.4708 17.2531 20.0742 15.7088 20.0742 13.9873Z" fill="#17171A"/>
<path d="M18.9761 5.22809L16.4698 17.5065H14.0648L15.9129 5.22809H18.9761ZM14.3939 23.0001C13.9382 23.0001 13.5669 22.8566 13.28 22.5697C12.9931 22.2828 12.8496 21.9199 12.8496 21.4811C12.8496 20.8904 13.069 20.3841 13.5078 19.9621C13.9635 19.5233 14.4783 19.3039 15.0521 19.3039C15.5078 19.3039 15.8707 19.4474 16.1407 19.7343C16.4276 20.0212 16.5711 20.3841 16.5711 20.8229C16.5711 21.4136 16.3517 21.9284 15.9129 22.3672C15.4741 22.7891 14.9677 23.0001 14.3939 23.0001Z" fill="#5451FF"/>
<path d="M12.3037 10.4685C12.3037 11.3631 12.0927 12.2069 11.6708 13.0002C11.2489 13.7934 10.5738 14.4432 9.64549 14.9495C8.71723 15.439 7.52736 15.6837 6.0759 15.6837H2.88605V22.8229H0V5.22809H6.0759C7.4261 5.22809 8.56533 5.46437 9.49359 5.93694C10.4387 6.39264 11.1391 7.0171 11.5948 7.81034C12.0674 8.60359 12.3037 9.48966 12.3037 10.4685ZM6.0759 13.3293C7.17294 13.3293 7.99149 13.0846 8.53157 12.5951C9.07165 12.0888 9.34169 11.3799 9.34169 10.4685C9.34169 8.54452 8.2531 7.5825 6.0759 7.5825H2.88605V13.3293H6.0759Z" fill="#17171A"/>
</svg>
