<svg width="16" height="16" viewBox="0 0 16 16" fill="none" xmlns="http://www.w3.org/2000/svg">
<path d="M3.99984 14.666C3.63317 14.666 3.31939 14.5356 3.0585 14.2747C2.79761 14.0138 2.66695 13.6998 2.6665 13.3327V6.66602C2.6665 6.29935 2.79717 5.98557 3.0585 5.72468C3.31984 5.46379 3.63362 5.33313 3.99984 5.33268H4.6665V3.99935C4.6665 3.07713 4.99162 2.29113 5.64184 1.64135C6.29206 0.991572 7.07806 0.666461 7.99984 0.666016C8.92162 0.665572 9.70784 0.990683 10.3585 1.64135C11.0092 2.29202 11.3341 3.07802 11.3332 3.99935V5.33268H11.9998C12.3665 5.33268 12.6805 5.46335 12.9418 5.72468C13.2032 5.98602 13.3336 6.29979 13.3332 6.66602V13.3327C13.3332 13.6993 13.2027 14.0133 12.9418 14.2747C12.6809 14.536 12.3669 14.6665 11.9998 14.666H3.99984ZM3.99984 13.3327H11.9998V6.66602H3.99984V13.3327ZM7.99984 11.3327C8.3665 11.3327 8.6805 11.2022 8.94184 10.9413C9.20317 10.6805 9.33362 10.3665 9.33317 9.99935C9.33273 9.63224 9.20228 9.31846 8.94184 9.05802C8.68139 8.79757 8.36739 8.66691 7.99984 8.66602C7.63228 8.66513 7.3185 8.79579 7.0585 9.05802C6.7985 9.32024 6.66784 9.63402 6.6665 9.99935C6.66517 10.3647 6.79584 10.6787 7.0585 10.9413C7.32117 11.204 7.63495 11.3345 7.99984 11.3327ZM5.99984 5.33268H9.99984V3.99935C9.99984 3.44379 9.80539 2.97157 9.4165 2.58268C9.02762 2.19379 8.55539 1.99935 7.99984 1.99935C7.44428 1.99935 6.97206 2.19379 6.58317 2.58268C6.19428 2.97157 5.99984 3.44379 5.99984 3.99935V5.33268Z" fill="#5451FF"/>
</svg>
