<svg width="36" height="37" viewBox="0 0 36 37" fill="none" xmlns="http://www.w3.org/2000/svg">
<g opacity="0.8">
<g filter="url(#filter0_ii_649_29700)">
<path d="M3 21.1154C3 20.0108 3.89543 19.1154 5 19.1154H31C32.1046 19.1154 33 20.0108 33 21.1154L33 32.9048C33 33.7848 32.2583 34.5 31.345 34.5H4.655C4.43723 34.4996 4.22167 34.458 4.02064 34.3776C3.81961 34.2972 3.63704 34.1796 3.48336 34.0315C3.32968 33.8833 3.20789 33.7076 3.12496 33.5143C3.04203 33.321 2.99957 33.1139 3 32.9048L3 21.1154ZM3 4.0968C3 3.2152 3.74167 2.5 4.655 2.5H31.345C32.2583 2.5 33 3.2136 33 4.0968L33 15.8846C33 16.9892 32.1046 17.8846 31 17.8846H5C3.89543 17.8846 3 16.9892 3 15.8846L3 4.0968ZM14.6 7.3C13.7163 7.3 13 8.01635 13 8.9C13 9.78366 13.7163 10.5 14.6 10.5H21.4C22.2837 10.5 23 9.78366 23 8.9C23 8.01635 22.2837 7.3 21.4 7.3H14.6ZM14.5385 24.0385C13.6888 24.0385 13 24.7273 13 25.5769C13 26.4266 13.6888 27.1154 14.5385 27.1154H21.4615C22.3112 27.1154 23 26.4266 23 25.5769C23 24.7273 22.3112 24.0385 21.4615 24.0385H14.5385Z" fill="#6360FF"/>
</g>
<path d="M3.65686 33.8515L3.48508 34.0297L3.65685 33.8514C3.5268 33.7261 3.42431 33.5779 3.35471 33.4157C3.28512 33.2535 3.24964 33.0801 3.25 32.9053V32.9048V21.1154C3.25 20.1489 4.0335 19.3654 5 19.3654H31C31.9665 19.3654 32.75 20.1489 32.75 21.1154L32.75 32.9048C32.75 33.6382 32.129 34.25 31.345 34.25H4.65548C4.46915 34.2496 4.28495 34.214 4.11347 34.1455C3.942 34.0769 3.78693 33.9768 3.65686 33.8515ZM3.25 4.0968C3.25 3.36167 3.87119 2.75 4.655 2.75H31.345C32.129 2.75 32.75 3.36023 32.75 4.0968L32.75 15.8846C32.75 16.8511 31.9665 17.6346 31 17.6346H5C4.0335 17.6346 3.25 16.8511 3.25 15.8846V4.0968ZM14.6 7.05C13.5783 7.05 12.75 7.87827 12.75 8.9C12.75 9.92173 13.5783 10.75 14.6 10.75H21.4C22.4217 10.75 23.25 9.92173 23.25 8.9C23.25 7.87827 22.4217 7.05 21.4 7.05H14.6ZM14.5385 23.7885C13.5507 23.7885 12.75 24.5892 12.75 25.5769C12.75 26.5647 13.5507 27.3654 14.5385 27.3654H21.4615C22.4493 27.3654 23.25 26.5647 23.25 25.5769C23.25 24.5892 22.4493 23.7885 21.4615 23.7885H14.5385Z" stroke="url(#paint0_linear_649_29700)" stroke-width="0.5"/>
</g>
<defs>
<filter id="filter0_ii_649_29700" x="2.5" y="2" width="31.5" height="33.5" filterUnits="userSpaceOnUse" color-interpolation-filters="sRGB">
<feFlood flood-opacity="0" result="BackgroundImageFix"/>
<feBlend mode="normal" in="SourceGraphic" in2="BackgroundImageFix" result="shape"/>
<feColorMatrix in="SourceAlpha" type="matrix" values="0 0 0 0 0 0 0 0 0 0 0 0 0 0 0 0 0 0 127 0" result="hardAlpha"/>
<feOffset dx="-0.5" dy="-0.5"/>
<feGaussianBlur stdDeviation="0.25"/>
<feComposite in2="hardAlpha" operator="arithmetic" k2="-1" k3="1"/>
<feColorMatrix type="matrix" values="0 0 0 0 0.866667 0 0 0 0 0.862745 0 0 0 0 1 0 0 0 0.8 0"/>
<feBlend mode="normal" in2="shape" result="effect1_innerShadow_649_29700"/>
<feColorMatrix in="SourceAlpha" type="matrix" values="0 0 0 0 0 0 0 0 0 0 0 0 0 0 0 0 0 0 127 0" result="hardAlpha"/>
<feOffset dx="1" dy="1"/>
<feGaussianBlur stdDeviation="2"/>
<feComposite in2="hardAlpha" operator="arithmetic" k2="-1" k3="1"/>
<feColorMatrix type="matrix" values="0 0 0 0 1 0 0 0 0 1 0 0 0 0 1 0 0 0 0.25 0"/>
<feBlend mode="normal" in2="effect1_innerShadow_649_29700" result="effect2_innerShadow_649_29700"/>
</filter>
<linearGradient id="paint0_linear_649_29700" x1="32.1999" y1="2.5" x2="1.06386" y2="32.4899" gradientUnits="userSpaceOnUse">
<stop stop-color="white" stop-opacity="0.25"/>
<stop offset="1" stop-color="white" stop-opacity="0.5"/>
</linearGradient>
</defs>
</svg>
