<svg width="36" height="36" viewBox="0 0 36 36" fill="none" xmlns="http://www.w3.org/2000/svg">
<g clip-path="url(#clip0_649_29667)">
<g clip-path="url(#clip1_649_29667)">
<path d="M13.6406 3.5C15.5115 3.5 16 4.9707 16 6.78125V18.5V30.2188C16 32.0293 15.5115 33.5 13.6406 33.5C11.8908 33.5 10.4498 32.2168 10.2682 30.5645C9.95332 30.6465 9.62031 30.6875 9.28125 30.6875C7.14395 30.6875 5.40625 29.0059 5.40625 26.9375C5.40625 26.5039 5.48496 26.082 5.62422 25.6953C3.7957 25.0273 2.5 23.3164 2.5 21.3125C2.5 19.4434 3.63223 17.8262 5.27305 17.0762C4.74629 16.4375 4.4375 15.6289 4.4375 14.75C4.4375 12.9512 5.74531 11.4512 7.48906 11.082C7.39219 10.7598 7.34375 10.4141 7.34375 10.0625C7.34375 8.31055 8.59102 6.83398 10.2682 6.42383C10.4498 4.7832 11.8908 3.5 13.6406 3.5ZM22.3594 3.5C24.1092 3.5 25.5441 4.7832 25.7318 6.42383C27.415 6.83398 28.6562 8.30469 28.6562 10.0625C28.6562 10.4141 28.6078 10.7598 28.5109 11.082C30.2547 11.4453 31.5625 12.9512 31.5625 14.75C31.5625 15.6289 31.2537 16.4375 30.727 17.0762C32.3678 17.8262 33.5 19.4434 33.5 21.3125C33.5 23.3164 32.2043 25.0273 30.3758 25.6953C30.515 26.082 30.5938 26.5039 30.5938 26.9375C30.5938 29.0059 28.8561 30.6875 26.7188 30.6875C26.3797 30.6875 26.0467 30.6465 25.7318 30.5645C25.5502 32.2168 24.1092 33.5 22.3594 33.5C20.4885 33.5 20 32.0293 20 30.2188V19V6.78125C20 4.9707 20.4885 3.5 22.3594 3.5Z" stroke="#6B6F77" stroke-width="2.5"/>
</g>
</g>
<defs>
<clipPath id="clip0_649_29667">
<rect width="36" height="36" fill="white"/>
</clipPath>
<clipPath id="clip1_649_29667">
<rect width="36" height="36" fill="white" transform="translate(0 0.5)"/>
</clipPath>
</defs>
</svg>
