<svg width="16" height="17" viewBox="0 0 16 17" fill="none" xmlns="http://www.w3.org/2000/svg">
<g clip-path="url(#clip0_649_29619)">
<g clip-path="url(#clip1_649_29619)">
<g clip-path="url(#clip2_649_29619)">
<g clip-path="url(#clip3_649_29619)">
<path d="M6.06272 2.05566C6.89423 2.05566 7.11133 2.70931 7.11133 3.514V8.72233V13.9307C7.11133 14.7354 6.89423 15.389 6.06272 15.389C5.28503 15.389 4.64457 14.8187 4.56385 14.0843C4.42392 14.1208 4.27591 14.139 4.12522 14.139C3.1753 14.139 2.40299 13.3916 2.40299 12.4723C2.40299 12.2796 2.43798 12.0921 2.49987 11.9202C1.6872 11.6234 1.11133 10.863 1.11133 9.97233C1.11133 9.1416 1.61454 8.42285 2.34379 8.08952C2.10968 7.80566 1.97244 7.44629 1.97244 7.05566C1.97244 6.25618 2.55369 5.58952 3.32869 5.42546C3.28563 5.28223 3.26411 5.12858 3.26411 4.97233C3.26411 4.19368 3.81845 3.53744 4.56385 3.35514C4.64457 2.62598 5.28503 2.05566 6.06272 2.05566ZM9.93772 2.05566C10.7154 2.05566 11.3532 2.62598 11.4366 3.35514C12.1847 3.53744 12.7363 4.19108 12.7363 4.97233C12.7363 5.12858 12.7148 5.28223 12.6717 5.42546C13.4467 5.58691 14.028 6.25618 14.028 7.05566C14.028 7.44629 13.8908 7.80566 13.6566 8.08952C14.3859 8.42285 14.8891 9.1416 14.8891 9.97233C14.8891 10.863 14.3132 11.6234 13.5006 11.9202C13.5625 12.0921 13.5974 12.2796 13.5974 12.4723C13.5974 13.3916 12.8251 14.139 11.8752 14.139C11.7245 14.139 11.5765 14.1208 11.4366 14.0843C11.3559 14.8187 10.7154 15.389 9.93772 15.389C9.10621 15.389 8.88911 14.7354 8.88911 13.9307V8.94455V3.514C8.88911 2.70931 9.10621 2.05566 9.93772 2.05566Z" stroke="#5451FF" stroke-width="1.11111"/>
</g>
</g>
</g>
</g>
<defs>
<clipPath id="clip0_649_29619">
<rect width="16" height="16" fill="white" transform="translate(0 0.5)"/>
</clipPath>
<clipPath id="clip1_649_29619">
<rect width="16" height="16" fill="white" transform="translate(0 0.5)"/>
</clipPath>
<clipPath id="clip2_649_29619">
<rect width="16" height="16" fill="white" transform="translate(0 0.722656)"/>
</clipPath>
<clipPath id="clip3_649_29619">
<rect width="16" height="16" fill="white" transform="translate(-0.222656 0.722656)"/>
</clipPath>
</defs>
</svg>
