<svg width="37" height="37" viewBox="0 0 37 37" fill="none" xmlns="http://www.w3.org/2000/svg">
<g opacity="0.8">
<g filter="url(#filter0_ii_649_29704)">
<path d="M13.7778 1.5C12.0128 1.5 10.549 2.86133 10.1299 4.70078C10.0826 4.70078 10.0472 4.6875 10 4.6875C7.91632 4.6875 6.22222 6.59336 6.22222 8.9375C6.22222 9.25625 6.25764 9.56836 6.32257 9.86719C4.59896 10.6641 3.38889 12.5633 3.38889 14.7812C3.38889 15.618 3.57778 16.3949 3.87882 17.0988C2.46215 18.0152 1.5 19.7152 1.5 21.6875C1.5 23.8988 2.70417 25.798 4.41597 26.5949C4.36285 26.9004 4.33333 27.2125 4.33333 27.5312C4.33333 30.1742 6.23403 32.3125 8.58333 32.3125C8.82535 32.3125 9.06146 32.2793 9.29167 32.2328C9.85833 34.1254 11.4285 35.5 13.3056 35.5C15.6549 35.5 17.5556 33.3617 17.5556 30.7188V5.75C17.5556 3.40586 15.8615 1.5 13.7778 1.5ZM35.5 21.6875C35.5 19.7152 34.5378 18.0152 33.1212 17.0988C33.4281 16.3949 33.6111 15.618 33.6111 14.7812C33.6111 12.5633 32.401 10.6641 30.6774 9.86719C30.7365 9.56836 30.7778 9.25625 30.7778 8.9375C30.7778 6.59336 29.0837 4.6875 27 4.6875C26.9528 4.6875 26.9115 4.70078 26.8701 4.70078C26.451 2.86133 24.9872 1.5 23.2222 1.5C21.1385 1.5 19.4444 3.39922 19.4444 5.75V30.7188C19.4444 33.3617 21.3451 35.5 23.6944 35.5C25.5715 35.5 27.1417 34.1254 27.7083 32.2328C27.9385 32.2793 28.1747 32.3125 28.4167 32.3125C30.766 32.3125 32.6667 30.1742 32.6667 27.5312C32.6667 27.2125 32.6372 26.9004 32.584 26.5949C34.2958 25.798 35.5 23.8988 35.5 21.6875Z" fill="#6360FF"/>
</g>
<path d="M10.1299 5.05078H10.4091L10.4711 4.77853C10.8615 3.06509 12.208 1.85 13.7778 1.85C15.6305 1.85 17.2056 3.55927 17.2056 5.75V30.7188C17.2056 33.2083 15.4239 35.15 13.3056 35.15C11.6131 35.15 10.1585 33.9078 9.62696 32.1324L9.53537 31.8265L9.22239 31.8897C9.00523 31.9336 8.79389 31.9625 8.58333 31.9625C6.46494 31.9625 4.68333 30.0208 4.68333 27.5312C4.68333 27.2342 4.71083 26.9422 4.7608 26.6549L4.80673 26.3908L4.56368 26.2776C2.98671 25.5435 1.85 23.7758 1.85 21.6875C1.85 19.8286 2.75635 18.2418 4.06892 17.3927L4.31664 17.2325L4.20062 16.9612C3.9155 16.2945 3.73889 15.5643 3.73889 14.7812C3.73889 12.6871 4.88076 10.9194 6.46945 10.1849L6.72418 10.0671L6.66459 9.79287C6.60477 9.51757 6.57222 9.23037 6.57222 8.9375C6.57222 6.74873 8.14441 5.04057 9.99502 5.0375C9.9973 5.03783 10.0018 5.03848 10.0094 5.03971C10.0104 5.03987 10.0115 5.04005 10.0127 5.04024C10.0331 5.04355 10.0776 5.05078 10.1299 5.05078ZM32.8004 16.9589L32.6816 17.2313L32.9311 17.3927C34.2436 18.2418 35.15 19.8286 35.15 21.6875C35.15 23.7758 34.0133 25.5435 32.4363 26.2776L32.1933 26.3908L32.2392 26.6549C32.2892 26.9422 32.3167 27.2342 32.3167 27.5312C32.3167 30.0208 30.5351 31.9625 28.4167 31.9625C28.2061 31.9625 27.9948 31.9336 27.7776 31.8897L27.4646 31.8265L27.373 32.1324C26.8415 33.9078 25.3869 35.15 23.6944 35.15C21.5761 35.15 19.7944 33.2083 19.7944 30.7188V5.75C19.7944 3.553 21.3691 1.85 23.2222 1.85C24.792 1.85 26.1385 3.06509 26.5289 4.77853L26.5909 5.05078H26.8701C26.8989 5.05078 26.9239 5.04849 26.9427 5.04623C26.9606 5.0441 26.9779 5.04134 26.9865 5.04C26.9966 5.03844 27.0017 5.03777 27.0037 5.0375C28.8549 5.03979 30.4278 6.74823 30.4278 8.9375C30.4278 9.22656 30.3903 9.51487 30.3341 9.79936L30.2807 10.0694L30.5306 10.1849C32.1192 10.9194 33.2611 12.6871 33.2611 14.7812C33.2611 15.5658 33.0897 16.2954 32.8004 16.9589Z" stroke="url(#paint0_linear_649_29704)" stroke-width="0.7"/>
</g>
<defs>
<filter id="filter0_ii_649_29704" x="1" y="1" width="35.2" height="35.2" filterUnits="userSpaceOnUse" color-interpolation-filters="sRGB">
<feFlood flood-opacity="0" result="BackgroundImageFix"/>
<feBlend mode="normal" in="SourceGraphic" in2="BackgroundImageFix" result="shape"/>
<feColorMatrix in="SourceAlpha" type="matrix" values="0 0 0 0 0 0 0 0 0 0 0 0 0 0 0 0 0 0 127 0" result="hardAlpha"/>
<feOffset dx="-0.5" dy="-0.5"/>
<feGaussianBlur stdDeviation="0.25"/>
<feComposite in2="hardAlpha" operator="arithmetic" k2="-1" k3="1"/>
<feColorMatrix type="matrix" values="0 0 0 0 0.866667 0 0 0 0 0.862745 0 0 0 0 1 0 0 0 0.8 0"/>
<feBlend mode="normal" in2="shape" result="effect1_innerShadow_649_29704"/>
<feColorMatrix in="SourceAlpha" type="matrix" values="0 0 0 0 0 0 0 0 0 0 0 0 0 0 0 0 0 0 127 0" result="hardAlpha"/>
<feOffset dx="0.7" dy="0.7"/>
<feGaussianBlur stdDeviation="2"/>
<feComposite in2="hardAlpha" operator="arithmetic" k2="-1" k3="1"/>
<feColorMatrix type="matrix" values="0 0 0 0 1 0 0 0 0 1 0 0 0 0 1 0 0 0 0.25 0"/>
<feBlend mode="normal" in2="effect1_innerShadow_649_29704" result="effect2_innerShadow_649_29704"/>
</filter>
<linearGradient id="paint0_linear_649_29704" x1="34.5932" y1="1.5" x2="1.5" y2="35.5" gradientUnits="userSpaceOnUse">
<stop stop-color="white" stop-opacity="0.25"/>
<stop offset="1" stop-color="white" stop-opacity="0.5"/>
</linearGradient>
</defs>
</svg>
