<svg width="25" height="24" viewBox="0 0 25 24" fill="none" xmlns="http://www.w3.org/2000/svg">
<circle cx="12.5" cy="12" r="8.25" stroke="#3E3F45" stroke-width="1.5"/>
<path d="M10.1787 15.3996L10.1978 15.475H10.2756H11.0972H11.1748L11.1941 15.3998L11.9439 12.4729H13.0518L13.806 15.4L13.8253 15.475H13.9028H14.7157H14.7934L14.8126 15.3997L15.5582 12.4729H16.3938H16.4938V12.3729V11.6271V11.5271H16.3938H15.8014L16.5344 8.64969L16.5662 8.525H16.4375H15.6334H15.5543L15.5361 8.60191L14.842 11.5271H13.7453L13.0298 8.60124L13.0111 8.525H12.9326H12.0586H11.9801L11.9615 8.60124L11.2459 11.5271H10.1492L9.45516 8.60191L9.43691 8.525H9.35787H8.5625H8.43401L8.46556 8.64955L9.19442 11.5271H8.6062H8.5062V11.6271V12.3729V12.4729H8.6062H9.43736L10.1787 15.3996ZM10.376 12.4729H11.0136L10.6915 13.7975L10.376 12.4729ZM12.8078 11.5271H12.1875L12.496 10.3226L12.8078 11.5271ZM13.9776 12.4729H14.6153L14.2998 13.7975L13.9776 12.4729Z" fill="#3E3F45" stroke="#3E3F45" stroke-width="0.2"/>
</svg>
