<svg width="36" height="36" viewBox="0 0 36 36" fill="none" xmlns="http://www.w3.org/2000/svg">
<path d="M13.166 23.8611V11.6389L22.3327 23.8611V11.6389" stroke="#6B6F77" stroke-width="2.7" stroke-linecap="square" stroke-linejoin="round"/>
<path d="M4 13.7778C4 10.3556 4 8.64444 4.66611 7.33667C5.252 6.18684 6.18684 5.252 7.33667 4.66611C8.64444 4 10.3556 4 13.7778 4H21.7222C25.1444 4 26.8556 4 28.1633 4.66611C29.3132 5.252 30.248 6.18684 30.8339 7.33667C31.5 8.64444 31.5 10.3556 31.5 13.7778V21.7222C31.5 25.1444 31.5 26.8556 30.8339 28.1633C30.248 29.3132 29.3132 30.248 28.1633 30.8339C26.8556 31.5 25.1444 31.5 21.7222 31.5H13.7778C10.3556 31.5 8.64444 31.5 7.33667 30.8339C6.18684 30.248 5.252 29.3132 4.66611 28.1633C4 26.8556 4 25.1444 4 21.7222V13.7778Z" stroke="#6B6F77" stroke-width="2.7" stroke-linecap="round" stroke-linejoin="round"/>
</svg>
