<svg width="16" height="17" viewBox="0 0 16 17" fill="none" xmlns="http://www.w3.org/2000/svg">
<path d="M6 10.5V6.5L10 10.5V6.5" stroke="#5451FF" stroke-width="1.2" stroke-linecap="round" stroke-linejoin="round"/>
<path d="M2 6.76667C2 5.27333 2 4.52667 2.29067 3.956C2.54633 3.45426 2.95426 3.04633 3.456 2.79067C4.02667 2.5 4.77333 2.5 6.26667 2.5H9.73333C11.2267 2.5 11.9733 2.5 12.544 2.79067C13.0457 3.04633 13.4537 3.45426 13.7093 3.956C14 4.52667 14 5.27333 14 6.76667V10.2333C14 11.7267 14 12.4733 13.7093 13.044C13.4537 13.5457 13.0457 13.9537 12.544 14.2093C11.9733 14.5 11.2267 14.5 9.73333 14.5H6.26667C4.77333 14.5 4.02667 14.5 3.456 14.2093C2.95426 13.9537 2.54633 13.5457 2.29067 13.044C2 12.4733 2 11.7267 2 10.2333V6.76667Z" stroke="#5451FF" stroke-width="1.2" stroke-linecap="round" stroke-linejoin="round"/>
</svg>
