<svg width="36" height="37" viewBox="0 0 36 37" fill="none" xmlns="http://www.w3.org/2000/svg">
<path d="M13 23.5V13.5L23 23.5V13.5" stroke="#6B6F77" stroke-width="2.7" stroke-linecap="round" stroke-linejoin="round"/>
<path d="M4.5 14.6C4.5 11.24 4.5 9.56 5.154 8.276C5.72923 7.14708 6.64708 6.22923 7.776 5.654C9.06 5 10.74 5 14.1 5H21.9C25.26 5 26.94 5 28.224 5.654C29.3529 6.22923 30.2708 7.14708 30.846 8.276C31.5 9.56 31.5 11.24 31.5 14.6V22.4C31.5 25.76 31.5 27.44 30.846 28.724C30.2708 29.8529 29.3529 30.7708 28.224 31.346C26.94 32 25.26 32 21.9 32H14.1C10.74 32 9.06 32 7.776 31.346C6.64708 30.7708 5.72923 29.8529 5.154 28.724C4.5 27.44 4.5 25.76 4.5 22.4V14.6Z" stroke="#6B6F77" stroke-width="2.7" stroke-linecap="round" stroke-linejoin="round"/>
</svg>
