<svg width="40" height="40" viewBox="0 0 40 40" fill="none" xmlns="http://www.w3.org/2000/svg">
<path d="M37.7872 15.6297C40.6816 17.8244 40.6816 22.1756 37.7872 24.3702C36.2079 25.5677 35.3976 27.5241 35.6675 29.4876C36.1623 33.086 33.0856 36.1628 29.4871 35.668C27.5236 35.3981 25.5672 36.2084 24.3698 37.7877C22.1751 40.682 17.8239 40.682 15.6293 37.7877C14.4318 36.2084 12.4754 35.3981 10.512 35.668C6.91347 36.1628 3.83673 33.086 4.33149 29.4876C4.60146 27.5241 3.79111 25.5677 2.21184 24.3702C-0.682531 22.1756 -0.68253 17.8244 2.21184 15.6297C3.79111 14.4323 4.60146 12.4759 4.33149 10.5124C3.83673 6.91395 6.91347 3.83721 10.512 4.33197C12.4754 4.60194 14.4318 3.79159 15.6293 2.21232C17.8239 -0.682051 22.1751 -0.682052 24.3698 2.21232C25.5672 3.79159 27.5236 4.60194 29.4871 4.33197C33.0856 3.83721 36.1623 6.91396 35.6675 10.5124C35.3976 12.4759 36.2079 14.4323 37.7872 15.6297Z" fill="#EEEEFF"/>
</svg>
