<svg width="24" height="24" viewBox="0 0 24 24" fill="none" xmlns="http://www.w3.org/2000/svg">
<g clip-path="url(#clip0_891_28619)">
<path d="M18.6519 4.71389C18.8527 4.63882 19.0487 4.83478 18.9736 5.0356L13.6669 19.2317C13.6397 19.3046 13.6023 19.3395 13.5689 19.3597C13.5301 19.3831 13.4767 19.3975 13.4166 19.3936C13.3565 19.3898 13.3055 19.3686 13.27 19.3404C13.2395 19.3161 13.2069 19.2766 13.1893 19.2008L11.7932 13.2022C11.642 12.5527 11.1349 12.0456 10.4855 11.8945L4.48661 10.4983C4.41081 10.4806 4.37134 10.4481 4.34704 10.4175C4.31882 10.382 4.29768 10.331 4.2938 10.2709C4.28991 10.2108 4.30431 10.1575 4.32773 10.1186C4.34789 10.0852 4.38284 10.0478 4.45574 10.0206L18.6519 4.71389L18.3893 4.01136L18.6519 4.71389Z" stroke="#3E3F45" stroke-width="1.5" stroke-linejoin="round"/>
</g>
<defs>
<clipPath id="clip0_891_28619">
<rect width="24" height="24" fill="white"/>
</clipPath>
</defs>
</svg>
