<svg width="24" height="24" viewBox="0 0 24 24" fill="none" xmlns="http://www.w3.org/2000/svg">
<path d="M20 5L14.9686 20.7023C14.9279 20.7911 14.8626 20.8664 14.7803 20.9192C14.6981 20.9719 14.6024 21 14.5047 21C14.407 21 14.3113 20.9719 14.229 20.9192C14.1468 20.8664 14.0814 20.7911 14.0407 20.7023L11.1553 14.3422C11.0552 14.1216 10.8784 13.9448 10.6578 13.8447L4.29774 10.9593C4.2089 10.9186 4.13362 10.8532 4.08084 10.771C4.02806 10.6887 4 10.593 4 10.4953C4 10.3976 4.02806 10.3019 4.08084 10.2197C4.13362 10.1374 4.2089 10.0721 4.29774 10.0314L20 5Z" stroke="#3E3F45" stroke-width="1.5" stroke-linecap="round" stroke-linejoin="round"/>
</svg>
