<svg width="24" height="24" viewBox="0 0 24 24" fill="none" xmlns="http://www.w3.org/2000/svg">
<path d="M4.25 8.5C4.25 7.5335 5.0335 6.75 6 6.75H14C14.9665 6.75 15.75 7.5335 15.75 8.5V16.5C15.75 17.4665 14.9665 18.25 14 18.25H6C5.0335 18.25 4.25 17.4665 4.25 16.5V8.5Z" stroke="#3E3F45" stroke-width="1.5"/>
<path d="M20.25 16.5228C20.25 17.0863 19.6518 17.4485 19.1524 17.1874L16.1524 15.6184C15.905 15.489 15.75 15.233 15.75 14.9538L15.75 12.7241L15.75 10.5206C15.75 10.2598 15.8855 10.0177 16.1078 9.88135L19.1078 8.0408C19.6075 7.73421 20.25 8.09379 20.25 8.68008L20.25 12.2759L20.25 16.5228Z" stroke="#3E3F45" stroke-width="1.5"/>
</svg>
