<svg width="25" height="24" viewBox="0 0 25 24" fill="none" xmlns="http://www.w3.org/2000/svg">
<g clip-path="url(#clip0_4261_2825)">
<path d="M18.9019 4.71291C19.1027 4.63784 19.2987 4.8338 19.2236 5.03462L13.9169 19.2307C13.8897 19.3036 13.8523 19.3386 13.8189 19.3587C13.7801 19.3821 13.7267 19.3965 13.6666 19.3927C13.6065 19.3888 13.5555 19.3676 13.52 19.3394C13.4895 19.3151 13.4569 19.2757 13.4393 19.1999L12.0432 13.2012C11.892 12.5518 11.3849 12.0446 10.7355 11.8935L4.73661 10.4973C4.66081 10.4796 4.62134 10.4471 4.59704 10.4165C4.56882 10.381 4.54768 10.33 4.5438 10.2699C4.53991 10.2098 4.55431 10.1565 4.57773 10.1177C4.59789 10.0842 4.63284 10.0469 4.70574 10.0196L18.9019 4.71291L18.6393 4.01039L18.9019 4.71291Z" stroke="#3E3F45" stroke-width="1.5" stroke-linejoin="round"/>
</g>
<defs>
<clipPath id="clip0_4261_2825">
<rect width="24" height="24" fill="white" transform="translate(0.25)"/>
</clipPath>
</defs>
</svg>
