<svg width="24" height="25" viewBox="0 0 24 25" fill="none" xmlns="http://www.w3.org/2000/svg">
<g clip-path="url(#clip0_649_29636)">
<path d="M18.0289 6.03029C18.2297 5.95522 18.4256 6.15118 18.3506 6.352L13.0439 20.5481C13.0166 20.621 12.9793 20.6559 12.9458 20.6761C12.907 20.6995 12.8537 20.7139 12.7936 20.71C12.7335 20.7062 12.6825 20.685 12.647 20.6568C12.6164 20.6325 12.5839 20.593 12.5662 20.5172L11.1702 14.5186C11.019 13.8691 10.5119 13.362 9.8624 13.2109L3.86356 11.8147C3.78776 11.797 3.7483 11.7645 3.72399 11.7339C3.69578 11.6984 3.67463 11.6474 3.67075 11.5873C3.66687 11.5272 3.68127 11.4739 3.70468 11.4351C3.72485 11.4016 3.7598 11.3642 3.83269 11.337L18.0289 6.03029L17.7662 5.32777L18.0289 6.03029Z" stroke="#3E3F45" stroke-width="1.5" stroke-linejoin="round"/>
</g>
<defs>
<clipPath id="clip0_649_29636">
<rect width="24" height="24" fill="white" transform="translate(0 0.5)"/>
</clipPath>
</defs>
</svg>
