<svg width="25" height="24" viewBox="0 0 25 24" fill="none" xmlns="http://www.w3.org/2000/svg">
<path d="M4.75 8C4.75 7.0335 5.5335 6.25 6.5 6.25H14.5C15.4665 6.25 16.25 7.0335 16.25 8V16C16.25 16.9665 15.4665 17.75 14.5 17.75H6.5C5.5335 17.75 4.75 16.9665 4.75 16V8Z" stroke="#3E3F45" stroke-width="1.5"/>
<path d="M20.75 16.0228C20.75 16.5863 20.1518 16.9485 19.6524 16.6874L16.6524 15.1184C16.405 14.989 16.25 14.733 16.25 14.4538L16.25 12.2241L16.25 10.0206C16.25 9.75982 16.3855 9.51773 16.6078 9.38135L19.6078 7.5408C20.1075 7.23421 20.75 7.59379 20.75 8.18008L20.75 11.7759L20.75 16.0228Z" stroke="#3E3F45" stroke-width="1.5"/>
</svg>
