<svg width="36" height="37" viewBox="0 0 36 37" fill="none" xmlns="http://www.w3.org/2000/svg">
<path d="M21.75 8.75216L27.75 14.7517M4.5 32.0005H10.5L30 12.5019C30.7956 11.7063 31.2426 10.6272 31.2426 9.5021C31.2426 8.37697 30.7956 7.29791 30 6.50232C29.2044 5.70672 28.1252 5.25977 27 5.25977C25.8748 5.25977 24.7956 5.70672 24 6.50232L4.5 26.0009V32.0005Z" stroke="#6B6F77" stroke-width="2.25" stroke-linecap="round" stroke-linejoin="round"/>
<path d="M18 12.4995L10.5 5L4.5 10.9996L12 18.499M10.5 12.4995L8.25 14.7493M24 18.499L31.5 25.9985L25.5 31.9981L18 24.4986M24 25.9985L21.75 28.2483" stroke="#6B6F77" stroke-width="2.25" stroke-linecap="round" stroke-linejoin="round"/>
</svg>
