<svg width="24" height="24" viewBox="0 0 24 24" fill="none" xmlns="http://www.w3.org/2000/svg">
<path d="M15.8421 12.1099C17.3194 12.8072 18.579 13.8935 19.4859 15.2523C20.3928 16.6111 20.9128 18.1911 20.9901 19.8229C21.0004 19.9723 20.9807 20.1224 20.9322 20.2641C20.8838 20.4059 20.8075 20.5366 20.7078 20.6484C20.6082 20.7603 20.4872 20.8512 20.3519 20.9156C20.2167 20.9801 20.0699 21.0169 19.9203 21.0239C19.7706 21.0309 19.621 21.008 19.4804 20.9564C19.3397 20.9048 19.2108 20.8256 19.1011 20.7235C18.9915 20.6214 18.9033 20.4984 18.8418 20.3618C18.7803 20.2252 18.7468 20.0776 18.7431 19.9279C18.6613 18.1947 17.9152 16.5595 16.6597 15.3618C15.4042 14.1642 13.7357 13.496 12.0006 13.496C10.2654 13.496 8.59695 14.1642 7.34144 15.3618C6.08593 16.5595 5.33986 18.1947 5.25808 19.9279C5.23788 20.2212 5.1036 20.495 4.88401 20.6906C4.66442 20.8862 4.37698 20.9881 4.08323 20.9743C3.78948 20.9606 3.51279 20.8324 3.31239 20.6172C3.112 20.402 3.00384 20.1168 3.01108 19.8229C3.08823 18.1912 3.60797 16.6113 4.5146 15.2526C5.42124 13.8938 6.68056 12.8074 8.15758 12.1099C7.2111 11.3204 6.53078 10.2585 6.20916 9.06873C5.88754 7.87892 5.94024 6.61892 6.36008 5.46012C6.77992 4.30131 7.54653 3.29997 8.55563 2.59229C9.56472 1.88461 10.7673 1.50494 11.9998 1.50494C13.2323 1.50494 14.4349 1.88461 15.444 2.59229C16.4531 3.29997 17.2197 4.30131 17.6396 5.46012C18.0594 6.61892 18.1121 7.87892 17.7905 9.06873C17.4689 10.2585 16.7886 11.3204 15.8421 12.1099ZM15.7506 7.50037C15.7506 6.5058 15.3555 5.55198 14.6522 4.84872C13.949 4.14545 12.9951 3.75037 12.0006 3.75037C11.006 3.75037 10.0522 4.14545 9.34893 4.84872C8.64567 5.55198 8.25058 6.5058 8.25058 7.50037C8.25058 8.49493 8.64567 9.44875 9.34893 10.152C10.0522 10.8553 11.006 11.2504 12.0006 11.2504C12.9951 11.2504 13.949 10.8553 14.6522 10.152C15.3555 9.44875 15.7506 8.49493 15.7506 7.50037Z" fill="#6B6F77"/>
</svg>
