<svg width="16" height="17" viewBox="0 0 16 17" fill="none" xmlns="http://www.w3.org/2000/svg">
<path d="M9.66667 4.16741L12.3333 6.83389M2 14.5H4.66667L13.3333 5.83396C13.687 5.48036 13.8856 5.00078 13.8856 4.50072C13.8856 4.00066 13.687 3.52108 13.3333 3.16748C12.9797 2.81388 12.5001 2.61523 12 2.61523C11.4999 2.61523 11.0203 2.81388 10.6667 3.16748L2 11.8335V14.5Z" stroke="#5451FF" stroke-linecap="round" stroke-linejoin="round"/>
<path d="M8 5.8331L4.66667 2.5L2 5.16648L5.33333 8.49957M4.66667 5.8331L3.66667 6.83303M10.6667 8.49957L14 11.8327L11.3333 14.4991L8 11.1661M10.6667 11.8327L9.66667 12.8326" stroke="#5451FF" stroke-linecap="round" stroke-linejoin="round"/>
</svg>
