<svg width="37" height="36" viewBox="0 0 37 36" fill="none" xmlns="http://www.w3.org/2000/svg">
<g opacity="0.8" filter="url(#filter0_ii_649_29686)">
<path d="M34.9835 2.51851L34.9836 2.51849L34.9836 2.51834L34.9817 2.51791C33.9708 2.27052 32.5938 2.29964 30.9899 2.58447C29.3922 2.86818 27.5961 3.40071 25.7605 4.13567C22.0854 5.60714 18.2871 7.87562 15.6285 10.5355L15.6276 10.5365C14.6787 11.4785 13.8137 12.5015 13.0423 13.5939L12.9262 13.7584L12.7256 13.7407C11.0922 13.5961 9.49206 13.7206 8.14632 14.3077C6.24017 15.1476 4.99828 16.6673 4.1892 18.2403C3.37938 19.8147 3.01465 21.4214 2.85544 22.392L2.85512 22.394C2.84575 22.449 2.84928 22.5055 2.86542 22.559L2.53036 22.6602L2.86542 22.559C2.88157 22.6124 2.90987 22.6614 2.94809 22.702C2.9863 22.7426 3.03338 22.7738 3.08563 22.793C3.13774 22.8123 3.19359 22.8192 3.24879 22.8132L34.9835 2.51851ZM34.9835 2.51851L34.9852 2.52596M34.9835 2.51851L34.9852 2.52596M12.7166 27.2751C12.9534 27.5139 13.266 27.6626 13.6006 27.6954L12.7166 27.2751ZM12.7166 27.2751L10.2261 24.7883M12.7166 27.2751L10.2261 24.7883M10.2261 24.7883C9.98719 24.5515 9.83863 24.2385 9.80626 23.9035L10.2261 24.7883ZM34.9852 2.52596C35.2303 3.5953 35.1984 5.00295 34.9135 6.61598C34.6295 8.22404 34.0981 10.0134 33.3645 11.8352C31.8959 15.4823 29.6303 19.2264 26.9626 21.8831L26.9613 21.8844C26.0174 22.8346 24.9926 23.7007 23.8985 24.4728L23.7344 24.5887M34.9852 2.52596L23.7344 24.5887M23.7344 24.5887L23.7516 24.7888M23.7344 24.5887L23.7516 24.7888M23.7516 24.7888C23.8917 26.4152 23.7639 28.0094 23.1771 29.3571L23.7516 24.7888ZM9.6802 22.1032L3.24916 22.8131L23.1769 29.3576C22.3428 31.2652 20.8253 32.5081 19.2536 33.3168C17.6806 34.1263 16.0745 34.4893 15.1075 34.6445L15.1047 34.645C15.0498 34.6542 14.9934 34.6507 14.9401 34.6345C14.8868 34.6183 14.838 34.59 14.7974 34.5518C14.7568 34.5135 14.7256 34.4663 14.7062 34.4139C14.687 34.3617 14.68 34.3057 14.6859 34.2503C14.6859 34.2501 14.6859 34.2499 14.6859 34.2497L15.3915 27.8213L15.4337 27.437L15.0471 27.4331C14.5768 27.4284 14.107 27.3998 13.6395 27.3475L13.6395 27.3475L13.6348 27.3471C13.3814 27.3222 13.1446 27.2096 12.9652 27.0287L12.9639 27.0275L10.4734 24.5406L10.4725 24.5396C10.2916 24.3605 10.1791 24.1235 10.1546 23.8699L10.1547 23.8699L10.1541 23.8647C10.1016 23.3942 10.0731 22.9212 10.0686 22.4478L10.0649 22.0607L9.6802 22.1032ZM20.4927 13.9509C20.6428 14.7053 21.0131 15.3982 21.5568 15.942C21.9173 16.3033 22.3454 16.5899 22.8166 16.7855C23.288 16.9811 23.7933 17.0818 24.3036 17.0818C24.814 17.0818 25.3193 16.9811 25.7906 16.7855C26.262 16.5899 26.6902 16.3032 27.0508 15.9418C27.5943 15.398 27.9645 14.7052 28.1146 13.9509C28.2647 13.1965 28.1879 12.4145 27.8939 11.7038C27.5999 10.9931 27.1019 10.3855 26.4628 9.95804C25.8238 9.53056 25.0724 9.30237 24.3036 9.30237C23.5349 9.30237 22.7835 9.53056 22.1444 9.95804C21.5054 10.3855 21.0074 10.9931 20.7134 11.7038C20.4194 12.4145 20.3426 13.1965 20.4927 13.9509Z" fill="#6360FF" stroke="url(#paint0_linear_649_29686)" stroke-width="0.7"/>
<path d="M13.1458 29.0454C12.6433 29.5264 11.8834 29.6935 11.1185 29.8259L11.1176 29.826C9.09719 30.1703 7.30564 28.4238 7.67003 26.3728L7.67011 26.3724C7.73604 26.0039 7.86413 25.5713 8.00397 25.2023C8.07416 25.0171 8.14947 24.8422 8.22445 24.6953C8.28525 24.5761 8.3574 24.452 8.43902 24.3574C7.53783 24.4797 6.70093 24.8941 6.05698 25.5378C6.05696 25.5379 6.05695 25.5379 6.05694 25.5379M13.1458 29.0454L6.05694 25.5379M13.1458 29.0454C13.0273 29.9522 12.6118 30.7947 11.9636 31.4408L11.963 31.4414C11.5842 31.8206 10.9116 32.1425 10.0601 32.403C9.22014 32.66 8.2533 32.8437 7.33108 32.9738C6.41047 33.1037 5.54313 33.1791 4.90538 33.2221C4.63848 33.24 4.41221 33.2523 4.23959 33.2604M13.1458 29.0454L4.23959 33.2604M6.05694 25.5379C5.67808 25.9172 5.35649 26.5901 5.09624 27.4414C4.83946 28.2814 4.656 29.2481 4.52597 30.1701C4.39617 31.0904 4.3208 31.9575 4.27791 32.595C4.25997 32.8617 4.24774 33.0879 4.23959 33.2604M6.05694 25.5379L4.23959 33.2604M8.72513 24.5632C8.77443 24.5149 8.80724 24.4522 8.81891 24.3841C8.83058 24.3161 8.82051 24.246 8.79012 24.184C8.75974 24.122 8.7106 24.0711 8.64967 24.0386C8.58874 24.0062 8.51912 23.9937 8.4507 24.003L8.72513 24.5632ZM8.72513 24.5632C8.49957 24.7888 8.13719 25.749 8.01464 26.4341C7.6936 28.241 9.27171 29.7855 11.0588 29.481C11.8543 29.3434 12.5152 29.1825 12.9272 28.7696C13.1437 28.5433 13.5264 28.7305 13.4986 29.0449L8.72513 24.5632ZM8.48004 24.3133L8.47976 24.3136C8.47985 24.3135 8.47996 24.3134 8.48004 24.3133Z" fill="#6360FF" stroke="url(#paint1_linear_649_29686)" stroke-width="0.7"/>
</g>
<defs>
<filter id="filter0_ii_649_29686" x="2.1" y="1.6" width="34.1" height="34.1" filterUnits="userSpaceOnUse" color-interpolation-filters="sRGB">
<feFlood flood-opacity="0" result="BackgroundImageFix"/>
<feBlend mode="normal" in="SourceGraphic" in2="BackgroundImageFix" result="shape"/>
<feColorMatrix in="SourceAlpha" type="matrix" values="0 0 0 0 0 0 0 0 0 0 0 0 0 0 0 0 0 0 127 0" result="hardAlpha"/>
<feOffset dx="0.7" dy="0.7"/>
<feGaussianBlur stdDeviation="2"/>
<feComposite in2="hardAlpha" operator="arithmetic" k2="-1" k3="1"/>
<feColorMatrix type="matrix" values="0 0 0 0 1 0 0 0 0 1 0 0 0 0 1 0 0 0 0.25 0"/>
<feBlend mode="normal" in2="shape" result="effect1_innerShadow_649_29686"/>
<feColorMatrix in="SourceAlpha" type="matrix" values="0 0 0 0 0 0 0 0 0 0 0 0 0 0 0 0 0 0 127 0" result="hardAlpha"/>
<feOffset dx="-0.4" dy="-0.4"/>
<feGaussianBlur stdDeviation="0.25"/>
<feComposite in2="hardAlpha" operator="arithmetic" k2="-1" k3="1"/>
<feColorMatrix type="matrix" values="0 0 0 0 0.866667 0 0 0 0 0.862745 0 0 0 0 1 0 0 0 0.8 0"/>
<feBlend mode="normal" in2="effect1_innerShadow_649_29686" result="effect2_innerShadow_649_29686"/>
</filter>
<linearGradient id="paint0_linear_649_29686" x1="34.6199" y1="2" x2="2.5" y2="35" gradientUnits="userSpaceOnUse">
<stop stop-color="white" stop-opacity="0.25"/>
<stop offset="1" stop-color="white" stop-opacity="0.5"/>
</linearGradient>
<linearGradient id="paint1_linear_649_29686" x1="13.2433" y1="24" x2="3.875" y2="33.625" gradientUnits="userSpaceOnUse">
<stop stop-color="white" stop-opacity="0.25"/>
<stop offset="1" stop-color="white" stop-opacity="0.5"/>
</linearGradient>
</defs>
</svg>
