<svg width="16" height="17" viewBox="0 0 16 17" fill="none" xmlns="http://www.w3.org/2000/svg">
<path d="M13.9368 2.66259C13.9319 2.6389 13.9203 2.6171 13.9035 2.59976C13.8866 2.58242 13.8651 2.57026 13.8416 2.56472C12.2729 2.18074 8.64914 3.54892 6.6838 5.51443C6.33354 5.86212 6.01415 6.23963 5.72925 6.6427C5.12346 6.58785 4.51768 6.63404 4.00189 6.85923C2.54541 7.50016 2.12165 9.17408 2.00338 9.89267C1.99697 9.93204 1.99971 9.97237 2.01138 10.0105C2.02305 10.0487 2.04334 10.0836 2.07067 10.1126C2.09801 10.1417 2.13166 10.164 2.16901 10.1779C2.20637 10.1919 2.24642 10.197 2.28608 10.1929L4.6247 9.93598C4.6263 10.1125 4.63689 10.2889 4.65643 10.4643C4.66864 10.5856 4.7227 10.6988 4.80932 10.7845L5.71483 11.6907C5.80051 11.7775 5.91375 11.8316 6.03503 11.8437C6.20929 11.8632 6.38442 11.8738 6.55975 11.8755L6.3033 14.214C6.2993 14.2537 6.30446 14.2937 6.31837 14.331C6.33229 14.3683 6.3546 14.402 6.38357 14.4293C6.41254 14.4566 6.4474 14.4769 6.48545 14.4886C6.5235 14.5003 6.56373 14.503 6.60302 14.4967C7.32131 14.3812 8.99732 13.9571 9.63397 12.4997C9.85898 11.9829 9.90514 11.3798 9.85321 10.7764C10.2571 10.4915 10.6354 10.1719 10.9837 9.82107C12.9563 7.85787 14.3147 4.31082 13.9368 2.66259ZM9.23041 7.27785C9.05811 7.10546 8.94077 6.8858 8.89322 6.64666C8.84567 6.40751 8.87005 6.15963 8.96327 5.93435C9.05649 5.70907 9.21437 5.51652 9.41693 5.38105C9.6195 5.24558 9.85766 5.17327 10.1013 5.17327C10.3449 5.17327 10.5831 5.24558 10.7857 5.38105C10.9882 5.51652 11.1461 5.70907 11.2393 5.93435C11.3325 6.15963 11.3569 6.40751 11.3094 6.64666C11.2618 6.8858 11.1445 7.10546 10.9722 7.27785C10.8579 7.39247 10.7222 7.4834 10.5727 7.54545C10.4233 7.60749 10.2631 7.63943 10.1013 7.63943C9.93951 7.63943 9.77931 7.60749 9.62987 7.54545C9.48043 7.4834 9.34469 7.39247 9.23041 7.27785Z" stroke="#5451FF" stroke-linecap="round" stroke-linejoin="round"/>
<path d="M3.77751 11.2715C3.48994 11.3068 3.22241 11.4373 3.0174 11.6422C2.50911 12.1526 2.46094 14.0431 2.46094 14.0431C2.46094 14.0431 4.35099 13.9949 4.85956 13.4856C5.06512 13.2807 5.19571 13.0125 5.23025 12.7243" stroke="#5451FF" stroke-linecap="round" stroke-linejoin="round"/>
</svg>
