<svg width="19" height="20" viewBox="0 0 19 20" fill="none" xmlns="http://www.w3.org/2000/svg">
<path d="M12.6719 2.76121C12.492 2.8688 12.2345 2.76712 12.175 2.56541C12.1086 2.33994 12.0134 2.11904 11.8882 1.90772C11.078 0.540595 9.31799 0.0920181 7.95699 0.9058C7.3676 1.25821 6.9497 1.78957 6.73109 2.38982C6.63892 2.64291 6.31452 2.77356 6.07366 2.65486C5.69297 2.46725 5.26481 2.36191 4.81215 2.36191C3.22828 2.36191 1.9443 3.65167 1.9443 5.24267C1.9443 5.69902 2.04994 6.13058 2.23799 6.51404C2.36088 6.76462 2.21754 7.10965 1.95394 7.19861C0.818168 7.58191 0 8.65998 0 9.93001C0 11.2207 0.844988 12.3131 2.00958 12.6795C2.27426 12.7628 2.42421 13.103 2.30731 13.3557C2.13674 13.7243 2.04152 14.1353 2.04152 14.5685C2.04152 16.1595 3.3255 17.4493 4.90937 17.4493C5.3407 17.4493 5.74979 17.3536 6.11676 17.1823C6.36827 17.0649 6.70697 17.2155 6.78987 17.4814C7.15467 18.6512 8.2422 19.5 9.52709 19.5C10.8146 19.5 11.904 18.6477 12.2665 17.4741C12.3484 17.2091 12.6843 17.0579 12.9356 17.1733C13.763 17.5532 14.7563 17.5323 15.5972 17.0295C16.9582 16.2157 17.4048 14.4478 16.5947 13.0806C16.496 12.9142 16.5971 12.6763 16.7848 12.6322C17.0644 12.5664 17.3388 12.4571 17.5986 12.3017C18.9596 11.4879 19.4062 9.71995 18.596 8.35282C18.2283 7.73233 17.665 7.30106 17.032 7.09114C16.776 7.00622 16.635 6.68144 16.747 6.43505C17.1244 5.60424 17.1033 4.60727 16.6031 3.76313C15.793 2.396 14.0329 1.94742 12.6719 2.76121Z" fill="#5451FF"/>
<path d="M5.7002 9.29434L8.31875 12.0794C8.5752 12.3522 9.01058 12.3456 9.25868 12.0652L13.3002 7.49805" stroke="white" stroke-width="1.59046" stroke-linecap="round"/>
</svg>
