<svg width="24" height="25" viewBox="0 0 24 25" fill="none" xmlns="http://www.w3.org/2000/svg">
<g clip-path="url(#clip0_3921_5351)">
<path d="M9.99805 14.5L20.998 3.5" stroke="#5451FF" stroke-width="2" stroke-linecap="round" stroke-linejoin="round"/>
<path d="M21.9411 3.83964C22.0728 3.47498 21.9818 3.06705 21.7077 2.79289C21.4335 2.51874 21.0256 2.42776 20.6609 2.55945L2.66091 9.05945C2.63484 9.06886 2.60916 9.07936 2.58396 9.09091C2.31414 9.21456 2.0855 9.41307 1.9252 9.66285C1.7649 9.91264 1.67969 10.2032 1.67969 10.5C1.67969 10.7968 1.7649 11.0874 1.9252 11.3371C2.08167 11.581 2.30325 11.7759 2.56468 11.9001L9.2552 15.2454L12.6005 21.9359C12.7246 22.1973 12.9196 22.4189 13.1634 22.5754C13.4132 22.7357 13.7038 22.8209 14.0006 22.8209C14.2974 22.8209 14.5879 22.7357 14.8377 22.5754C15.0875 22.4151 15.286 22.1864 15.4096 21.9166C15.4212 21.8914 15.4317 21.8657 15.4411 21.8396L21.9411 3.83964Z" stroke="#5451FF" stroke-width="2" stroke-linecap="round" stroke-linejoin="round"/>
</g>
<defs>
<clipPath id="clip0_3921_5351">
<rect width="24" height="24" fill="white" transform="translate(0 0.5)"/>
</clipPath>
</defs>
</svg>
