<svg width="334" height="45" viewBox="0 0 334 45" fill="none" xmlns="http://www.w3.org/2000/svg">
<rect width="296" height="45" rx="10" fill="#EDEEF2"/>
<path d="M21.1084 17.2334V18.3613H17.417V22.0381C19.0576 22.0308 20.2734 21.9575 21.665 21.6719L21.7969 22.8145C20.1929 23.1074 18.8599 23.1733 16.9043 23.1807H16.04V17.2334H21.1084ZM17.1094 28.1025C19.5776 27.7437 21.5259 26.2788 21.5332 24.6455V24.1621H22.9248V24.6455C22.9248 26.2788 24.873 27.7437 27.3486 28.1025L26.7627 29.1865C24.7559 28.8423 23.0347 27.8389 22.2363 26.4473C21.4233 27.8389 19.6948 28.8423 17.6953 29.1865L17.1094 28.1025ZM22.4414 23.6348V16.3545H23.7451V19.46H25.3564V16.1201H26.6748V24.7773H25.3564V20.6025H23.7451V23.6348H22.4414ZM38.9355 16.6768V17.541C38.9429 18.4053 38.9429 19.5112 38.6572 20.9395H40.459V22.0527H28.4473V20.9395H37.2583C37.5293 19.6138 37.5586 18.6104 37.5586 17.79H29.9561V16.6768H38.9355ZM29.8535 24.3379V23.2246H38.9502V26.667H31.2598V28H39.2871V29.1133H29.8682V25.5977H37.5732V24.3379H29.8535ZM47.3877 16.3398C50.3467 16.3325 52.0679 17.1309 52.0752 18.5957C52.0679 20.0679 50.3467 20.8662 47.3877 20.8662C44.4287 20.8662 42.6929 20.0679 42.7002 18.5957C42.6929 17.1309 44.4287 16.3325 47.3877 16.3398ZM41.4111 22.7852V21.6719H53.3789V22.7852H41.4111ZM42.8467 24.8359V23.7959H51.8701V26.8721H44.2236V28.0439H52.2363V29.1133H42.8613V25.8613H50.4932V24.8359H42.8467ZM44.1504 18.5957C44.1431 19.4087 45.3003 19.8262 47.3877 19.8262C49.4897 19.8262 50.647 19.4087 50.6396 18.5957C50.647 17.8193 49.4897 17.3652 47.3877 17.3652C45.3003 17.3652 44.1431 17.8193 44.1504 18.5957ZM68.3496 16.1348V19.0498H70.2686V20.207H68.3496V23.5322H66.958V16.1348H68.3496ZM58.6377 22.6387V16.7793H60.0293V21.4814C61.8091 21.4668 63.6621 21.313 65.6836 20.9102L65.8594 22.0527C63.6475 22.4995 61.6406 22.6313 59.707 22.6387H58.6377ZM59.9414 29.0693V24.2207H68.3496V29.0693H59.9414ZM61.3037 27.9561H67.002V25.3047H61.3037V27.9561ZM77.6807 17.5264C77.6807 18.2515 77.6221 18.9619 77.4902 19.6504H80.5518V16.1055H81.9287V29.2305H80.5518V24.3086H77.0215V23.166H80.5518V20.7637H77.2266C76.4795 23.2026 74.7803 25.3193 71.6895 26.8281L70.957 25.7148C74.3335 24.0522 76.0181 21.6719 76.2817 18.6396H71.5576V17.5264H77.6807ZM95.9766 26.4619V27.6191H83.9648V26.4619H89.2529V23.7666H85.3418V17.0137H86.7334V19.2695H93.1787V17.0137H94.5557V23.7666H90.6299V26.4619H95.9766ZM86.7334 22.6387H93.1787V20.3975H86.7334V22.6387ZM100.928 19.709C100.928 21.8037 101.807 24.0376 103.564 25.1143L102.788 26.1836C101.558 25.4438 100.73 24.1328 100.276 22.6167C99.7998 24.2793 98.8916 25.7002 97.6172 26.4766L96.7529 25.4365C98.606 24.3232 99.5874 22.0015 99.5801 19.7676V17.3213H100.928V19.709ZM102.144 21.8916V20.7344H104.18V16.3691H105.498V28.6006H104.18V21.8916H102.144ZM106.89 29.2451V16.1201H108.223V29.2451H106.89ZM121.904 26.4473V27.6045H109.893V26.4473H112.764V23.0195C111.687 22.4263 111.028 21.4888 111.035 20.3096C111.028 18.2441 113.057 16.8892 115.869 16.8818C118.689 16.8892 120.718 18.2441 120.718 20.3096C120.718 21.4668 120.088 22.397 119.033 22.9902V26.4473H121.904ZM112.383 20.3096C112.383 21.7158 113.811 22.6313 115.869 22.6387C117.913 22.6313 119.363 21.7158 119.37 20.3096C119.363 18.896 117.913 17.9951 115.869 17.9951C113.811 17.9951 112.383 18.896 112.383 20.3096ZM114.141 26.4473H117.627V23.5322C117.092 23.6567 116.499 23.7227 115.869 23.7227C115.254 23.7227 114.668 23.6567 114.141 23.5322V26.4473Z" fill="#9FA4AE"/>
<g clip-path="url(#clip0_3292_646)">
<path d="M319.998 24.5L330.998 13.5" stroke="#9FA4AE" stroke-width="2" stroke-linecap="round" stroke-linejoin="round"/>
<path d="M331.941 13.8396C332.073 13.475 331.982 13.0671 331.708 12.7929C331.434 12.5187 331.026 12.4278 330.661 12.5594L312.661 19.0594C312.635 19.0689 312.609 19.0794 312.584 19.0909C312.314 19.2146 312.085 19.4131 311.925 19.6629C311.765 19.9126 311.68 20.2032 311.68 20.5C311.68 20.7968 311.765 21.0874 311.925 21.3371C312.082 21.581 312.303 21.7759 312.565 21.9001L319.255 25.2454L322.6 31.9359C322.725 32.1973 322.92 32.4189 323.163 32.5754C323.413 32.7357 323.704 32.8209 324.001 32.8209C324.297 32.8209 324.588 32.7357 324.838 32.5754C325.087 32.4151 325.286 32.1864 325.41 31.9166C325.421 31.8914 325.432 31.8657 325.441 31.8396L331.941 13.8396Z" stroke="#9FA4AE" stroke-width="2" stroke-linecap="round" stroke-linejoin="round"/>
</g>
<defs>
<clipPath id="clip0_3292_646">
<rect width="24" height="24" fill="white" transform="translate(310 10.5)"/>
</clipPath>
</defs>
</svg>
