<svg width="36" height="37" viewBox="0 0 36 37" fill="none" xmlns="http://www.w3.org/2000/svg">
<path d="M31.3578 5.36583C31.3467 5.31252 31.3207 5.26347 31.2828 5.22446C31.2448 5.18545 31.1965 5.1581 31.1436 5.14562C27.614 4.28166 19.4606 7.36007 15.0385 11.7825C14.2505 12.5648 13.5318 13.4142 12.8908 14.3211C11.5278 14.1977 10.1648 14.3016 9.00426 14.8083C5.72718 16.2504 4.77371 20.0167 4.5076 21.6335C4.49318 21.7221 4.49934 21.8128 4.5256 21.8987C4.55185 21.9845 4.5975 22.0631 4.65901 22.1284C4.72052 22.1938 4.79623 22.244 4.88028 22.2754C4.96433 22.3067 5.05445 22.3182 5.14367 22.3091L10.4056 21.7309C10.4092 22.1282 10.433 22.5249 10.477 22.9197C10.5044 23.1926 10.6261 23.4473 10.821 23.6401L12.8584 25.6792C13.0512 25.8743 13.3059 25.9961 13.5788 26.0234C13.9709 26.0672 14.3649 26.091 14.7594 26.0949L14.1824 31.3566C14.1734 31.4457 14.185 31.5358 14.2163 31.6198C14.2477 31.7038 14.2978 31.7794 14.363 31.8409C14.4282 31.9023 14.5066 31.948 14.5923 31.9743C14.6779 32.0006 14.7684 32.0068 14.8568 31.9925C16.473 31.7327 20.244 30.7784 21.6764 27.4993C22.1827 26.3365 22.2866 24.9795 22.1697 23.6219C23.0786 22.9809 23.9297 22.2617 24.7134 21.4724C29.1516 17.0552 32.208 9.07434 31.3578 5.36583ZM20.7684 15.7502C20.3808 15.3623 20.1167 14.868 20.0097 14.33C19.9028 13.7919 19.9576 13.2342 20.1673 12.7273C20.3771 12.2204 20.7323 11.7872 21.1881 11.4824C21.6439 11.1776 22.1797 11.0149 22.7279 11.0149C23.2761 11.0149 23.8119 11.1776 24.2677 11.4824C24.7235 11.7872 25.0787 12.2204 25.2885 12.7273C25.4982 13.2342 25.5531 13.7919 25.4461 14.33C25.3391 14.868 25.0751 15.3623 24.6874 15.7502C24.4303 16.0081 24.1249 16.2127 23.7886 16.3523C23.4524 16.4919 23.0919 16.5637 22.7279 16.5637C22.3639 16.5637 22.0034 16.4919 21.6672 16.3523C21.331 16.2127 21.0255 16.0081 20.7684 15.7502Z" stroke="#6B6F77" stroke-width="2.25" stroke-linecap="round" stroke-linejoin="round"/>
<path d="M8.4994 24.7363C7.85237 24.8158 7.25042 25.1094 6.78914 25.5704C5.6455 26.7189 5.53711 30.9724 5.53711 30.9724C5.53711 30.9724 9.78973 30.8639 10.934 29.718C11.3965 29.2571 11.6903 28.6537 11.7681 28.0051" stroke="#6B6F77" stroke-width="2.25" stroke-linecap="round" stroke-linejoin="round"/>
</svg>
