<svg width="16" height="16" viewBox="0 0 16 16" fill="none" xmlns="http://www.w3.org/2000/svg">
<path d="M2.70813 6.5C2.5696 6.98795 2.49956 7.49277 2.5 8C2.49956 8.50723 2.5696 9.01205 2.70813 9.5M2.70813 6.5V6.55H2.74605M2.70813 6.5L2.75623 6.51366C2.75279 6.52576 2.7494 6.53787 2.74605 6.55M2.70813 6.5H5.06441C5.06186 6.51666 5.05934 6.53333 5.05687 6.55M2.74605 6.55C2.61554 7.02219 2.54957 7.50994 2.55 7.99996L2.55 8.00004C2.54957 8.49006 2.61554 8.97781 2.74605 9.45M2.74605 6.55H5.05687M2.74605 9.45H2.70813V9.5M2.74605 9.45C2.7494 9.46213 2.75279 9.47424 2.75623 9.48634L2.70813 9.5M2.74605 9.45H5.05687M2.70813 9.5H5.06441C5.06186 9.48334 5.05934 9.46667 5.05687 9.45M5.05687 9.45C4.91434 8.48859 4.91434 7.51141 5.05687 6.55M5.05687 9.45H5.10742C4.96416 8.48864 4.96416 7.51136 5.10742 6.55H5.05687M8.00006 1.45H8C6.70454 1.45 5.43816 1.83415 4.36102 2.55387C3.28388 3.2736 2.44435 4.29657 1.94859 5.49342C1.45284 6.69028 1.32313 8.00727 1.57586 9.27784C1.82859 10.5484 2.45242 11.7155 3.36845 12.6315C4.28449 13.5476 5.45159 14.1714 6.72216 14.4241C7.99274 14.6769 9.30972 14.5472 10.5066 14.0514C11.7034 13.5557 12.7264 12.7161 13.4461 11.639C14.1659 10.5618 14.55 9.29547 14.55 8V7.99994C14.548 6.2634 13.8573 4.59856 12.6294 3.37064C11.4014 2.14272 9.7366 1.452 8.00006 1.45ZM13.45 7.99996V8.00004C13.4504 8.49006 13.3845 8.97781 13.254 9.45H10.9431C11.0857 8.48859 11.0857 7.51141 10.9431 6.55H13.254C13.3845 7.02219 13.4504 7.50994 13.45 7.99996ZM8.00002 13.239C7.29027 12.4675 6.75871 11.5495 6.4429 10.55H9.55713C9.2417 11.5497 8.7101 12.4677 8.00002 13.239ZM9.83156 9.45H6.17345C6.01214 8.49006 6.01214 7.50994 6.17345 6.55H9.83156C9.99286 7.50994 9.99286 8.49006 9.83156 9.45ZM7.99999 2.76104C8.70974 3.53253 9.24129 4.45051 9.55711 5.45H6.44287C6.75831 4.45035 7.28991 3.53229 7.99999 2.76104ZM10.7075 5.45C10.4365 4.4733 9.99324 3.55316 9.39882 2.73284C10.1147 2.92419 10.7847 3.25919 11.3678 3.71796C11.9659 4.18849 12.4589 4.7785 12.8157 5.45H10.7075ZM3.18436 5.45C3.54111 4.7785 4.03414 4.18849 4.63222 3.71796C5.21534 3.25919 5.88533 2.92419 6.60119 2.73284C6.00677 3.55316 5.56349 4.4733 5.29252 5.45H3.18436ZM5.29252 10.55C5.56349 11.5267 6.00677 12.4468 6.60119 13.2672C5.88533 13.0758 5.21534 12.7408 4.63222 12.282C4.03415 11.8115 3.54111 11.2215 3.18436 10.55H5.29252ZM10.7075 10.55H12.8156C12.4589 11.2215 11.9659 11.8115 11.3678 12.282C10.7847 12.7408 10.1147 13.0758 9.39882 13.2672C9.99324 12.4468 10.4365 11.5267 10.7075 10.55Z" fill="#5451FF" stroke="#5451FF" stroke-width="0.1"/>
</svg>
