<svg width="16" height="16" viewBox="0 0 16 16" fill="none" xmlns="http://www.w3.org/2000/svg">
<path fill-rule="evenodd" clip-rule="evenodd" d="M8 13.1429C8.06519 13.1429 8.19897 13.1157 8.39883 12.9184C8.60237 12.7175 8.82499 12.3844 9.03044 11.905C9.23932 11.4176 9.41302 10.8198 9.53308 10.1429H6.46692C6.58698 10.8198 6.76068 11.4176 6.96956 11.905C7.17501 12.3844 7.39763 12.7175 7.60117 12.9184C7.80103 13.1157 7.93481 13.1429 8 13.1429ZM6.34888 9.28571C6.30783 8.87599 6.28571 8.44563 6.28571 8C6.28571 7.55437 6.30783 7.12401 6.34888 6.71429H9.65112C9.69217 7.12401 9.71429 7.55437 9.71429 8C9.71429 8.44563 9.69217 8.87599 9.65112 9.28571H6.34888ZM10.4026 10.1429C10.2165 11.2782 9.8868 12.248 9.46537 12.9311C10.8942 12.5071 12.0633 11.479 12.6765 10.1429H10.4026ZM12.9808 9.28571H10.5123C10.551 8.87151 10.5714 8.44132 10.5714 8C10.5714 7.55868 10.551 7.12849 10.5123 6.71429H12.9808C13.0866 7.12523 13.1429 7.55604 13.1429 8C13.1429 8.44396 13.0866 8.87477 12.9808 9.28571ZM5.48775 9.28571H3.01917C2.9134 8.87477 2.85714 8.44396 2.85714 8C2.85714 7.55604 2.9134 7.12523 3.01917 6.71429H5.48775C5.44899 7.12849 5.42857 7.55868 5.42857 8C5.42857 8.44132 5.44899 8.87151 5.48775 9.28571ZM3.32346 10.1429H5.59741C5.78352 11.2782 6.1132 12.248 6.53463 12.9311C5.10578 12.5071 3.93672 11.479 3.32346 10.1429ZM6.46692 5.85714H9.53308C9.41302 5.18018 9.23932 4.58241 9.03044 4.095C8.82499 3.61563 8.60237 3.28246 8.39883 3.08158C8.19897 2.88434 8.06519 2.85714 8 2.85714C7.93481 2.85714 7.80103 2.88434 7.60117 3.08158C7.39763 3.28246 7.17501 3.61563 6.96956 4.095C6.76068 4.58241 6.58698 5.18018 6.46692 5.85714ZM10.4026 5.85714H12.6765C12.0633 4.52097 10.8942 3.49289 9.46537 3.06892C9.8868 3.75205 10.2165 4.72176 10.4026 5.85714ZM6.53463 3.06892C6.1132 3.75205 5.78352 4.72176 5.59741 5.85714H3.32346C3.93672 4.52097 5.10579 3.49289 6.53463 3.06892ZM8 2C11.3137 2 14 4.68629 14 8C14 11.3137 11.3137 14 8 14C4.68629 14 2 11.3137 2 8C2 4.68629 4.68629 2 8 2Z" fill="#5451FF"/>
<path d="M8.39883 12.9184L8.50419 13.0252L8.50419 13.0252L8.39883 12.9184ZM9.03044 11.905L9.16831 11.9641L9.16831 11.9641L9.03044 11.905ZM9.53308 10.1429L9.68077 10.1691L9.71202 9.99286H9.53308V10.1429ZM6.46692 10.1429V9.99286H6.28798L6.31923 10.1691L6.46692 10.1429ZM6.96956 11.905L6.83169 11.9641L6.83169 11.9641L6.96956 11.905ZM7.60117 12.9184L7.49581 13.0252L7.49581 13.0252L7.60117 12.9184ZM6.34888 9.28571L6.19963 9.30067L6.21316 9.43571H6.34888V9.28571ZM6.34888 6.71429V6.56429H6.21316L6.19963 6.69933L6.34888 6.71429ZM9.65112 6.71429L9.80037 6.69933L9.78684 6.56429H9.65112V6.71429ZM9.65112 9.28571V9.43571H9.78684L9.80037 9.30067L9.65112 9.28571ZM10.4026 10.1429V9.99286H10.2752L10.2546 10.1186L10.4026 10.1429ZM9.46537 12.9311L9.33771 12.8523L9.13148 13.1866L9.50804 13.0749L9.46537 12.9311ZM12.6765 10.1429L12.8129 10.2054L12.9104 9.99286H12.6765V10.1429ZM10.5123 9.28571L10.3629 9.27174L10.3476 9.43571H10.5123V9.28571ZM12.9808 9.28571V9.43571H13.0971L13.1261 9.3231L12.9808 9.28571ZM10.5123 6.71429V6.56429H10.3476L10.3629 6.72826L10.5123 6.71429ZM12.9808 6.71429L13.1261 6.6769L13.0971 6.56429H12.9808V6.71429ZM3.01917 9.28571L2.8739 9.3231L2.90288 9.43571H3.01917V9.28571ZM5.48775 9.28571V9.43571H5.65244L5.63709 9.27174L5.48775 9.28571ZM3.01917 6.71429V6.56429H2.90288L2.8739 6.6769L3.01917 6.71429ZM5.48775 6.71429L5.63709 6.72826L5.65244 6.56429H5.48775V6.71429ZM5.59741 10.1429L5.74544 10.1186L5.72483 9.99286H5.59741V10.1429ZM3.32346 10.1429V9.99286H3.08958L3.18714 10.2054L3.32346 10.1429ZM6.53463 12.9311L6.49196 13.0749L6.86852 13.1866L6.66229 12.8523L6.53463 12.9311ZM9.53308 5.85714V6.00714H9.71202L9.68077 5.83095L9.53308 5.85714ZM6.46692 5.85714L6.31923 5.83095L6.28798 6.00714H6.46692V5.85714ZM9.03044 4.095L9.16831 4.03592L9.16831 4.03592L9.03044 4.095ZM8.39883 3.08158L8.50419 2.97482L8.50419 2.97482L8.39883 3.08158ZM7.60117 3.08158L7.49581 2.97482L7.49581 2.97482L7.60117 3.08158ZM6.96956 4.095L6.83169 4.03592L6.83169 4.03592L6.96956 4.095ZM12.6765 5.85714V6.00714H12.9104L12.8129 5.79457L12.6765 5.85714ZM10.4026 5.85714L10.2546 5.88141L10.2752 6.00714H10.4026V5.85714ZM9.46537 3.06892L9.50804 2.92512L9.13148 2.81338L9.33771 3.14768L9.46537 3.06892ZM5.59741 5.85714V6.00714H5.72483L5.74544 5.88141L5.59741 5.85714ZM6.53463 3.06892L6.66229 3.14768L6.86852 2.81338L6.49196 2.92512L6.53463 3.06892ZM3.32346 5.85714L3.18714 5.79457L3.08958 6.00714H3.32346V5.85714ZM8.29346 12.8117C8.11318 12.9896 8.01523 12.9929 8 12.9929V13.2929C8.11514 13.2929 8.28476 13.2417 8.50419 13.0252L8.29346 12.8117ZM8.89256 11.8459C8.69188 12.3142 8.47879 12.6288 8.29346 12.8117L8.50419 13.0252C8.72595 12.8063 8.9581 12.4546 9.16831 11.9641L8.89256 11.8459ZM9.38538 10.1167C9.26692 10.7846 9.09609 11.371 8.89256 11.8459L9.16831 11.9641C9.38256 11.4642 9.55911 10.855 9.68077 10.1691L9.38538 10.1167ZM9.53308 9.99286H6.46692V10.2929H9.53308V9.99286ZM7.10744 11.8459C6.90391 11.371 6.73308 10.7846 6.61462 10.1167L6.31923 10.1691C6.44089 10.855 6.61744 11.4642 6.83169 11.9641L7.10744 11.8459ZM7.70654 12.8117C7.52121 12.6288 7.30812 12.3142 7.10744 11.8459L6.83169 11.9641C7.0419 12.4546 7.27405 12.8063 7.49581 13.0252L7.70654 12.8117ZM8 12.9929C7.98477 12.9929 7.88682 12.9896 7.70654 12.8117L7.49581 13.0252C7.71524 13.2417 7.88486 13.2929 8 13.2929V12.9929ZM6.49813 9.27076C6.45759 8.86606 6.43571 8.44069 6.43571 8H6.13571C6.13571 8.45056 6.15807 8.88592 6.19963 9.30067L6.49813 9.27076ZM6.43571 8C6.43571 7.55931 6.45759 7.13394 6.49813 6.72924L6.19963 6.69933C6.15807 7.11408 6.13571 7.54944 6.13571 8H6.43571ZM6.34888 6.86429H9.65112V6.56429H6.34888V6.86429ZM9.50187 6.72924C9.54241 7.13394 9.56429 7.55931 9.56429 8H9.86429C9.86429 7.54944 9.84193 7.11408 9.80037 6.69933L9.50187 6.72924ZM9.56429 8C9.56429 8.44069 9.54241 8.86606 9.50187 9.27076L9.80037 9.30067C9.84193 8.88592 9.86429 8.45056 9.86429 8H9.56429ZM6.34888 9.43571H9.65112V9.13571H6.34888V9.43571ZM10.2546 10.1186C10.0705 11.2417 9.74567 12.191 9.33771 12.8523L9.59303 13.0098C10.0279 12.3049 10.3625 11.3148 10.5506 10.1671L10.2546 10.1186ZM9.50804 13.0749C10.9788 12.6385 12.1818 11.5805 12.8129 10.2054L12.5402 10.0803C11.9448 11.3776 10.8096 12.3758 9.4227 12.7873L9.50804 13.0749ZM12.6765 9.99286H10.4026V10.2929H12.6765V9.99286ZM10.5123 9.43571H12.9808V9.13571H10.5123V9.43571ZM10.4214 8C10.4214 8.43671 10.4012 8.86224 10.3629 9.27174L10.6616 9.29969C10.7008 8.88078 10.7214 8.44593 10.7214 8H10.4214ZM10.3629 6.72826C10.4012 7.13776 10.4214 7.56329 10.4214 8H10.7214C10.7214 7.55407 10.7008 7.11922 10.6616 6.70031L10.3629 6.72826ZM12.9808 6.56429H10.5123V6.86429H12.9808V6.56429ZM13.2929 8C13.2929 7.54333 13.235 7.09995 13.1261 6.6769L12.8356 6.75167C12.9382 7.1505 12.9929 7.56876 12.9929 8H13.2929ZM13.1261 9.3231C13.235 8.90005 13.2929 8.45667 13.2929 8H12.9929C12.9929 8.43124 12.9382 8.8495 12.8356 9.24833L13.1261 9.3231ZM3.01917 9.43571H5.48775V9.13571H3.01917V9.43571ZM2.70714 8C2.70714 8.45667 2.76501 8.90005 2.8739 9.3231L3.16443 9.24833C3.06178 8.8495 3.00714 8.43124 3.00714 8H2.70714ZM2.8739 6.6769C2.76501 7.09995 2.70714 7.54333 2.70714 8H3.00714C3.00714 7.56876 3.06178 7.1505 3.16443 6.75167L2.8739 6.6769ZM5.48775 6.56429H3.01917V6.86429H5.48775V6.56429ZM5.57857 8C5.57857 7.56329 5.59878 7.13776 5.63709 6.72826L5.3384 6.70031C5.2992 7.11922 5.27857 7.55407 5.27857 8H5.57857ZM5.63709 9.27174C5.59878 8.86224 5.57857 8.43671 5.57857 8H5.27857C5.27857 8.44593 5.2992 8.88078 5.3384 9.29969L5.63709 9.27174ZM5.59741 9.99286H3.32346V10.2929H5.59741V9.99286ZM6.66229 12.8523C6.25433 12.191 5.92954 11.2417 5.74544 10.1186L5.44939 10.1671C5.63751 11.3148 5.97207 12.3049 6.40697 13.0098L6.66229 12.8523ZM3.18714 10.2054C3.81823 11.5805 5.02118 12.6385 6.49196 13.0749L6.5773 12.7873C5.19039 12.3758 4.05521 11.3776 3.45979 10.0803L3.18714 10.2054ZM9.53308 5.70714H6.46692V6.00714H9.53308V5.70714ZM8.89256 4.15409C9.09609 4.62899 9.26692 5.21538 9.38538 5.88334L9.68077 5.83095C9.55911 5.14499 9.38256 4.53583 9.16831 4.03592L8.89256 4.15409ZM8.29346 3.18834C8.47879 3.37124 8.69188 3.68583 8.89256 4.15409L9.16831 4.03592C8.9581 3.54543 8.72595 3.19368 8.50419 2.97482L8.29346 3.18834ZM8 3.00714C8.01523 3.00714 8.11318 3.01042 8.29346 3.18834L8.50419 2.97482C8.28476 2.75825 8.11514 2.70714 8 2.70714V3.00714ZM7.70654 3.18834C7.88682 3.01042 7.98477 3.00714 8 3.00714V2.70714C7.88486 2.70714 7.71524 2.75825 7.49581 2.97482L7.70654 3.18834ZM7.10744 4.15409C7.30812 3.68583 7.52121 3.37124 7.70654 3.18834L7.49581 2.97482C7.27405 3.19368 7.0419 3.54543 6.83169 4.03592L7.10744 4.15409ZM6.61462 5.88334C6.73308 5.21538 6.90391 4.62899 7.10744 4.15409L6.83169 4.03592C6.61744 4.53583 6.44089 5.14499 6.31923 5.83095L6.61462 5.88334ZM12.6765 5.70714H10.4026V6.00714H12.6765V5.70714ZM9.4227 3.21272C10.8096 3.62425 11.9448 4.62241 12.5402 5.91971L12.8129 5.79457C12.1818 4.41953 10.9788 3.36153 9.50804 2.92512L9.4227 3.21272ZM10.5506 5.83288C10.3625 4.68524 10.0279 3.69512 9.59303 2.99016L9.33771 3.14768C9.74567 3.80897 10.0705 4.75828 10.2546 5.88141L10.5506 5.83288ZM5.74544 5.88141C5.92954 4.75828 6.25433 3.80897 6.66229 3.14768L6.40697 2.99016C5.97207 3.69512 5.63751 4.68524 5.44939 5.83288L5.74544 5.88141ZM3.32346 6.00714H5.59741V5.70714H3.32346V6.00714ZM6.49196 2.92512C5.02118 3.36153 3.81824 4.41953 3.18714 5.79457L3.45979 5.91971C4.05521 4.62241 5.19039 3.62425 6.5773 3.21272L6.49196 2.92512ZM14.15 8C14.15 4.60345 11.3966 1.85 8 1.85V2.15C11.2309 2.15 13.85 4.76913 13.85 8H14.15ZM8 14.15C11.3966 14.15 14.15 11.3966 14.15 8H13.85C13.85 11.2309 11.2309 13.85 8 13.85V14.15ZM1.85 8C1.85 11.3966 4.60345 14.15 8 14.15V13.85C4.76913 13.85 2.15 11.2309 2.15 8H1.85ZM8 1.85C4.60345 1.85 1.85 4.60345 1.85 8H2.15C2.15 4.76913 4.76913 2.15 8 2.15V1.85Z" fill="#5451FF"/>
</svg>
