<svg width="410" height="109" viewBox="0 0 410 109" fill="none" xmlns="http://www.w3.org/2000/svg">
<path d="M360.524 28.9315V49.2514H384.43V58.515H360.524V79.7314H387.418V88.9949H349.169V19.668H387.418V28.9315H360.524Z" fill="black"/>
<path d="M316.263 79.8325H339.671V88.9964H304.908V19.769H316.263V79.8325Z" fill="black"/>
<path d="M297.465 40.3878C296.867 43.9073 295.439 47.2276 293.182 50.3486C290.99 53.4696 287.903 56.0262 283.918 58.0184C279.934 59.9441 275.086 60.907 269.375 60.907H256.825L251.845 88.9964H240.489L252.741 19.769H276.647C283.619 19.769 288.899 21.3296 292.484 24.4506C296.07 27.5052 297.863 31.5227 297.863 36.5031C297.863 37.3664 297.73 38.6613 297.465 40.3878ZM270.969 52.0419C275.286 52.0419 278.672 51.0126 281.129 48.9541C283.653 46.8955 285.213 44.0401 285.811 40.3878C286.01 39.3918 286.11 38.4289 286.11 37.4992C286.11 34.7102 285.18 32.552 283.321 31.0247C281.528 29.431 278.772 28.6341 275.053 28.6341H262.503L258.419 52.0419H270.969Z" fill="black"/>
<path d="M220.786 88.9964L193.992 58.0184V88.9964H182.637V19.769H193.992V51.3447L220.886 19.769H235.13L205.048 54.4325L235.628 88.9964H220.786Z" fill="black"/>
<path d="M104.874 54.2328C104.874 47.4595 106.435 41.3834 109.556 36.0046C112.743 30.6258 117.026 26.4423 122.405 23.454C127.85 20.3994 133.793 18.8721 140.235 18.8721C147.606 18.8721 154.147 20.6982 159.857 24.3505C165.635 27.9364 169.818 33.0496 172.408 39.6901H158.762C156.969 36.0378 154.479 33.3152 151.291 31.5222C148.104 29.7293 144.418 28.8328 140.235 28.8328C135.653 28.8328 131.569 29.8621 127.983 31.9207C124.397 33.9792 121.575 36.9343 119.516 40.7858C117.524 44.6373 116.528 49.1196 116.528 54.2328C116.528 59.346 117.524 63.8283 119.516 67.6798C121.575 71.5313 124.397 74.5196 127.983 76.6445C131.569 78.7031 135.653 79.7323 140.235 79.7323C144.418 79.7323 148.104 78.8359 151.291 77.0429C154.479 75.25 156.969 72.5274 158.762 68.8751H172.408C169.818 75.5156 165.635 80.6288 159.857 84.2147C154.147 87.8006 147.606 89.5935 140.235 89.5935C133.727 89.5935 127.784 88.0994 122.405 85.1112C117.026 82.0565 112.743 77.8398 109.556 72.461C106.435 67.0822 104.874 61.0061 104.874 54.2328Z" fill="black"/>
<path d="M100.555 19.769L90.6941 68.0788H81.2314L88.5027 19.769H100.555ZM82.5263 89.6936C80.7333 89.6936 79.2724 89.1292 78.1435 88.0003C77.0146 86.8714 76.4502 85.4437 76.4502 83.7172C76.4502 81.393 77.3135 79.4008 79.04 77.7407C80.8329 76.0142 82.8583 75.1509 85.1161 75.1509C86.909 75.1509 88.3367 75.7153 89.3992 76.8442C90.5281 77.9731 91.0925 79.4008 91.0925 81.1274C91.0925 83.4515 90.2293 85.4769 88.5027 87.2034C86.7762 88.8636 84.784 89.6936 82.5263 89.6936Z" fill="#5451FF"/>
<path d="M74.3029 40.3878C74.3029 43.9073 73.4728 47.2276 71.8127 50.3486C70.1526 53.4696 67.4964 56.0262 63.8441 58.0184C60.1918 59.9441 55.5102 60.907 49.7994 60.907H37.2488V88.9964H25.8936V19.769H49.7994C55.1118 19.769 59.5942 20.6987 63.2464 22.5581C66.9651 24.351 69.7209 26.808 71.5139 29.929C73.3732 33.0501 74.3029 36.5363 74.3029 40.3878ZM49.7994 51.6435C54.1157 51.6435 57.3364 50.6806 59.4613 48.7549C61.5863 46.7627 62.6488 43.9737 62.6488 40.3878C62.6488 32.8176 58.3657 29.0326 49.7994 29.0326H37.2488V51.6435H49.7994Z" fill="black"/>
<rect x="0.271415" y="0.271415" width="409.294" height="108.023" stroke="black" stroke-width="0.54283"/>
</svg>
