<svg width="139" height="28" viewBox="0 0 139 28" fill="none" xmlns="http://www.w3.org/2000/svg">
<path d="M17.8059 12.9038C17.1622 14.0962 16.1311 15.0657 14.7155 15.8136C13.2985 16.5616 11.4833 16.9349 9.2698 16.9349H4.40373V27.6598H0V1.22949H9.2698C11.3291 1.22949 13.0748 1.57862 14.5041 2.27553C15.9334 2.97379 17.0012 3.91777 17.7104 5.10884C18.4182 6.30124 18.7728 7.63196 18.7728 9.10232C18.7728 10.4465 18.451 11.7141 17.8072 12.9051L17.8059 12.9038ZM13.0162 12.2767C13.8399 11.5288 14.2518 10.4706 14.2518 9.10098C14.2518 6.21127 12.5907 4.76508 9.2698 4.76508H4.40373V13.3979H9.2698C10.9432 13.3979 12.1924 13.0246 13.0162 12.2767Z" fill="#17171A"/>
<path d="M19.9607 27.2798C19.5229 26.8487 19.3047 26.3036 19.3047 25.6443C19.3047 24.7567 19.6456 23.9899 20.3289 23.344C21.0108 22.6982 21.7895 22.3745 22.6651 22.3745C23.3607 22.3745 23.9198 22.5907 24.3453 23.0204C24.7708 23.4515 24.9822 23.9966 24.9822 24.656C24.9822 25.5435 24.6467 26.3103 23.9785 26.9562C23.3088 27.6021 22.5355 27.9257 21.6613 27.9257C20.9658 27.9257 20.3998 27.7095 19.962 27.2798H19.9607ZM28.6509 1.22949L24.8267 19.6742H21.1567L23.9771 1.22949H28.6509Z" fill="#5451FF"/>
<path d="M32.098 7.42786C33.3213 5.37472 34.9811 3.77142 37.08 2.61661C39.1789 1.46315 41.4769 0.885742 43.974 0.885742C46.8326 0.885742 49.3747 1.57728 51.6018 2.95768C53.8289 4.33942 55.445 6.29856 56.4488 8.83377H51.1572C50.4617 7.43994 49.4961 6.39927 48.2605 5.71579C47.0249 5.0323 45.5956 4.68855 43.9727 4.68855C42.1956 4.68855 40.6122 5.08199 39.2225 5.86752C37.8314 6.65306 36.7445 7.78235 35.9589 9.25272C35.1734 10.7231 34.7806 12.4352 34.7806 14.3862C34.7806 16.3373 35.1734 18.0507 35.9589 19.5198C36.7445 20.9901 37.8328 22.1248 39.2225 22.9237C40.6136 23.7227 42.197 24.1215 43.9727 24.1215C45.5942 24.1215 47.0235 23.7791 48.2605 23.0943C49.4974 22.4095 50.4617 21.3701 51.1572 19.9763H56.4488C55.445 22.5115 53.8289 24.4639 51.6018 25.8323C49.3747 27.2019 46.8312 27.8854 43.974 27.8854C41.4496 27.8854 39.1461 27.3093 37.0609 26.1545C34.9756 25.0011 33.32 23.3978 32.098 21.3433C30.8747 19.2901 30.2637 16.9698 30.2637 14.3836C30.2637 11.7973 30.8747 9.47831 32.098 7.42383V7.42786Z" fill="#17171A"/>
<path d="M75.1301 27.6598L64.7407 15.8324V27.6598H60.3369V1.22949H64.7407V13.2851L75.1683 1.22949H80.6917L69.0271 14.4641L80.8854 27.6598H75.1301Z" fill="#17171A"/>
<path d="M103.098 12.9038C102.235 14.0962 101.032 15.0657 99.4868 15.8136C97.9416 16.5616 96.0623 16.9349 93.8474 16.9349H88.9814L87.0502 27.6598H82.6465L87.3966 1.22949H96.6664C99.3695 1.22949 101.417 1.81898 102.808 2.99796C104.199 4.17693 104.893 5.71712 104.893 7.61853C104.893 7.94886 104.841 8.44301 104.739 9.10232C104.507 10.4465 103.96 11.7141 103.097 12.9051L103.098 12.9038ZM98.4244 12.372C99.39 11.5865 99.9887 10.4961 100.221 9.10098C100.298 8.72096 100.336 8.35304 100.336 7.99854C100.336 6.9337 99.9818 6.10385 99.274 5.50765C98.5648 4.91279 97.4902 4.61334 96.0486 4.61334H91.1826L89.5992 13.5497H94.4652C96.1386 13.5497 97.4588 13.1562 98.4244 12.3707V12.372Z" fill="#17171A"/>
<path d="M112.172 24.1618H121.248V27.6611H107.769V1.22949H112.172V24.1618Z" fill="#17171A"/>
<path d="M128.571 4.72797V12.4867H137.841V16.0236H128.571V24.1234H139V27.6603H124.169V1.19238H139V4.72931H128.571V4.72797Z" fill="#17171A"/>
</svg>
