<svg width="57" height="57" viewBox="0 0 57 57" fill="none" xmlns="http://www.w3.org/2000/svg">
<rect x="0.5" y="0.5" width="56" height="56" rx="9.5" fill="#EEEEFF" stroke="#9997FF"/>
<g clip-path="url(#clip0_3162_52558)">
<path opacity="0.8" d="M44.2781 36.5189L44.26 36.6245L44.2805 36.7297C44.3011 36.8359 44.298 36.9453 44.2713 37.0501C44.2447 37.1549 44.1952 37.2526 44.1265 37.336C44.0577 37.4195 43.9713 37.4867 43.8735 37.5329C43.7757 37.579 43.669 37.6029 43.5609 37.603C43.5609 37.603 43.5608 37.603 43.5607 37.603H18.9178C18.5518 37.603 18.1894 37.6751 17.8512 37.8151C17.5131 37.9552 17.2058 38.1605 16.947 38.4193C16.6882 38.6781 16.483 38.9853 16.3429 39.3235C16.2028 39.6616 16.1307 40.024 16.1307 40.39C16.1307 40.756 16.2028 41.1184 16.3429 41.4566C16.483 41.7947 16.6882 42.1019 16.947 42.3607C17.2058 42.6195 17.5131 42.8248 17.8512 42.9649C18.1894 43.1049 18.5518 43.177 18.9178 43.177H43.5609C43.7554 43.177 43.942 43.2543 44.0795 43.3919C44.2171 43.5294 44.2943 43.7159 44.2943 43.9105C44.2943 44.105 44.2171 44.2915 44.0795 44.4291C43.942 44.5666 43.7554 44.6439 43.5609 44.6439H18.9178C17.7896 44.6439 16.7076 44.1957 15.9098 43.398C15.1121 42.6002 14.6639 41.5182 14.6639 40.39V15.7469C14.6639 14.6187 15.1121 13.5367 15.9098 12.7389C16.7076 11.9412 17.7896 11.493 18.9178 11.493H42.5048C43.4939 11.493 44.2943 12.2935 44.2943 13.2826V36.3579C44.2926 36.4119 44.2872 36.4657 44.2781 36.5189ZM24.1984 17.3604C23.6927 17.3604 23.2077 17.5613 22.8501 17.9189C22.4924 18.2765 22.2915 18.7616 22.2915 19.2673C22.2915 19.7731 22.4924 20.2581 22.8501 20.6157C23.2077 20.9733 23.6927 21.1742 24.1984 21.1742H34.7598C35.2655 21.1742 35.7506 20.9733 36.1082 20.6157C36.4658 20.2581 36.6667 19.7731 36.6667 19.2673C36.6667 18.7616 36.4658 18.2765 36.1082 17.9189C35.7506 17.5613 35.2655 17.3604 34.7598 17.3604H24.1984Z" fill="#6360FF" stroke="url(#paint0_linear_3162_52558)" stroke-width="1.17348"/>
</g>
<defs>
<linearGradient id="paint0_linear_3162_52558" x1="44.0595" y1="10.9062" x2="10.7482" y2="41.6202" gradientUnits="userSpaceOnUse">
<stop stop-color="white" stop-opacity="0.25"/>
<stop offset="1" stop-color="white" stop-opacity="0.5"/>
</linearGradient>
<clipPath id="clip0_3162_52558">
<rect width="36" height="36" fill="white" transform="translate(10.5 10.5)"/>
</clipPath>
</defs>
</svg>
