<svg width="57" height="57" viewBox="0 0 57 57" fill="none" xmlns="http://www.w3.org/2000/svg">
<rect x="0.5" y="0.5" width="56" height="56" rx="9.5" fill="#EEEEFF" stroke="#9997FF"/>
<g opacity="0.8" filter="url(#filter0_ii_3162_52513)">
<g filter="url(#filter1_ii_3162_52513)">
<path d="M17.1704 21.6817V17.1522C17.1704 15.1351 18.8055 13.5 20.8226 13.5H36.2057C38.2228 13.5 39.8579 15.1351 39.8579 17.1522V21.6817" stroke="#6360FF" stroke-width="3.65218"/>
</g>
<mask id="path-3-inside-1_3162_52513" fill="white">
<path fill-rule="evenodd" clip-rule="evenodd" d="M11.5 29.3237V38.6307C11.5 41.3201 13.6802 43.5003 16.3696 43.5003H40.6617C43.3511 43.5003 45.5312 41.3201 45.5312 38.6307V29.2538L38.7819 33.2311C37.5646 33.9484 36.1775 34.3268 34.7645 34.3268H22.1481C20.7352 34.3268 19.348 33.9484 18.1307 33.2311L11.5 29.3237ZM11.5 27.9107L18.7488 32.1823C19.7788 32.7892 20.9526 33.1094 22.1481 33.1094H34.7645C35.9601 33.1094 37.1339 32.7892 38.1639 32.1823L45.5312 27.8408V23.8247C45.5312 21.1353 43.3511 18.9551 40.6617 18.9551H16.3696C13.6802 18.9551 11.5 21.1353 11.5 23.8246V27.9107Z"/>
</mask>
<path fill-rule="evenodd" clip-rule="evenodd" d="M11.5 29.3237V38.6307C11.5 41.3201 13.6802 43.5003 16.3696 43.5003H40.6617C43.3511 43.5003 45.5312 41.3201 45.5312 38.6307V29.2538L38.7819 33.2311C37.5646 33.9484 36.1775 34.3268 34.7645 34.3268H22.1481C20.7352 34.3268 19.348 33.9484 18.1307 33.2311L11.5 29.3237ZM11.5 27.9107L18.7488 32.1823C19.7788 32.7892 20.9526 33.1094 22.1481 33.1094H34.7645C35.9601 33.1094 37.1339 32.7892 38.1639 32.1823L45.5312 27.8408V23.8247C45.5312 21.1353 43.3511 18.9551 40.6617 18.9551H16.3696C13.6802 18.9551 11.5 21.1353 11.5 23.8246V27.9107Z" fill="#6360FF"/>
<path d="M11.5 29.3237L12.0077 28.4622L10.5 27.5737V29.3237H11.5ZM45.5312 29.2538H46.5312V27.5038L45.0236 28.3923L45.5312 29.2538ZM38.7819 33.2311L38.2742 32.3696L38.7819 33.2311ZM18.1307 33.2311L18.6384 32.3696V32.3696L18.1307 33.2311ZM11.5 27.9107H10.5V28.4821L10.9923 28.7722L11.5 27.9107ZM18.7488 32.1823L19.2565 31.3207L19.2565 31.3207L18.7488 32.1823ZM38.1639 32.1823L38.6716 33.0438L38.1639 32.1823ZM45.5312 27.8408L46.0389 28.7023L46.5312 28.4122V27.8408H45.5312ZM12.5 38.6307V29.3237H10.5V38.6307H12.5ZM16.3696 42.5003C14.2325 42.5003 12.5 40.7678 12.5 38.6307H10.5C10.5 41.8724 13.1279 44.5003 16.3696 44.5003V42.5003ZM40.6617 42.5003H16.3696V44.5003H40.6617V42.5003ZM44.5312 38.6307C44.5312 40.7678 42.7988 42.5003 40.6617 42.5003V44.5003C43.9033 44.5003 46.5312 41.8724 46.5312 38.6307H44.5312ZM44.5312 29.2538V38.6307H46.5312V29.2538H44.5312ZM45.0236 28.3923L38.2742 32.3696L39.2896 34.0926L46.0389 30.1154L45.0236 28.3923ZM38.2742 32.3696C37.2108 32.9962 35.9989 33.3268 34.7645 33.3268V35.3268C36.356 35.3268 37.9185 34.9006 39.2896 34.0926L38.2742 32.3696ZM34.7645 33.3268H22.1481V35.3268H34.7645V33.3268ZM22.1481 33.3268C20.9138 33.3268 19.7019 32.9962 18.6384 32.3696L17.623 34.0926C18.9942 34.9006 20.5566 35.3268 22.1481 35.3268V33.3268ZM18.6384 32.3696L12.0077 28.4622L10.9923 30.1852L17.623 34.0926L18.6384 32.3696ZM10.9923 28.7722L18.2411 33.0438L19.2565 31.3207L12.0077 27.0491L10.9923 28.7722ZM18.2411 33.0438C19.425 33.7414 20.774 34.1094 22.1481 34.1094V32.1094C21.1311 32.1094 20.1327 31.8371 19.2565 31.3207L18.2411 33.0438ZM22.1481 34.1094H34.7645V32.1094H22.1481V34.1094ZM34.7645 34.1094C36.1387 34.1094 37.4877 33.7414 38.6716 33.0438L37.6562 31.3207C36.78 31.8371 35.7815 32.1094 34.7645 32.1094V34.1094ZM38.6716 33.0438L46.0389 28.7023L45.0236 26.9792L37.6562 31.3207L38.6716 33.0438ZM44.5312 23.8247V27.8408H46.5312V23.8247H44.5312ZM40.6617 19.9551C42.7988 19.9551 44.5312 21.6875 44.5312 23.8247H46.5312C46.5312 20.583 43.9033 17.9551 40.6617 17.9551V19.9551ZM16.3696 19.9551H40.6617V17.9551H16.3696V19.9551ZM12.5 23.8246C12.5 21.6875 14.2325 19.9551 16.3696 19.9551V17.9551C13.1279 17.9551 10.5 20.583 10.5 23.8246H12.5ZM12.5 27.9107V23.8246H10.5V27.9107H12.5Z" fill="#6360FF" mask="url(#path-3-inside-1_3162_52513)"/>
</g>
<defs>
<filter id="filter0_ii_3162_52513" x="11.013" y="11.1869" width="35.3704" height="33.1653" filterUnits="userSpaceOnUse" color-interpolation-filters="sRGB">
<feFlood flood-opacity="0" result="BackgroundImageFix"/>
<feBlend mode="normal" in="SourceGraphic" in2="BackgroundImageFix" result="shape"/>
<feColorMatrix in="SourceAlpha" type="matrix" values="0 0 0 0 0 0 0 0 0 0 0 0 0 0 0 0 0 0 127 0" result="hardAlpha"/>
<feOffset dx="0.852175" dy="0.852175"/>
<feGaussianBlur stdDeviation="2.43479"/>
<feComposite in2="hardAlpha" operator="arithmetic" k2="-1" k3="1"/>
<feColorMatrix type="matrix" values="0 0 0 0 1 0 0 0 0 1 0 0 0 0 1 0 0 0 0.25 0"/>
<feBlend mode="normal" in2="shape" result="effect1_innerShadow_3162_52513"/>
<feColorMatrix in="SourceAlpha" type="matrix" values="0 0 0 0 0 0 0 0 0 0 0 0 0 0 0 0 0 0 127 0" result="hardAlpha"/>
<feOffset dx="-0.486957" dy="-0.486957"/>
<feGaussianBlur stdDeviation="0.304348"/>
<feComposite in2="hardAlpha" operator="arithmetic" k2="-1" k3="1"/>
<feColorMatrix type="matrix" values="0 0 0 0 0.866667 0 0 0 0 0.862745 0 0 0 0 1 0 0 0 0.8 0"/>
<feBlend mode="normal" in2="effect1_innerShadow_3162_52513" result="effect2_innerShadow_3162_52513"/>
</filter>
<filter id="filter1_ii_3162_52513" x="15.1008" y="11.4303" width="27.0703" height="10.7382" filterUnits="userSpaceOnUse" color-interpolation-filters="sRGB">
<feFlood flood-opacity="0" result="BackgroundImageFix"/>
<feBlend mode="normal" in="SourceGraphic" in2="BackgroundImageFix" result="shape"/>
<feColorMatrix in="SourceAlpha" type="matrix" values="0 0 0 0 0 0 0 0 0 0 0 0 0 0 0 0 0 0 127 0" result="hardAlpha"/>
<feOffset dx="0.486957" dy="0.486957"/>
<feGaussianBlur stdDeviation="2.43479"/>
<feComposite in2="hardAlpha" operator="arithmetic" k2="-1" k3="1"/>
<feColorMatrix type="matrix" values="0 0 0 0 1 0 0 0 0 1 0 0 0 0 1 0 0 0 0.25 0"/>
<feBlend mode="normal" in2="shape" result="effect1_innerShadow_3162_52513"/>
<feColorMatrix in="SourceAlpha" type="matrix" values="0 0 0 0 0 0 0 0 0 0 0 0 0 0 0 0 0 0 127 0" result="hardAlpha"/>
<feOffset dx="-0.243479" dy="-0.243479"/>
<feGaussianBlur stdDeviation="0.182609"/>
<feComposite in2="hardAlpha" operator="arithmetic" k2="-1" k3="1"/>
<feColorMatrix type="matrix" values="0 0 0 0 0.866667 0 0 0 0 0.862745 0 0 0 0 1 0 0 0 0.8 0"/>
<feBlend mode="normal" in2="effect1_innerShadow_3162_52513" result="effect2_innerShadow_3162_52513"/>
</filter>
</defs>
</svg>
