<svg width="58" height="57" viewBox="0 0 58 57" fill="none" xmlns="http://www.w3.org/2000/svg">
<rect x="1" y="0.5" width="56" height="56" rx="9.5" fill="#EEEEFF" stroke="#5451FF"/>
<path d="M23.7114 33.7862V23.209L34.2887 33.7862V23.209" stroke="#5451FF" stroke-width="3.17318" stroke-linecap="round" stroke-linejoin="round"/>
<path d="M14.7207 24.3729C14.7207 20.819 14.7207 19.042 15.4125 17.6839C16.0209 16.4898 16.9917 15.5189 18.1858 14.9105C19.5439 14.2188 21.3209 14.2188 24.8749 14.2188H33.1251C36.6791 14.2188 38.4561 14.2188 39.8142 14.9105C41.0083 15.5189 41.9791 16.4898 42.5875 17.6839C43.2793 19.042 43.2793 20.819 43.2793 24.3729V32.6232C43.2793 36.1771 43.2793 37.9541 42.5875 39.3122C41.9791 40.5063 41.0083 41.4772 39.8142 42.0856C38.4561 42.7773 36.6791 42.7773 33.1251 42.7773H24.8749C21.3209 42.7773 19.5439 42.7773 18.1858 42.0856C16.9917 41.4772 16.0209 40.5063 15.4125 39.3122C14.7207 37.9541 14.7207 36.1771 14.7207 32.6232V24.3729Z" stroke="#5451FF" stroke-width="3.17318" stroke-linecap="round" stroke-linejoin="round"/>
</svg>
