<svg width="58" height="57" viewBox="0 0 58 57" fill="none" xmlns="http://www.w3.org/2000/svg">
<rect x="1.00049" y="0.5" width="56" height="56" rx="9.5" fill="#EEEEFF" stroke="#5451FF"/>
<path d="M32.7505 18.7522L38.7505 24.7517M15.5005 42.0005H21.5005L41.0005 22.5019C41.7961 21.7063 42.2431 20.6272 42.2431 19.5021C42.2431 18.377 41.7961 17.2979 41.0005 16.5023C40.2048 15.7067 39.1257 15.2598 38.0005 15.2598C36.8753 15.2598 35.7961 15.7067 35.0005 16.5023L15.5005 36.0009V42.0005Z" stroke="#5451FF" stroke-width="2.8" stroke-linecap="round" stroke-linejoin="round"/>
<path d="M29.0005 22.4995L21.5005 15L15.5005 20.9996L23.0005 28.499M21.5005 22.4995L19.2505 24.7493M35.0005 28.499L42.5005 35.9985L36.5005 41.9981L29.0005 34.4986M35.0005 35.9985L32.7505 38.2483" stroke="#5451FF" stroke-width="2.8" stroke-linecap="round" stroke-linejoin="round"/>
</svg>
