<svg width="58" height="57" viewBox="0 0 58 57" fill="none" xmlns="http://www.w3.org/2000/svg">
<rect x="1" y="0.5" width="56" height="56" rx="9.5" fill="#EEEEFF" stroke="#5451FF"/>
<g clip-path="url(#clip0_3162_52611)">
<path d="M36.5759 20.9718C36.5759 20.0108 37.3523 19.2344 38.3133 19.2344H45.2631C46.2241 19.2344 47.0006 20.0108 47.0006 20.9718C47.0006 21.9328 46.2241 22.7093 45.2631 22.7093H40.0508V27.9216C40.0508 28.8826 39.2744 29.659 38.3133 29.659H33.101V34.8714C33.101 35.8324 32.3246 36.6088 31.3636 36.6088H26.1512V41.8211C26.1512 42.7822 25.3748 43.5586 24.4138 43.5586H17.464C16.503 43.5586 15.7266 42.7822 15.7266 41.8211C15.7266 40.8601 16.503 40.0837 17.464 40.0837H22.6763V34.8714C22.6763 33.9103 23.4528 33.1339 24.4138 33.1339H29.6261V27.9216C29.6261 26.9606 30.4025 26.1842 31.3636 26.1842H36.5759V20.9718Z" fill="#5451FF"/>
<path d="M15.7266 29.7305L28.249 17.208" stroke="#5451FF" stroke-width="2.5" stroke-linecap="round"/>
<path d="M21.9792 16.6751L27.6473 16.6756C28.0891 16.6757 28.4472 17.0338 28.4472 17.4756L28.4472 23.0938" stroke="#5451FF" stroke-width="2.5" stroke-linecap="round"/>
</g>
<defs>
<clipPath id="clip0_3162_52611">
<rect width="36" height="36" fill="white" transform="translate(11 10.5)"/>
</clipPath>
</defs>
</svg>
