<svg width="58" height="57" viewBox="0 0 58 57" fill="none" xmlns="http://www.w3.org/2000/svg">
<rect x="1" y="0.5" width="56" height="56" rx="9.5" fill="#EEEEFF" stroke="#5451FF"/>
<path d="M28.9999 33.452C30.7503 33.452 32.4291 32.7566 33.6668 31.5189C34.9045 30.2811 35.5999 28.6024 35.5999 26.852V18.602C35.5999 16.8515 34.9045 15.1728 33.6668 13.935C32.4291 12.6973 30.7503 12.002 28.9999 12.002C27.2495 12.002 25.5707 12.6973 24.333 13.935C23.0953 15.1728 22.3999 16.8515 22.3999 18.602V26.852C22.3999 28.6024 23.0953 30.2811 24.333 31.5189C25.5707 32.7566 27.2495 33.452 28.9999 33.452ZM25.6999 18.602C25.6999 17.7267 26.0476 16.8874 26.6665 16.2685C27.2853 15.6496 28.1247 15.302 28.9999 15.302C29.8751 15.302 30.7145 15.6496 31.3334 16.2685C31.9522 16.8874 32.2999 17.7267 32.2999 18.602V26.852C32.2999 27.7272 31.9522 28.5665 31.3334 29.1854C30.7145 29.8043 29.8751 30.152 28.9999 30.152C28.1247 30.152 27.2853 29.8043 26.6665 29.1854C26.0476 28.5665 25.6999 27.7272 25.6999 26.852V18.602Z" fill="#5451FF"/>
<path d="M40.5497 26.8512C40.5497 26.4136 40.3759 25.9939 40.0664 25.6844C39.757 25.375 39.3373 25.2012 38.8997 25.2012C38.4621 25.2012 38.0424 25.375 37.733 25.6844C37.4235 25.9939 37.2497 26.4136 37.2497 26.8512C37.2497 29.0392 36.3805 31.1376 34.8333 32.6848C33.2862 34.232 31.1877 35.1012 28.9997 35.1012C26.8117 35.1012 24.7133 34.232 23.1661 32.6848C21.6189 31.1376 20.7497 29.0392 20.7497 26.8512C20.7497 26.4136 20.5759 25.9939 20.2664 25.6844C19.957 25.375 19.5373 25.2012 19.0997 25.2012C18.6621 25.2012 18.2424 25.375 17.933 25.6844C17.6235 25.9939 17.4497 26.4136 17.4497 26.8512C17.453 29.6262 18.4552 32.3073 20.2732 34.404C22.0911 36.5007 24.6031 37.8727 27.3497 38.2692V41.7012H23.8682C23.4787 41.7012 23.1052 41.8559 22.8298 42.1313C22.5544 42.4067 22.3997 42.7802 22.3997 43.1697V43.5327C22.3997 43.9221 22.5544 44.2957 22.8298 44.5711C23.1052 44.8465 23.4787 45.0012 23.8682 45.0012H34.1312C34.5207 45.0012 34.8942 44.8465 35.1696 44.5711C35.445 44.2957 35.5997 43.9221 35.5997 43.5327V43.1697C35.5997 42.7802 35.445 42.4067 35.1696 42.1313C34.8942 41.8559 34.5207 41.7012 34.1312 41.7012H30.6497V38.2692C33.3963 37.8727 35.9083 36.5007 37.7263 34.404C39.5442 32.3073 40.5465 29.6262 40.5497 26.8512Z" fill="#5451FF"/>
</svg>
