<svg width="57" height="57" viewBox="0 0 57 57" fill="none" xmlns="http://www.w3.org/2000/svg">
<rect width="57" height="57" rx="10" fill="#EEEEFF"/>
<g opacity="0.8">
<mask id="path-3-inside-1_3162_52564" fill="white">
<path fill-rule="evenodd" clip-rule="evenodd" d="M17.0479 17.9688C16.7717 17.9688 16.5479 18.1926 16.5479 18.4688V33.1404C16.5479 33.4165 16.7717 33.6404 17.0479 33.6404H39.9523C40.2284 33.6404 40.4523 33.4165 40.4523 33.1404V18.4688C40.4523 18.1926 40.2284 17.9688 39.9523 17.9688H17.0479ZM11.5479 18.4688C11.5479 15.4312 14.0103 12.9688 17.0479 12.9688H39.9523C42.9898 12.9688 45.4523 15.4312 45.4523 18.4688V33.1404C45.4523 36.1779 42.9898 38.6404 39.9523 38.6404H31.594V41.0293H35.721C36.8808 41.0293 37.821 41.9695 37.821 43.1293C37.821 44.2891 36.8808 45.2293 35.721 45.2293H28.4047H21.2783C20.1185 45.2293 19.1783 44.2891 19.1783 43.1293C19.1783 41.9695 20.1185 41.0293 21.2783 41.0293H25.4043V38.6404H17.0479C14.0103 38.6404 11.5479 36.1779 11.5479 33.1404V18.4688Z"/>
</mask>
<g filter="url(#filter0_ii_3162_52564)">
<path fill-rule="evenodd" clip-rule="evenodd" d="M17.0479 17.9688C16.7717 17.9688 16.5479 18.1926 16.5479 18.4688V33.1404C16.5479 33.4165 16.7717 33.6404 17.0479 33.6404H39.9523C40.2284 33.6404 40.4523 33.4165 40.4523 33.1404V18.4688C40.4523 18.1926 40.2284 17.9688 39.9523 17.9688H17.0479ZM11.5479 18.4688C11.5479 15.4312 14.0103 12.9688 17.0479 12.9688H39.9523C42.9898 12.9688 45.4523 15.4312 45.4523 18.4688V33.1404C45.4523 36.1779 42.9898 38.6404 39.9523 38.6404H31.594V41.0293H35.721C36.8808 41.0293 37.821 41.9695 37.821 43.1293C37.821 44.2891 36.8808 45.2293 35.721 45.2293H28.4047H21.2783C20.1185 45.2293 19.1783 44.2891 19.1783 43.1293C19.1783 41.9695 20.1185 41.0293 21.2783 41.0293H25.4043V38.6404H17.0479C14.0103 38.6404 11.5479 36.1779 11.5479 33.1404V18.4688Z" fill="#6360FF"/>
</g>
<path d="M31.594 38.6404V37.6404H30.594V38.6404H31.594ZM31.594 41.0293H30.594V42.0293H31.594V41.0293ZM25.4043 41.0293V42.0293H26.4043V41.0293H25.4043ZM25.4043 38.6404H26.4043V37.6404H25.4043V38.6404ZM17.5479 18.4688C17.5479 18.7449 17.324 18.9688 17.0479 18.9688V16.9688C16.2194 16.9688 15.5479 17.6403 15.5479 18.4688H17.5479ZM17.5479 33.1404V18.4688H15.5479V33.1404H17.5479ZM17.0479 32.6404C17.324 32.6404 17.5479 32.8642 17.5479 33.1404H15.5479C15.5479 33.9688 16.2194 34.6404 17.0479 34.6404V32.6404ZM39.9523 32.6404H17.0479V34.6404H39.9523V32.6404ZM39.4523 33.1404C39.4523 32.8642 39.6761 32.6404 39.9523 32.6404V34.6404C40.7807 34.6404 41.4523 33.9688 41.4523 33.1404H39.4523ZM39.4523 18.4688V33.1404H41.4523V18.4688H39.4523ZM39.9523 18.9688C39.6761 18.9688 39.4523 18.7449 39.4523 18.4688H41.4523C41.4523 17.6403 40.7807 16.9688 39.9523 16.9688V18.9688ZM17.0479 18.9688H39.9523V16.9688H17.0479V18.9688ZM17.0479 11.9688C13.458 11.9688 10.5479 14.8789 10.5479 18.4688H12.5479C12.5479 15.9835 14.5626 13.9688 17.0479 13.9688V11.9688ZM39.9523 11.9688H17.0479V13.9688H39.9523V11.9688ZM46.4523 18.4688C46.4523 14.8789 43.5421 11.9688 39.9523 11.9688V13.9688C42.4375 13.9688 44.4523 15.9835 44.4523 18.4688H46.4523ZM46.4523 33.1404V18.4688H44.4523V33.1404H46.4523ZM39.9523 39.6404C43.5421 39.6404 46.4523 36.7302 46.4523 33.1404H44.4523C44.4523 35.6257 42.4375 37.6404 39.9523 37.6404V39.6404ZM31.594 39.6404H39.9523V37.6404H31.594V39.6404ZM30.594 38.6404V41.0293H32.594V38.6404H30.594ZM35.721 40.0293H31.594V42.0293H35.721V40.0293ZM38.821 43.1293C38.821 41.4172 37.433 40.0293 35.721 40.0293V42.0293C36.3285 42.0293 36.821 42.5217 36.821 43.1293H38.821ZM35.721 46.2293C37.433 46.2293 38.821 44.8413 38.821 43.1293H36.821C36.821 43.7368 36.3285 44.2293 35.721 44.2293V46.2293ZM28.4047 46.2293H35.721V44.2293H28.4047V46.2293ZM21.2783 46.2293H28.4047V44.2293H21.2783V46.2293ZM18.1783 43.1293C18.1783 44.8413 19.5662 46.2293 21.2783 46.2293V44.2293C20.6708 44.2293 20.1783 43.7368 20.1783 43.1293H18.1783ZM21.2783 40.0293C19.5662 40.0293 18.1783 41.4172 18.1783 43.1293H20.1783C20.1783 42.5217 20.6708 42.0293 21.2783 42.0293V40.0293ZM25.4043 40.0293H21.2783V42.0293H25.4043V40.0293ZM26.4043 41.0293V38.6404H24.4043V41.0293H26.4043ZM17.0479 39.6404H25.4043V37.6404H17.0479V39.6404ZM10.5479 33.1404C10.5479 36.7302 13.458 39.6404 17.0479 39.6404V37.6404C14.5626 37.6404 12.5479 35.6257 12.5479 33.1404H10.5479ZM10.5479 18.4688V33.1404H12.5479V18.4688H10.5479Z" fill="url(#paint0_linear_3162_52564)" mask="url(#path-3-inside-1_3162_52564)"/>
</g>
<defs>
<filter id="filter0_ii_3162_52564" x="11.0479" y="12.4688" width="35.4043" height="33.7598" filterUnits="userSpaceOnUse" color-interpolation-filters="sRGB">
<feFlood flood-opacity="0" result="BackgroundImageFix"/>
<feBlend mode="normal" in="SourceGraphic" in2="BackgroundImageFix" result="shape"/>
<feColorMatrix in="SourceAlpha" type="matrix" values="0 0 0 0 0 0 0 0 0 0 0 0 0 0 0 0 0 0 127 0" result="hardAlpha"/>
<feOffset dx="-0.5" dy="-0.5"/>
<feGaussianBlur stdDeviation="0.25"/>
<feComposite in2="hardAlpha" operator="arithmetic" k2="-1" k3="1"/>
<feColorMatrix type="matrix" values="0 0 0 0 0.866667 0 0 0 0 0.862745 0 0 0 0 1 0 0 0 0.8 0"/>
<feBlend mode="normal" in2="shape" result="effect1_innerShadow_3162_52564"/>
<feColorMatrix in="SourceAlpha" type="matrix" values="0 0 0 0 0 0 0 0 0 0 0 0 0 0 0 0 0 0 127 0" result="hardAlpha"/>
<feOffset dx="1" dy="1"/>
<feGaussianBlur stdDeviation="2"/>
<feComposite in2="hardAlpha" operator="arithmetic" k2="-1" k3="1"/>
<feColorMatrix type="matrix" values="0 0 0 0 1 0 0 0 0 1 0 0 0 0 1 0 0 0 0.25 0"/>
<feBlend mode="normal" in2="effect1_innerShadow_3162_52564" result="effect2_innerShadow_3162_52564"/>
</filter>
<linearGradient id="paint0_linear_3162_52564" x1="44.548" y1="12.9687" x2="13.2287" y2="46.7859" gradientUnits="userSpaceOnUse">
<stop stop-color="white" stop-opacity="0.25"/>
<stop offset="1" stop-color="white" stop-opacity="0.5"/>
</linearGradient>
</defs>
</svg>
